M48
; DRILL file {KiCad 8.0.1} date 2024-04-16T18:22:50+0100
; FORMAT={3:3/ absolute / metric / suppress leading zeros}
; #@! TF.CreationDate,2024-04-16T18:22:50+01:00
; #@! TF.GenerationSoftware,Kicad,Pcbnew,8.0.1
; #@! TF.FileFunction,MixedPlating,1,2
FMAT,2
METRIC,TZ
; #@! TA.AperFunction,Plated,PTH,ComponentDrill
T1C0.800
; #@! TA.AperFunction,Plated,PTH,ComponentDrill
T2C1.020
; #@! TA.AperFunction,Plated,PTH,ComponentDrill
T3C1.100
; #@! TA.AperFunction,Plated,PTH,ComponentDrill
T4C1.300
; #@! TA.AperFunction,Plated,PTH,ComponentDrill
T5C1.320
; #@! TA.AperFunction,NonPlated,NPTH,ComponentDrill
T6C3.200
%
G90
G05
T1
X99500Y-88000
X102500Y-78000
X104500Y-88000
X106680Y-123110
X106680Y-133270
X107500Y-78000
X116840Y-73660
X119350Y-62255
X119350Y-67335
X119380Y-83820
X119420Y-92000
X119500Y-70750
X122000Y-87750
X123135Y-78765
X124350Y-62255
X124350Y-67335
X125675Y-76225
X125675Y-81305
X127000Y-73660
X127000Y-83820
X127000Y-87750
X127120Y-70750
X129580Y-92000
X132090Y-73655
X132090Y-76195
X132090Y-78735
X132090Y-81275
X132090Y-83815
X132090Y-86355
X132090Y-88895
X139710Y-73655
X139710Y-76195
X139710Y-78735
X139710Y-81275
X139710Y-83815
X139710Y-86355
X139710Y-88895
X142170Y-92000
X143385Y-78765
X144630Y-70750
X144780Y-73660
X144780Y-83820
X144780Y-87750
X145925Y-76225
X145925Y-81305
X147370Y-62260
X147370Y-67310
X149780Y-87750
X152250Y-70750
X152330Y-92000
X152370Y-62260
X152370Y-67310
X152400Y-83820
X154940Y-73660
X163195Y-124380
X163195Y-134540
T2
X111760Y-97790
X111760Y-115570
X114300Y-97790
X114300Y-115570
X116840Y-97790
X116840Y-115570
X119380Y-97790
X119380Y-115570
X121920Y-97790
X121920Y-115570
X124460Y-97790
X124460Y-115570
X127000Y-97790
X127000Y-115570
X129540Y-97790
X129540Y-115570
X132080Y-97790
X132080Y-115570
X134620Y-97790
X134620Y-115570
X137160Y-97790
X137160Y-115570
X139700Y-97790
X139700Y-115570
X142240Y-97790
X142240Y-115570
X144780Y-97790
X144780Y-115570
X147320Y-97790
X147320Y-115570
X149860Y-97790
X149860Y-115570
X152400Y-97790
X152400Y-115570
X154940Y-97790
X154940Y-115570
X157480Y-97790
X157480Y-115570
X159790Y-104140
X159790Y-106680
X159790Y-109220
X160020Y-97790
X160020Y-115570
T3
X101000Y-84000
X103540Y-84000
X106080Y-84000
X111760Y-128190
X111760Y-130730
X111760Y-133270
X160020Y-129460
X160020Y-132000
X160020Y-134540
T4
X128300Y-62300
X131300Y-62300
X140500Y-62300
X143500Y-62300
T5
X99000Y-93235
X99000Y-98235
X99000Y-104765
X99000Y-109765
X124765Y-133000
X129765Y-133000
X139765Y-133000
X144765Y-133000
T6
X99250Y-54500
X99250Y-143500
X176750Y-54500
X176750Y-143500
M30
