%TF.GenerationSoftware,KiCad,Pcbnew,8.0.1*%
%TF.CreationDate,2024-04-16T18:22:42+01:00*%
%TF.ProjectId,Mouse-Control-Circuit,4d6f7573-652d-4436-9f6e-74726f6c2d43,rev?*%
%TF.SameCoordinates,Original*%
%TF.FileFunction,Copper,L1,Top*%
%TF.FilePolarity,Positive*%
%FSLAX46Y46*%
G04 Gerber Fmt 4.6, Leading zero omitted, Abs format (unit mm)*
G04 Created by KiCad (PCBNEW 8.0.1) date 2024-04-16 18:22:42*
%MOMM*%
%LPD*%
G01*
G04 APERTURE LIST*
%TA.AperFunction,ComponentPad*%
%ADD10O,1.700000X1.700000*%
%TD*%
%TA.AperFunction,SMDPad,CuDef*%
%ADD11R,1.700000X3.500000*%
%TD*%
%TA.AperFunction,ComponentPad*%
%ADD12R,1.700000X1.700000*%
%TD*%
%TA.AperFunction,SMDPad,CuDef*%
%ADD13R,3.500000X1.700000*%
%TD*%
%TA.AperFunction,ComponentPad*%
%ADD14C,1.440000*%
%TD*%
%TA.AperFunction,ComponentPad*%
%ADD15C,1.600000*%
%TD*%
%TA.AperFunction,ComponentPad*%
%ADD16O,1.600000X1.600000*%
%TD*%
%TA.AperFunction,ComponentPad*%
%ADD17R,2.000000X1.905000*%
%TD*%
%TA.AperFunction,ComponentPad*%
%ADD18O,2.000000X1.905000*%
%TD*%
%TA.AperFunction,ComponentPad*%
%ADD19C,2.600000*%
%TD*%
%TA.AperFunction,ComponentPad*%
%ADD20R,1.600000X1.600000*%
%TD*%
%TA.AperFunction,ComponentPad*%
%ADD21R,3.960000X1.980000*%
%TD*%
%TA.AperFunction,ComponentPad*%
%ADD22O,3.960000X1.980000*%
%TD*%
%TA.AperFunction,ComponentPad*%
%ADD23R,1.980000X3.960000*%
%TD*%
%TA.AperFunction,ComponentPad*%
%ADD24O,1.980000X3.960000*%
%TD*%
%TA.AperFunction,ComponentPad*%
%ADD25R,1.905000X2.000000*%
%TD*%
%TA.AperFunction,ComponentPad*%
%ADD26O,1.905000X2.000000*%
%TD*%
%TA.AperFunction,Conductor*%
%ADD27C,0.500000*%
%TD*%
%TA.AperFunction,Conductor*%
%ADD28C,1.000000*%
%TD*%
G04 APERTURE END LIST*
D10*
%TO.P,U2,1,GPIO0*%
%TO.N,/MOTOR_PWM_L*%
X111760000Y-115570000D03*
D11*
X111760000Y-116470000D03*
D10*
%TO.P,U2,2,GPIO1*%
%TO.N,unconnected-(U2-GPIO1-Pad2)*%
X114300000Y-115570000D03*
D11*
X114300000Y-116470000D03*
D12*
%TO.P,U2,3,GND*%
%TO.N,GND*%
X116840000Y-115570000D03*
D11*
X116840000Y-116470000D03*
D10*
%TO.P,U2,4,GPIO2*%
%TO.N,unconnected-(U2-GPIO2-Pad4)*%
X119380000Y-115570000D03*
D11*
X119380000Y-116470000D03*
D10*
%TO.P,U2,5,GPIO3*%
%TO.N,unconnected-(U2-GPIO3-Pad5)*%
X121920000Y-115570000D03*
D11*
X121920000Y-116470000D03*
D10*
%TO.P,U2,6,GPIO4*%
%TO.N,unconnected-(U2-GPIO4-Pad6)*%
X124460000Y-115570000D03*
D11*
X124460000Y-116470000D03*
D10*
%TO.P,U2,7,GPIO5*%
%TO.N,unconnected-(U2-GPIO5-Pad7)*%
X127000000Y-115570000D03*
D11*
X127000000Y-116470000D03*
D12*
%TO.P,U2,8,GND*%
%TO.N,GND*%
X129540000Y-115570000D03*
D11*
X129540000Y-116470000D03*
D10*
%TO.P,U2,9,GPIO6*%
%TO.N,unconnected-(U2-GPIO6-Pad9)*%
X132080000Y-115570000D03*
D11*
X132080000Y-116470000D03*
D10*
%TO.P,U2,10,GPIO7*%
%TO.N,unconnected-(U2-GPIO7-Pad10)*%
X134620000Y-115570000D03*
D11*
X134620000Y-116470000D03*
D10*
%TO.P,U2,11,GPIO8*%
%TO.N,unconnected-(U2-GPIO8-Pad11)*%
X137160000Y-115570000D03*
D11*
X137160000Y-116470000D03*
D10*
%TO.P,U2,12,GPIO9*%
%TO.N,unconnected-(U2-GPIO9-Pad12)*%
X139700000Y-115570000D03*
D11*
X139700000Y-116470000D03*
D12*
%TO.P,U2,13,GND*%
%TO.N,GND*%
X142240000Y-115570000D03*
D11*
X142240000Y-116470000D03*
D10*
%TO.P,U2,14,GPIO10*%
%TO.N,unconnected-(U2-GPIO10-Pad14)*%
X144780000Y-115570000D03*
D11*
X144780000Y-116470000D03*
D10*
%TO.P,U2,15,GPIO11*%
%TO.N,unconnected-(U2-GPIO11-Pad15)*%
X147320000Y-115570000D03*
D11*
X147320000Y-116470000D03*
D10*
%TO.P,U2,16,GPIO12*%
%TO.N,unconnected-(U2-GPIO12-Pad16)*%
X149860000Y-115570000D03*
D11*
X149860000Y-116470000D03*
D10*
%TO.P,U2,17,GPIO13*%
%TO.N,unconnected-(U2-GPIO13-Pad17)*%
X152400000Y-115570000D03*
D11*
X152400000Y-116470000D03*
D12*
%TO.P,U2,18,GND*%
%TO.N,GND*%
X154940000Y-115570000D03*
D11*
X154940000Y-116470000D03*
D10*
%TO.P,U2,19,GPIO14*%
%TO.N,/MOTOR_PWM_R*%
X157480000Y-115570000D03*
D11*
X157480000Y-116470000D03*
D10*
%TO.P,U2,20,GPIO15*%
%TO.N,unconnected-(U2-GPIO15-Pad20)*%
X160020000Y-115570000D03*
D11*
X160020000Y-116470000D03*
D10*
%TO.P,U2,21,GPIO16*%
%TO.N,unconnected-(U2-GPIO16-Pad21)*%
X160020000Y-97790000D03*
D11*
X160020000Y-96890000D03*
D10*
%TO.P,U2,22,GPIO17*%
%TO.N,unconnected-(U2-GPIO17-Pad22)*%
X157480000Y-97790000D03*
D11*
X157480000Y-96890000D03*
D12*
%TO.P,U2,23,GND*%
%TO.N,GND*%
X154940000Y-97790000D03*
D11*
X154940000Y-96890000D03*
D10*
%TO.P,U2,24,GPIO18*%
%TO.N,unconnected-(U2-GPIO18-Pad24)*%
X152400000Y-97790000D03*
D11*
X152400000Y-96890000D03*
D10*
%TO.P,U2,25,GPIO19*%
%TO.N,unconnected-(U2-GPIO19-Pad25)*%
X149860000Y-97790000D03*
D11*
X149860000Y-96890000D03*
D10*
%TO.P,U2,26,GPIO20*%
%TO.N,unconnected-(U2-GPIO20-Pad26)*%
X147320000Y-97790000D03*
D11*
X147320000Y-96890000D03*
D10*
%TO.P,U2,27,GPIO21*%
%TO.N,unconnected-(U2-GPIO21-Pad27)*%
X144780000Y-97790000D03*
D11*
X144780000Y-96890000D03*
D12*
%TO.P,U2,28,GND*%
%TO.N,GND*%
X142240000Y-97790000D03*
D11*
X142240000Y-96890000D03*
D10*
%TO.P,U2,29,GPIO22*%
%TO.N,unconnected-(U2-GPIO22-Pad29)*%
X139700000Y-97790000D03*
D11*
X139700000Y-96890000D03*
D10*
%TO.P,U2,30,RUN*%
%TO.N,unconnected-(U2-RUN-Pad30)*%
X137160000Y-97790000D03*
D11*
X137160000Y-96890000D03*
D10*
%TO.P,U2,31,GPIO26_ADC0*%
%TO.N,/PEAK_OUT_R*%
X134620000Y-97790000D03*
D11*
X134620000Y-96890000D03*
D10*
%TO.P,U2,32,GPIO27_ADC1*%
%TO.N,/PEAK_OUT_L*%
X132080000Y-97790000D03*
D11*
X132080000Y-96890000D03*
D12*
%TO.P,U2,33,AGND*%
%TO.N,unconnected-(U2-AGND-Pad33)*%
X129540000Y-97790000D03*
D11*
X129540000Y-96890000D03*
D10*
%TO.P,U2,34,GPIO28_ADC2*%
%TO.N,/Boost Converter Feedback*%
X127000000Y-97790000D03*
D11*
X127000000Y-96890000D03*
D10*
%TO.P,U2,35,ADC_VREF*%
%TO.N,unconnected-(U2-ADC_VREF-Pad35)*%
X124460000Y-97790000D03*
D11*
X124460000Y-96890000D03*
D10*
%TO.P,U2,36,3V3*%
%TO.N,unconnected-(U2-3V3-Pad36)*%
X121920000Y-97790000D03*
D11*
X121920000Y-96890000D03*
D10*
%TO.P,U2,37,3V3_EN*%
%TO.N,unconnected-(U2-3V3_EN-Pad37)*%
X119380000Y-97790000D03*
D11*
X119380000Y-96890000D03*
D12*
%TO.P,U2,38,GND*%
%TO.N,GND*%
X116840000Y-97790000D03*
D11*
X116840000Y-96890000D03*
D10*
%TO.P,U2,39,VSYS*%
%TO.N,+5V*%
X114300000Y-97790000D03*
D11*
X114300000Y-96890000D03*
D10*
%TO.P,U2,40,VBUS*%
%TO.N,unconnected-(U2-VBUS-Pad40)*%
X111760000Y-97790000D03*
D11*
X111760000Y-96890000D03*
D10*
%TO.P,U2,41,SWCLK*%
%TO.N,unconnected-(U2-SWCLK-Pad41)*%
X159790000Y-109220000D03*
D13*
X160690000Y-109220000D03*
D12*
%TO.P,U2,42,GND*%
%TO.N,GND*%
X159790000Y-106680000D03*
D13*
X160690000Y-106680000D03*
D10*
%TO.P,U2,43,SWDIO*%
%TO.N,unconnected-(U2-SWDIO-Pad43)*%
X159790000Y-104140000D03*
D13*
X160690000Y-104140000D03*
%TD*%
D14*
%TO.P,RV2,1,1*%
%TO.N,Net-(U1D--)*%
X145925000Y-76224999D03*
%TO.P,RV2,2,2*%
%TO.N,Net-(D4-K)*%
X143385000Y-78764999D03*
%TO.P,RV2,3,3*%
%TO.N,unconnected-(RV2-Pad3)*%
X145925000Y-81304998D03*
%TD*%
%TO.P,RV1,1,1*%
%TO.N,Net-(U1A--)*%
X125675000Y-76225001D03*
%TO.P,RV1,2,2*%
%TO.N,Net-(D2-K)*%
X123135000Y-78765001D03*
%TO.P,RV1,3,3*%
%TO.N,unconnected-(RV1-Pad3)*%
X125675000Y-81305000D03*
%TD*%
D15*
%TO.P,C5,1*%
%TO.N,/SINE_IN_R*%
X147370001Y-62260000D03*
%TO.P,C5,2*%
%TO.N,GND*%
X152370001Y-62260000D03*
%TD*%
%TO.P,R4,1*%
%TO.N,/MOTOR_PWM_L*%
X106680000Y-123110001D03*
D16*
%TO.P,R4,2*%
%TO.N,Net-(Q1-B)*%
X106680000Y-133270001D03*
%TD*%
D15*
%TO.P,R11,1*%
%TO.N,Net-(D3-K)*%
X152330000Y-92000000D03*
D16*
%TO.P,R11,2*%
%TO.N,/PEAK_OUT_R*%
X142170000Y-92000000D03*
%TD*%
D17*
%TO.P,Q2,1,B*%
%TO.N,Net-(Q2-B)*%
X160020000Y-134540000D03*
D18*
%TO.P,Q2,2,C*%
%TO.N,Net-(M2--)*%
X160020000Y-132000000D03*
%TO.P,Q2,3,E*%
%TO.N,GND*%
X160020000Y-129460000D03*
%TD*%
D15*
%TO.P,C11,1*%
%TO.N,+5V*%
X107500000Y-78000000D03*
%TO.P,C11,2*%
%TO.N,GND*%
X102500000Y-78000000D03*
%TD*%
D17*
%TO.P,Q1,1,B*%
%TO.N,Net-(Q1-B)*%
X111760000Y-133270000D03*
D18*
%TO.P,Q1,2,C*%
%TO.N,Net-(M1--)*%
X111760000Y-130730000D03*
%TO.P,Q1,3,E*%
%TO.N,GND*%
X111760000Y-128190000D03*
%TD*%
D15*
%TO.P,C1,1*%
%TO.N,GND*%
X122000000Y-87750000D03*
%TO.P,C1,2*%
%TO.N,Net-(D2-K)*%
X127000000Y-87750000D03*
%TD*%
D19*
%TO.P,L2,1,1*%
%TO.N,/SINE_IN_R*%
X143500000Y-62300000D03*
%TO.P,L2,2,2*%
%TO.N,GND*%
X140500000Y-62300000D03*
%TD*%
D20*
%TO.P,D1,1,K*%
%TO.N,Net-(D1-K)*%
X119500000Y-70750000D03*
D16*
%TO.P,D1,2,A*%
%TO.N,Net-(D1-A)*%
X127120000Y-70750000D03*
%TD*%
D15*
%TO.P,R6,1*%
%TO.N,GND*%
X154940000Y-73660000D03*
D16*
%TO.P,R6,2*%
%TO.N,Net-(U1D--)*%
X144780000Y-73660000D03*
%TD*%
D15*
%TO.P,C10,1*%
%TO.N,+9V*%
X99500000Y-88000000D03*
%TO.P,C10,2*%
%TO.N,GND*%
X104500000Y-88000000D03*
%TD*%
D20*
%TO.P,D4,1,K*%
%TO.N,Net-(D4-K)*%
X144780000Y-83820000D03*
D16*
%TO.P,D4,2,A*%
%TO.N,Net-(D3-K)*%
X152400000Y-83820000D03*
%TD*%
D19*
%TO.P,L1,1,1*%
%TO.N,/SINE_IN_L*%
X128300000Y-62300000D03*
%TO.P,L1,2,2*%
%TO.N,GND*%
X131300000Y-62300000D03*
%TD*%
D15*
%TO.P,R3,1*%
%TO.N,GND*%
X116840000Y-73660000D03*
D16*
%TO.P,R3,2*%
%TO.N,Net-(U1A--)*%
X127000000Y-73660000D03*
%TD*%
D15*
%TO.P,C2,1*%
%TO.N,GND*%
X149780000Y-87750000D03*
%TO.P,C2,2*%
%TO.N,Net-(D4-K)*%
X144780000Y-87750000D03*
%TD*%
%TO.P,R1,1*%
%TO.N,Net-(D1-K)*%
X119420000Y-92000000D03*
D16*
%TO.P,R1,2*%
%TO.N,/PEAK_OUT_L*%
X129580000Y-92000000D03*
%TD*%
D21*
%TO.P,J2,1,Pin_1*%
%TO.N,+9V*%
X99000000Y-93235000D03*
D22*
%TO.P,J2,2,Pin_2*%
%TO.N,-9V*%
X99000000Y-98235000D03*
%TD*%
D20*
%TO.P,D3,1,K*%
%TO.N,Net-(D3-K)*%
X152250000Y-70750000D03*
D16*
%TO.P,D3,2,A*%
%TO.N,Net-(D3-A)*%
X144630000Y-70750000D03*
%TD*%
D23*
%TO.P,M1,1,+*%
%TO.N,VCC*%
X129765000Y-133000000D03*
D24*
%TO.P,M1,2,-*%
%TO.N,Net-(M1--)*%
X124765000Y-133000000D03*
%TD*%
D22*
%TO.P,J1,2,Pin_2*%
%TO.N,GND*%
X99000000Y-104765000D03*
D21*
%TO.P,J1,1,Pin_1*%
%TO.N,VCC*%
X99000000Y-109765000D03*
%TD*%
D20*
%TO.P,D2,1,K*%
%TO.N,Net-(D2-K)*%
X127000000Y-83820000D03*
D16*
%TO.P,D2,2,A*%
%TO.N,Net-(D1-K)*%
X119380000Y-83820000D03*
%TD*%
D15*
%TO.P,R9,1*%
%TO.N,/MOTOR_PWM_R*%
X163195000Y-124380000D03*
D16*
%TO.P,R9,2*%
%TO.N,Net-(Q2-B)*%
X163195000Y-134540000D03*
%TD*%
D15*
%TO.P,C3,1*%
%TO.N,/SINE_IN_L*%
X124350001Y-62255000D03*
%TO.P,C3,2*%
%TO.N,GND*%
X119350001Y-62255000D03*
%TD*%
D23*
%TO.P,M2,1,+*%
%TO.N,VCC*%
X144765000Y-133000000D03*
D24*
%TO.P,M2,2,-*%
%TO.N,Net-(M2--)*%
X139765000Y-133000000D03*
%TD*%
D25*
%TO.P,U3,1,IN*%
%TO.N,+9V*%
X101000000Y-84000000D03*
D26*
%TO.P,U3,2,GND*%
%TO.N,GND*%
X103540000Y-84000000D03*
%TO.P,U3,3,OUT*%
%TO.N,+5V*%
X106080000Y-84000000D03*
%TD*%
D20*
%TO.P,U1,1*%
%TO.N,Net-(D1-A)*%
X132090000Y-73655000D03*
D16*
%TO.P,U1,2,-*%
%TO.N,Net-(U1A--)*%
X132090000Y-76195000D03*
%TO.P,U1,3,+*%
%TO.N,/SINE_IN_L*%
X132090000Y-78735000D03*
%TO.P,U1,4,V+*%
%TO.N,+9V*%
X132090000Y-81275000D03*
%TO.P,U1,5,+*%
%TO.N,Net-(D2-K)*%
X132090000Y-83815000D03*
%TO.P,U1,6,-*%
%TO.N,/PEAK_OUT_L*%
X132090000Y-86355000D03*
%TO.P,U1,7*%
X132090000Y-88895000D03*
%TO.P,U1,8*%
%TO.N,/PEAK_OUT_R*%
X139710000Y-88895000D03*
%TO.P,U1,9,-*%
X139710000Y-86355000D03*
%TO.P,U1,10,+*%
%TO.N,Net-(D4-K)*%
X139710000Y-83815000D03*
%TO.P,U1,11,V-*%
%TO.N,-9V*%
X139710000Y-81275000D03*
%TO.P,U1,12,+*%
%TO.N,/SINE_IN_R*%
X139710000Y-78735000D03*
%TO.P,U1,13,-*%
%TO.N,Net-(U1D--)*%
X139710000Y-76195000D03*
%TO.P,U1,14*%
%TO.N,Net-(D3-A)*%
X139710000Y-73655000D03*
%TD*%
D15*
%TO.P,C6,1*%
%TO.N,/SINE_IN_R*%
X147370001Y-67310000D03*
%TO.P,C6,2*%
%TO.N,GND*%
X152370001Y-67310000D03*
%TD*%
%TO.P,C4,1*%
%TO.N,/SINE_IN_L*%
X124350001Y-67335000D03*
%TO.P,C4,2*%
%TO.N,GND*%
X119350001Y-67335000D03*
%TD*%
D27*
%TO.N,-9V*%
X99000000Y-98235000D02*
X95970000Y-95205000D01*
X95970000Y-95205000D02*
X95970000Y-72730000D01*
X133500000Y-54300000D02*
X136750000Y-57550000D01*
X95970000Y-72730000D02*
X114400000Y-54300000D01*
X114400000Y-54300000D02*
X133500000Y-54300000D01*
X136750000Y-57550000D02*
X136750000Y-78315000D01*
X136750000Y-78315000D02*
X139710000Y-81275000D01*
%TO.N,+9V*%
X132090000Y-81275000D02*
X135250000Y-78115000D01*
X135250000Y-58850000D02*
X132600000Y-56200000D01*
X115400000Y-56200000D02*
X100300000Y-71300000D01*
X135250000Y-78115000D02*
X135250000Y-58850000D01*
X132600000Y-56200000D02*
X115400000Y-56200000D01*
X100300000Y-71300000D02*
X100300000Y-83300000D01*
X100300000Y-83300000D02*
X101000000Y-84000000D01*
%TO.N,/SINE_IN_L*%
X124350001Y-62255000D02*
X124350001Y-67335000D01*
X128300000Y-62300000D02*
X124395001Y-62300000D01*
X124395001Y-62300000D02*
X124350001Y-62255000D01*
%TO.N,/SINE_IN_R*%
X147370001Y-62260000D02*
X147370001Y-67310000D01*
X147370001Y-62260000D02*
X143540000Y-62260000D01*
X143540000Y-62260000D02*
X143500000Y-62300000D01*
%TO.N,/MOTOR_PWM_R*%
X163195000Y-124380000D02*
X157480000Y-118665000D01*
X157480000Y-118665000D02*
X157480000Y-115570000D01*
%TO.N,/MOTOR_PWM_L*%
X111760000Y-115570000D02*
X111760000Y-118030001D01*
X111760000Y-118030001D02*
X106680000Y-123110001D01*
%TO.N,Net-(D3-A)*%
X144630000Y-70750000D02*
X142615000Y-70750000D01*
X142615000Y-70750000D02*
X139710000Y-73655000D01*
%TO.N,Net-(D1-A)*%
X127120000Y-70750000D02*
X129185000Y-70750000D01*
X129185000Y-70750000D02*
X132090000Y-73655000D01*
%TO.N,Net-(D3-K)*%
X152400000Y-83820000D02*
X152400000Y-70900000D01*
X152400000Y-70900000D02*
X152250000Y-70750000D01*
%TO.N,Net-(D1-K)*%
X119380000Y-83820000D02*
X119380000Y-70870000D01*
X119380000Y-70870000D02*
X119500000Y-70750000D01*
%TO.N,Net-(U1A--)*%
X127000000Y-73660000D02*
X125675000Y-74985000D01*
X125675000Y-74985000D02*
X125675000Y-76225001D01*
%TO.N,Net-(D4-K)*%
X143385000Y-78764999D02*
X143385000Y-83680000D01*
X143385000Y-83680000D02*
X143250000Y-83815000D01*
%TO.N,Net-(U1D--)*%
X145925000Y-76224999D02*
X145925000Y-74805000D01*
X145925000Y-74805000D02*
X144780000Y-73660000D01*
%TO.N,Net-(D2-K)*%
X123135000Y-78765001D02*
X123135000Y-81255000D01*
X123135000Y-81255000D02*
X125700000Y-83820000D01*
X125700000Y-83820000D02*
X127000000Y-83820000D01*
%TO.N,Net-(D3-K)*%
X152330000Y-92000000D02*
X152400000Y-91930000D01*
X152400000Y-91930000D02*
X152400000Y-83820000D01*
%TO.N,Net-(D4-K)*%
X144780000Y-83820000D02*
X144780000Y-87750000D01*
%TO.N,Net-(D1-K)*%
X119420000Y-92000000D02*
X119420000Y-83860000D01*
X119420000Y-83860000D02*
X119380000Y-83820000D01*
%TO.N,/PEAK_OUT_R*%
X139710000Y-89540000D02*
X134620000Y-94630000D01*
X134620000Y-94630000D02*
X134620000Y-97790000D01*
X139710000Y-88895000D02*
X139710000Y-89540000D01*
X139710000Y-89540000D02*
X142170000Y-92000000D01*
%TO.N,Net-(D2-K)*%
X127000000Y-83820000D02*
X127000000Y-87750000D01*
%TO.N,/PEAK_OUT_L*%
X132090000Y-92000000D02*
X132090000Y-97780000D01*
X132090000Y-88895000D02*
X132090000Y-92000000D01*
X132090000Y-92000000D02*
X129580000Y-92000000D01*
%TO.N,Net-(D2-K)*%
X127005000Y-83815000D02*
X127000000Y-83820000D01*
X132090000Y-83815000D02*
X127005000Y-83815000D01*
%TO.N,Net-(D4-K)*%
X139710000Y-83815000D02*
X144775000Y-83815000D01*
X144775000Y-83815000D02*
X144780000Y-83820000D01*
%TO.N,/SINE_IN_L*%
X132335000Y-67335000D02*
X134000000Y-69000000D01*
X134000000Y-76825000D02*
X132090000Y-78735000D01*
X134000000Y-69000000D02*
X134000000Y-76825000D01*
X124350001Y-67335000D02*
X132335000Y-67335000D01*
%TO.N,/SINE_IN_R*%
X147370001Y-67310000D02*
X139690000Y-67310000D01*
X139690000Y-67310000D02*
X138000000Y-69000000D01*
X138000000Y-69000000D02*
X138000000Y-77025000D01*
X138000000Y-77025000D02*
X139710000Y-78735000D01*
D28*
%TO.N,VCC*%
X129765000Y-130235000D02*
X132500000Y-127500000D01*
X141500000Y-127500000D02*
X144765000Y-130765000D01*
X129765000Y-136235000D02*
X129765000Y-133000000D01*
X129765000Y-133000000D02*
X129765000Y-130235000D01*
X99000000Y-133000000D02*
X106000000Y-140000000D01*
X132500000Y-127500000D02*
X141500000Y-127500000D01*
X106000000Y-140000000D02*
X126000000Y-140000000D01*
X126000000Y-140000000D02*
X129765000Y-136235000D01*
X144765000Y-130765000D02*
X144765000Y-133000000D01*
X99000000Y-109765000D02*
X99000000Y-133000000D01*
D27*
%TO.N,/PEAK_OUT_L*%
X132090000Y-97780000D02*
X132080000Y-97790000D01*
X132090000Y-88895000D02*
X132090000Y-86355000D01*
X132085000Y-86360000D02*
X132090000Y-86355000D01*
%TO.N,Net-(U1A--)*%
X132090000Y-76195000D02*
X132075000Y-76195000D01*
X127000000Y-73660000D02*
X129540000Y-73660000D01*
X132075000Y-76195000D02*
X129540000Y-73660000D01*
%TO.N,/PEAK_OUT_R*%
X139710000Y-86355000D02*
X139710000Y-88895000D01*
X139715000Y-86360000D02*
X139710000Y-86355000D01*
%TO.N,Net-(U1D--)*%
X139710000Y-76195000D02*
X139710000Y-76190000D01*
X139710000Y-76190000D02*
X142240000Y-73660000D01*
X142240000Y-73660000D02*
X144780000Y-73660000D01*
D28*
%TO.N,+5V*%
X107500000Y-78000000D02*
X106080000Y-79420000D01*
X106080000Y-79420000D02*
X106080000Y-84000000D01*
X106080000Y-84000000D02*
X114300000Y-92220000D01*
X114300000Y-92220000D02*
X114300000Y-97790000D01*
D27*
%TO.N,Net-(Q1-B)*%
X111760000Y-133270000D02*
X106680000Y-133270001D01*
D28*
%TO.N,Net-(Q2-B)*%
X160020000Y-134540000D02*
X163195000Y-134540000D01*
%TO.N,+9V*%
X99500000Y-85500000D02*
X99500000Y-86500000D01*
X99500000Y-92735000D02*
X99000000Y-93235000D01*
X99500000Y-86500000D02*
X99500000Y-88000000D01*
X99500000Y-88000000D02*
X99500000Y-92735000D01*
X101000000Y-84000000D02*
X99500000Y-85500000D01*
%TO.N,Net-(M1--)*%
X122495000Y-130730000D02*
X111760000Y-130730000D01*
X124765000Y-133000000D02*
X122495000Y-130730000D01*
%TO.N,Net-(M2--)*%
X142000000Y-138000000D02*
X151603750Y-138000000D01*
X157603750Y-132000000D02*
X160020000Y-132000000D01*
X151603750Y-138000000D02*
X157603750Y-132000000D01*
X139765000Y-135765000D02*
X142000000Y-138000000D01*
X139765000Y-133000000D02*
X139765000Y-135765000D01*
%TD*%
%TA.AperFunction,Conductor*%
%TO.N,GND*%
G36*
X132074174Y-57469454D02*
G01*
X132154956Y-57523430D01*
X133926570Y-59295044D01*
X133980546Y-59375826D01*
X133999500Y-59471114D01*
X133999500Y-61588987D01*
X133980546Y-61684275D01*
X133926570Y-61765057D01*
X133845788Y-61819033D01*
X133750500Y-61837987D01*
X133655212Y-61819033D01*
X133574430Y-61765057D01*
X133520454Y-61684275D01*
X133514715Y-61669026D01*
X133429483Y-61417945D01*
X133429476Y-61417926D01*
X133296134Y-61147537D01*
X133296133Y-61147535D01*
X133241434Y-61065672D01*
X132007107Y-62299999D01*
X133241435Y-63534327D01*
X133241436Y-63534327D01*
X133296128Y-63452473D01*
X133296129Y-63452472D01*
X133429476Y-63182073D01*
X133429483Y-63182055D01*
X133514715Y-62930973D01*
X133563292Y-62846835D01*
X133640371Y-62787690D01*
X133734215Y-62762545D01*
X133830539Y-62775227D01*
X133914677Y-62823804D01*
X133973822Y-62900883D01*
X133998967Y-62994727D01*
X133999500Y-63011012D01*
X133999500Y-66629886D01*
X133980546Y-66725174D01*
X133926570Y-66805956D01*
X133845788Y-66859932D01*
X133750500Y-66878886D01*
X133655212Y-66859932D01*
X133574431Y-66805956D01*
X133149647Y-66381173D01*
X133115238Y-66356173D01*
X132990405Y-66265476D01*
X132815026Y-66176116D01*
X132815023Y-66176115D01*
X132815021Y-66176114D01*
X132627823Y-66115290D01*
X132433428Y-66084501D01*
X132433419Y-66084500D01*
X132433417Y-66084500D01*
X132433413Y-66084500D01*
X125849501Y-66084500D01*
X125754213Y-66065546D01*
X125673431Y-66011570D01*
X125619455Y-65930788D01*
X125600501Y-65835500D01*
X125600501Y-63799500D01*
X125619455Y-63704212D01*
X125673431Y-63623430D01*
X125754213Y-63569454D01*
X125849501Y-63550500D01*
X126235677Y-63550500D01*
X126330965Y-63569454D01*
X126411747Y-63623430D01*
X126442714Y-63661165D01*
X126470977Y-63703464D01*
X126669802Y-63930179D01*
X126669811Y-63930189D01*
X126896539Y-64129025D01*
X127147282Y-64296566D01*
X127147291Y-64296570D01*
X127147292Y-64296571D01*
X127417734Y-64429939D01*
X127417741Y-64429941D01*
X127417748Y-64429945D01*
X127603234Y-64492909D01*
X127703302Y-64526878D01*
X127703306Y-64526879D01*
X127703309Y-64526880D01*
X127855339Y-64557121D01*
X127999069Y-64585711D01*
X127999074Y-64585711D01*
X127999080Y-64585713D01*
X128300000Y-64605436D01*
X128600920Y-64585713D01*
X128896691Y-64526880D01*
X129182252Y-64429945D01*
X129182261Y-64429940D01*
X129182265Y-64429939D01*
X129315267Y-64364349D01*
X129452718Y-64296566D01*
X129662113Y-64156652D01*
X129751871Y-64119474D01*
X129849026Y-64119473D01*
X129938786Y-64156653D01*
X130147530Y-64296131D01*
X130417926Y-64429476D01*
X130417945Y-64429483D01*
X130703431Y-64526394D01*
X130703438Y-64526395D01*
X130999135Y-64585214D01*
X130999147Y-64585216D01*
X131300000Y-64604934D01*
X131600852Y-64585216D01*
X131600864Y-64585214D01*
X131896561Y-64526395D01*
X131896568Y-64526394D01*
X132182054Y-64429483D01*
X132182073Y-64429476D01*
X132452472Y-64296129D01*
X132452473Y-64296128D01*
X132534327Y-64241436D01*
X132534327Y-64241435D01*
X131242893Y-62950000D01*
X131364019Y-62950000D01*
X131489598Y-62925021D01*
X131607890Y-62876022D01*
X131714351Y-62804888D01*
X131804888Y-62714351D01*
X131876022Y-62607890D01*
X131925021Y-62489598D01*
X131950000Y-62364019D01*
X131950000Y-62235981D01*
X131925021Y-62110402D01*
X131876022Y-61992110D01*
X131804888Y-61885649D01*
X131714351Y-61795112D01*
X131607890Y-61723978D01*
X131489598Y-61674979D01*
X131364019Y-61650000D01*
X131242894Y-61650000D01*
X131300001Y-61592893D01*
X132534327Y-60358564D01*
X132452469Y-60303868D01*
X132182073Y-60170523D01*
X132182054Y-60170516D01*
X131896568Y-60073605D01*
X131896561Y-60073604D01*
X131600864Y-60014785D01*
X131600852Y-60014783D01*
X131300000Y-59995065D01*
X130999147Y-60014783D01*
X130999135Y-60014785D01*
X130703438Y-60073604D01*
X130703431Y-60073605D01*
X130417945Y-60170516D01*
X130417926Y-60170523D01*
X130147543Y-60303862D01*
X130147529Y-60303870D01*
X129938785Y-60443347D01*
X129849025Y-60480526D01*
X129751870Y-60480525D01*
X129662112Y-60443346D01*
X129452724Y-60303438D01*
X129452723Y-60303437D01*
X129452718Y-60303434D01*
X129452713Y-60303431D01*
X129452707Y-60303428D01*
X129182265Y-60170060D01*
X129182253Y-60170055D01*
X129182252Y-60170055D01*
X129172476Y-60166736D01*
X128896697Y-60073121D01*
X128896689Y-60073119D01*
X128600930Y-60014288D01*
X128600918Y-60014286D01*
X128300000Y-59994564D01*
X127999081Y-60014286D01*
X127999069Y-60014288D01*
X127703310Y-60073119D01*
X127703302Y-60073121D01*
X127417753Y-60170053D01*
X127417734Y-60170060D01*
X127147292Y-60303428D01*
X127147275Y-60303438D01*
X126896539Y-60470974D01*
X126669819Y-60669803D01*
X126669802Y-60669820D01*
X126470977Y-60896535D01*
X126442714Y-60938835D01*
X126374016Y-61007535D01*
X126284256Y-61044715D01*
X126235677Y-61049500D01*
X125795628Y-61049500D01*
X125700340Y-61030546D01*
X125626265Y-60983030D01*
X125475739Y-60843362D01*
X125252779Y-60691350D01*
X125252774Y-60691348D01*
X125009650Y-60574265D01*
X125009645Y-60574263D01*
X125009642Y-60574262D01*
X124751773Y-60494720D01*
X124484930Y-60454500D01*
X124215072Y-60454500D01*
X124014939Y-60484665D01*
X123948228Y-60494720D01*
X123690354Y-60574264D01*
X123447228Y-60691348D01*
X123224258Y-60843366D01*
X123026438Y-61026916D01*
X122858190Y-61237892D01*
X122858189Y-61237892D01*
X122723258Y-61471601D01*
X122723257Y-61471604D01*
X122624668Y-61722801D01*
X122624664Y-61722812D01*
X122564617Y-61985899D01*
X122544452Y-62255000D01*
X122564617Y-62524100D01*
X122624664Y-62787187D01*
X122624668Y-62787198D01*
X122631611Y-62804888D01*
X122723258Y-63038398D01*
X122806311Y-63182252D01*
X122858189Y-63272107D01*
X123026439Y-63483085D01*
X123032775Y-63489913D01*
X123030613Y-63491918D01*
X123076657Y-63555329D01*
X123099312Y-63649806D01*
X123099501Y-63659513D01*
X123099501Y-65930486D01*
X123080547Y-66025774D01*
X123031618Y-66099002D01*
X123032781Y-66100081D01*
X123026445Y-66106909D01*
X123026440Y-66106914D01*
X123026440Y-66106915D01*
X122991192Y-66151114D01*
X122858187Y-66317896D01*
X122723258Y-66551601D01*
X122723257Y-66551604D01*
X122624668Y-66802801D01*
X122624664Y-66802812D01*
X122564617Y-67065899D01*
X122544452Y-67335000D01*
X122564617Y-67604100D01*
X122624664Y-67867187D01*
X122624667Y-67867195D01*
X122723258Y-68118398D01*
X122772911Y-68204401D01*
X122858189Y-68352107D01*
X123025246Y-68561588D01*
X123026440Y-68563085D01*
X123224260Y-68746635D01*
X123447227Y-68898651D01*
X123690360Y-69015738D01*
X123948229Y-69095280D01*
X124215072Y-69135500D01*
X124215075Y-69135500D01*
X124484927Y-69135500D01*
X124484930Y-69135500D01*
X124751773Y-69095280D01*
X125009642Y-69015738D01*
X125252776Y-68898651D01*
X125475742Y-68746635D01*
X125577767Y-68651969D01*
X125660509Y-68601052D01*
X125747129Y-68585500D01*
X126376969Y-68585500D01*
X126472257Y-68604454D01*
X126553039Y-68658430D01*
X126607015Y-68739212D01*
X126625969Y-68834500D01*
X126607015Y-68929788D01*
X126553039Y-69010570D01*
X126472257Y-69064546D01*
X126467929Y-69066292D01*
X126460364Y-69069260D01*
X126460359Y-69069262D01*
X126460353Y-69069264D01*
X126460350Y-69069266D01*
X126217227Y-69186348D01*
X125994257Y-69338366D01*
X125796437Y-69521916D01*
X125628189Y-69732892D01*
X125628188Y-69732892D01*
X125493257Y-69966601D01*
X125493256Y-69966604D01*
X125394667Y-70217801D01*
X125394663Y-70217812D01*
X125334616Y-70480899D01*
X125314451Y-70750000D01*
X125334616Y-71019100D01*
X125394663Y-71282187D01*
X125394667Y-71282198D01*
X125493256Y-71533395D01*
X125493257Y-71533398D01*
X125628188Y-71767107D01*
X125796438Y-71978085D01*
X125797834Y-71979589D01*
X125798497Y-71980666D01*
X125802248Y-71985370D01*
X125801673Y-71985828D01*
X125848755Y-72062330D01*
X125864136Y-72158260D01*
X125841636Y-72252773D01*
X125784679Y-72331482D01*
X125784673Y-72331488D01*
X125676437Y-72431915D01*
X125508189Y-72642892D01*
X125508188Y-72642892D01*
X125373257Y-72876601D01*
X125373256Y-72876604D01*
X125274667Y-73127801D01*
X125274663Y-73127812D01*
X125214616Y-73390899D01*
X125198351Y-73607946D01*
X125172329Y-73701551D01*
X125126117Y-73765407D01*
X124721172Y-74170353D01*
X124721170Y-74170356D01*
X124605475Y-74329596D01*
X124516116Y-74504973D01*
X124516113Y-74504981D01*
X124482372Y-74608827D01*
X124455290Y-74692176D01*
X124424501Y-74886571D01*
X124424500Y-74886587D01*
X124424500Y-74946481D01*
X124405546Y-75041769D01*
X124370176Y-75101730D01*
X124249474Y-75253085D01*
X124249473Y-75253085D01*
X124120536Y-75476413D01*
X124120535Y-75476414D01*
X124026324Y-75716460D01*
X123968945Y-75967857D01*
X123949676Y-76225001D01*
X123968945Y-76482144D01*
X124026325Y-76733543D01*
X124063325Y-76827818D01*
X124080493Y-76923444D01*
X124059761Y-77018361D01*
X124004283Y-77098119D01*
X123922506Y-77150575D01*
X123826880Y-77167743D01*
X123758142Y-77156724D01*
X123518926Y-77082935D01*
X123518922Y-77082934D01*
X123518921Y-77082934D01*
X123263934Y-77044501D01*
X123006066Y-77044501D01*
X122751079Y-77082934D01*
X122751078Y-77082934D01*
X122751073Y-77082935D01*
X122504676Y-77158939D01*
X122504662Y-77158944D01*
X122272343Y-77270823D01*
X122059281Y-77416086D01*
X122059272Y-77416093D01*
X121870246Y-77591483D01*
X121709474Y-77793085D01*
X121709473Y-77793085D01*
X121652434Y-77891881D01*
X121590013Y-77999999D01*
X121580536Y-78016413D01*
X121580535Y-78016414D01*
X121486324Y-78256460D01*
X121428945Y-78507857D01*
X121409676Y-78765001D01*
X121428945Y-79022144D01*
X121486324Y-79273541D01*
X121486326Y-79273548D01*
X121486327Y-79273549D01*
X121497457Y-79301908D01*
X121580531Y-79513577D01*
X121580537Y-79513591D01*
X121692027Y-79706698D01*
X121709473Y-79736916D01*
X121709474Y-79736917D01*
X121830175Y-79888269D01*
X121874768Y-79974586D01*
X121884500Y-80043519D01*
X121884500Y-81353412D01*
X121884501Y-81353428D01*
X121915290Y-81547823D01*
X121915291Y-81547826D01*
X121976116Y-81735026D01*
X122065476Y-81910405D01*
X122181172Y-82069646D01*
X124885354Y-84773829D01*
X125044595Y-84889524D01*
X125201890Y-84969670D01*
X125278185Y-85029817D01*
X125309548Y-85076243D01*
X125355901Y-85164983D01*
X125360302Y-85173407D01*
X125488891Y-85331109D01*
X125621208Y-85438999D01*
X125656380Y-85467678D01*
X125654270Y-85470264D01*
X125706626Y-85521939D01*
X125744392Y-85611453D01*
X125749500Y-85661628D01*
X125749500Y-86345486D01*
X125730546Y-86440774D01*
X125681617Y-86514002D01*
X125682780Y-86515081D01*
X125676444Y-86521909D01*
X125508186Y-86732896D01*
X125373257Y-86966601D01*
X125373256Y-86966604D01*
X125274667Y-87217801D01*
X125274663Y-87217812D01*
X125214616Y-87480899D01*
X125194451Y-87750000D01*
X125214616Y-88019100D01*
X125274663Y-88282187D01*
X125274666Y-88282195D01*
X125373257Y-88533398D01*
X125422910Y-88619401D01*
X125508188Y-88767107D01*
X125676437Y-88978083D01*
X125676439Y-88978085D01*
X125874259Y-89161635D01*
X126097226Y-89313651D01*
X126340359Y-89430738D01*
X126598228Y-89510280D01*
X126865071Y-89550500D01*
X126865074Y-89550500D01*
X127134926Y-89550500D01*
X127134929Y-89550500D01*
X127401772Y-89510280D01*
X127659641Y-89430738D01*
X127902775Y-89313651D01*
X128125741Y-89161635D01*
X128323561Y-88978085D01*
X128491815Y-88767102D01*
X128626743Y-88533398D01*
X128725334Y-88282195D01*
X128785383Y-88019103D01*
X128805549Y-87750000D01*
X128785383Y-87480897D01*
X128742472Y-87292892D01*
X128725336Y-87217812D01*
X128725334Y-87217809D01*
X128725334Y-87217805D01*
X128626743Y-86966602D01*
X128491815Y-86732898D01*
X128323561Y-86521915D01*
X128323555Y-86521909D01*
X128317220Y-86515081D01*
X128319332Y-86513120D01*
X128273107Y-86449155D01*
X128250668Y-86354627D01*
X128250500Y-86345486D01*
X128250500Y-85661628D01*
X128269454Y-85566340D01*
X128323430Y-85485558D01*
X128344316Y-85468531D01*
X128343620Y-85467678D01*
X128378792Y-85438999D01*
X128511109Y-85331109D01*
X128639698Y-85173407D01*
X128639698Y-85173405D01*
X128647678Y-85163620D01*
X128649350Y-85164983D01*
X128705285Y-85108340D01*
X128794808Y-85070596D01*
X128844924Y-85065500D01*
X130324174Y-85065500D01*
X130419462Y-85084454D01*
X130500244Y-85138430D01*
X130554220Y-85219212D01*
X130573174Y-85314500D01*
X130554220Y-85409788D01*
X130539815Y-85438999D01*
X130463260Y-85571595D01*
X130463256Y-85571604D01*
X130364667Y-85822801D01*
X130364663Y-85822812D01*
X130304616Y-86085899D01*
X130284451Y-86355000D01*
X130304616Y-86624100D01*
X130364663Y-86887187D01*
X130364667Y-86887198D01*
X130395916Y-86966818D01*
X130463257Y-87138398D01*
X130598185Y-87372102D01*
X130598189Y-87372107D01*
X130676057Y-87469751D01*
X130720650Y-87556068D01*
X130728815Y-87652880D01*
X130699311Y-87745446D01*
X130676057Y-87780249D01*
X130598189Y-87877892D01*
X130598188Y-87877892D01*
X130463257Y-88111601D01*
X130463256Y-88111604D01*
X130364667Y-88362801D01*
X130364663Y-88362812D01*
X130304616Y-88625899D01*
X130284451Y-88895000D01*
X130304616Y-89164100D01*
X130364663Y-89427187D01*
X130364667Y-89427198D01*
X130372385Y-89446863D01*
X130463257Y-89678398D01*
X130598185Y-89912102D01*
X130598187Y-89912105D01*
X130598188Y-89912106D01*
X130668689Y-90000512D01*
X130713281Y-90086829D01*
X130721446Y-90183640D01*
X130691942Y-90276207D01*
X130629260Y-90350437D01*
X130542943Y-90395029D01*
X130446132Y-90403194D01*
X130365975Y-90380101D01*
X130304377Y-90350437D01*
X130239646Y-90319264D01*
X130239643Y-90319263D01*
X130239641Y-90319262D01*
X129981772Y-90239720D01*
X129714929Y-90199500D01*
X129445071Y-90199500D01*
X129244938Y-90229665D01*
X129178227Y-90239720D01*
X128920353Y-90319264D01*
X128677227Y-90436348D01*
X128454257Y-90588366D01*
X128256437Y-90771916D01*
X128088189Y-90982892D01*
X128088188Y-90982892D01*
X127953257Y-91216601D01*
X127953256Y-91216604D01*
X127854667Y-91467801D01*
X127854663Y-91467812D01*
X127794616Y-91730899D01*
X127774451Y-92000000D01*
X127794616Y-92269100D01*
X127854663Y-92532187D01*
X127854667Y-92532198D01*
X127953256Y-92783395D01*
X127953257Y-92783398D01*
X128088188Y-93017107D01*
X128256437Y-93228083D01*
X128256439Y-93228085D01*
X128454259Y-93411635D01*
X128642369Y-93539886D01*
X128677229Y-93563653D01*
X128823650Y-93634165D01*
X128890086Y-93666159D01*
X128967714Y-93724579D01*
X129017076Y-93808260D01*
X129030657Y-93904461D01*
X129006390Y-93998537D01*
X128947970Y-94076165D01*
X128864289Y-94125527D01*
X128782051Y-94139500D01*
X128631969Y-94139500D01*
X128631956Y-94139501D01*
X128512583Y-94150113D01*
X128338498Y-94199925D01*
X128241672Y-94207915D01*
X128201502Y-94199925D01*
X128081082Y-94165469D01*
X128027418Y-94150114D01*
X127908037Y-94139500D01*
X127908035Y-94139500D01*
X126091968Y-94139500D01*
X126091956Y-94139501D01*
X125972583Y-94150113D01*
X125798498Y-94199925D01*
X125701672Y-94207915D01*
X125661502Y-94199925D01*
X125541082Y-94165469D01*
X125487418Y-94150114D01*
X125368037Y-94139500D01*
X125368035Y-94139500D01*
X123551968Y-94139500D01*
X123551956Y-94139501D01*
X123432583Y-94150113D01*
X123258498Y-94199925D01*
X123161672Y-94207915D01*
X123121502Y-94199925D01*
X123001082Y-94165469D01*
X122947418Y-94150114D01*
X122828037Y-94139500D01*
X122828035Y-94139500D01*
X121011968Y-94139500D01*
X121011956Y-94139501D01*
X120892583Y-94150113D01*
X120718498Y-94199925D01*
X120621672Y-94207915D01*
X120581502Y-94199925D01*
X120461082Y-94165469D01*
X120407418Y-94150114D01*
X120288037Y-94139500D01*
X120288036Y-94139500D01*
X120217952Y-94139500D01*
X120122664Y-94120546D01*
X120041882Y-94066570D01*
X119987906Y-93985788D01*
X119968952Y-93890500D01*
X119987906Y-93795212D01*
X120041882Y-93714430D01*
X120109915Y-93666159D01*
X120174256Y-93635174D01*
X120322775Y-93563651D01*
X120545741Y-93411635D01*
X120743561Y-93228085D01*
X120911815Y-93017102D01*
X121046743Y-92783398D01*
X121145334Y-92532195D01*
X121205383Y-92269103D01*
X121225549Y-92000000D01*
X121205383Y-91730897D01*
X121160417Y-91533889D01*
X121145336Y-91467812D01*
X121145334Y-91467809D01*
X121145334Y-91467805D01*
X121046743Y-91216602D01*
X120911815Y-90982898D01*
X120743561Y-90771915D01*
X120743555Y-90771909D01*
X120737220Y-90765081D01*
X120739332Y-90763120D01*
X120693107Y-90699155D01*
X120670668Y-90604627D01*
X120670500Y-90595486D01*
X120670500Y-89493240D01*
X120689454Y-89397952D01*
X120743430Y-89317170D01*
X120824212Y-89263194D01*
X120919500Y-89244240D01*
X121014788Y-89263194D01*
X121059768Y-89287507D01*
X121097479Y-89313218D01*
X121340535Y-89430268D01*
X121340540Y-89430270D01*
X121598333Y-89509789D01*
X121865112Y-89550000D01*
X122134888Y-89550000D01*
X122401666Y-89509789D01*
X122659459Y-89430270D01*
X122659464Y-89430268D01*
X122871195Y-89328303D01*
X121468962Y-87926070D01*
X121414986Y-87845288D01*
X121406507Y-87802661D01*
X121600000Y-87802661D01*
X121627259Y-87904394D01*
X121679920Y-87995606D01*
X121754394Y-88070080D01*
X121845606Y-88122741D01*
X121947339Y-88150000D01*
X122052661Y-88150000D01*
X122154394Y-88122741D01*
X122245606Y-88070080D01*
X122320080Y-87995606D01*
X122372741Y-87904394D01*
X122400000Y-87802661D01*
X122400000Y-87749999D01*
X122707107Y-87749999D01*
X123576510Y-88619402D01*
X123626290Y-88533181D01*
X123626292Y-88533176D01*
X123724855Y-88282041D01*
X123784884Y-88019031D01*
X123805046Y-87750000D01*
X123784884Y-87480968D01*
X123724855Y-87217958D01*
X123626291Y-86966818D01*
X123576510Y-86880596D01*
X122707107Y-87749999D01*
X122400000Y-87749999D01*
X122400000Y-87697339D01*
X122372741Y-87595606D01*
X122320080Y-87504394D01*
X122245606Y-87429920D01*
X122154394Y-87377259D01*
X122052661Y-87350000D01*
X121947339Y-87350000D01*
X121845606Y-87377259D01*
X121754394Y-87429920D01*
X121679920Y-87504394D01*
X121627259Y-87595606D01*
X121600000Y-87697339D01*
X121600000Y-87802661D01*
X121406507Y-87802661D01*
X121396032Y-87750000D01*
X121414986Y-87654712D01*
X121468962Y-87573930D01*
X121468963Y-87573930D01*
X122000001Y-87042893D01*
X122871195Y-86171696D01*
X122871195Y-86171695D01*
X122659459Y-86069729D01*
X122401666Y-85990210D01*
X122134888Y-85950000D01*
X121865112Y-85950000D01*
X121598333Y-85990210D01*
X121340540Y-86069729D01*
X121340535Y-86069731D01*
X121097478Y-86186781D01*
X121059765Y-86212494D01*
X120970356Y-86250510D01*
X120873206Y-86251418D01*
X120783103Y-86215078D01*
X120713765Y-86147024D01*
X120675749Y-86057615D01*
X120670500Y-86006759D01*
X120670500Y-85176671D01*
X120689454Y-85081383D01*
X120724821Y-85021425D01*
X120871815Y-84837102D01*
X121006743Y-84603398D01*
X121105334Y-84352195D01*
X121165383Y-84089103D01*
X121185549Y-83820000D01*
X121165383Y-83550897D01*
X121105334Y-83287805D01*
X121006743Y-83036602D01*
X120871815Y-82802898D01*
X120703561Y-82591915D01*
X120703555Y-82591909D01*
X120697220Y-82585081D01*
X120699332Y-82583120D01*
X120653107Y-82519155D01*
X120630668Y-82424627D01*
X120630500Y-82415486D01*
X120630500Y-72656992D01*
X120649454Y-72561704D01*
X120703430Y-72480922D01*
X120764211Y-72436289D01*
X120853407Y-72389698D01*
X121011109Y-72261109D01*
X121139698Y-72103407D01*
X121233909Y-71923049D01*
X121289886Y-71727418D01*
X121300500Y-71608037D01*
X121300499Y-69891964D01*
X121289886Y-69772582D01*
X121233909Y-69576951D01*
X121139698Y-69396593D01*
X121011109Y-69238891D01*
X120853407Y-69110302D01*
X120853402Y-69110299D01*
X120673053Y-69016093D01*
X120673052Y-69016092D01*
X120673049Y-69016091D01*
X120477418Y-68960114D01*
X120358037Y-68949500D01*
X120358036Y-68949500D01*
X120352531Y-68949256D01*
X120352541Y-68949011D01*
X120352536Y-68949011D01*
X120352547Y-68948879D01*
X120352590Y-68947920D01*
X120265245Y-68930546D01*
X120184463Y-68876570D01*
X119350000Y-68042107D01*
X118441269Y-68950837D01*
X118360488Y-69004813D01*
X118333704Y-69014158D01*
X118326962Y-69016087D01*
X118326946Y-69016093D01*
X118146597Y-69110299D01*
X118146592Y-69110302D01*
X117988893Y-69238889D01*
X117988889Y-69238893D01*
X117860302Y-69396592D01*
X117860299Y-69396597D01*
X117766093Y-69576946D01*
X117766090Y-69576954D01*
X117710115Y-69772578D01*
X117710114Y-69772582D01*
X117699500Y-69891963D01*
X117699500Y-71608031D01*
X117699501Y-71608045D01*
X117706289Y-71684398D01*
X117695847Y-71780990D01*
X117649235Y-71866234D01*
X117573551Y-71927151D01*
X117480315Y-71954468D01*
X117384873Y-71944384D01*
X117241662Y-71900209D01*
X116974888Y-71860000D01*
X116705112Y-71860000D01*
X116438333Y-71900210D01*
X116180543Y-71979728D01*
X115968803Y-72081696D01*
X117371037Y-73483930D01*
X117425013Y-73564712D01*
X117443967Y-73660000D01*
X117425013Y-73755288D01*
X117371037Y-73836070D01*
X115968803Y-75238303D01*
X116180535Y-75340268D01*
X116180540Y-75340270D01*
X116438333Y-75419789D01*
X116705112Y-75460000D01*
X116974888Y-75460000D01*
X117241666Y-75419789D01*
X117499459Y-75340270D01*
X117499465Y-75340268D01*
X117742522Y-75223217D01*
X117750596Y-75218557D01*
X117751438Y-75220017D01*
X117829624Y-75186765D01*
X117926774Y-75185850D01*
X118016880Y-75222182D01*
X118086223Y-75290231D01*
X118124247Y-75379636D01*
X118129500Y-75430512D01*
X118129500Y-82415486D01*
X118110546Y-82510774D01*
X118061617Y-82584002D01*
X118062780Y-82585081D01*
X118056444Y-82591909D01*
X118056439Y-82591914D01*
X118056439Y-82591915D01*
X118028499Y-82626951D01*
X117888186Y-82802896D01*
X117753257Y-83036601D01*
X117753256Y-83036604D01*
X117654667Y-83287801D01*
X117654663Y-83287812D01*
X117594616Y-83550899D01*
X117574451Y-83820000D01*
X117594616Y-84089100D01*
X117654663Y-84352187D01*
X117654666Y-84352195D01*
X117751293Y-84598395D01*
X117753256Y-84603395D01*
X117753257Y-84603398D01*
X117888188Y-84837107D01*
X118056438Y-85048085D01*
X118056442Y-85048089D01*
X118089862Y-85079098D01*
X118146822Y-85157804D01*
X118169326Y-85252317D01*
X118169500Y-85261628D01*
X118169500Y-90595486D01*
X118150546Y-90690774D01*
X118101617Y-90764002D01*
X118102780Y-90765081D01*
X118096444Y-90771909D01*
X117928186Y-90982896D01*
X117793257Y-91216601D01*
X117793256Y-91216604D01*
X117694667Y-91467801D01*
X117694663Y-91467812D01*
X117634616Y-91730899D01*
X117614451Y-92000000D01*
X117634616Y-92269100D01*
X117694663Y-92532187D01*
X117694667Y-92532198D01*
X117793256Y-92783395D01*
X117793257Y-92783398D01*
X117928188Y-93017107D01*
X118096437Y-93228083D01*
X118096439Y-93228085D01*
X118294259Y-93411635D01*
X118482369Y-93539886D01*
X118517229Y-93563653D01*
X118663650Y-93634165D01*
X118730086Y-93666159D01*
X118807714Y-93724579D01*
X118857076Y-93808260D01*
X118870657Y-93904461D01*
X118846390Y-93998537D01*
X118787970Y-94076165D01*
X118704289Y-94125527D01*
X118622051Y-94139500D01*
X118471969Y-94139500D01*
X118471956Y-94139501D01*
X118352583Y-94150113D01*
X118177589Y-94200185D01*
X118080763Y-94208175D01*
X118040593Y-94200185D01*
X117867336Y-94150611D01*
X117867328Y-94150609D01*
X117748005Y-94140000D01*
X117340001Y-94140000D01*
X117340000Y-94140001D01*
X117340000Y-97685535D01*
X117315245Y-97593147D01*
X117248102Y-97476853D01*
X117153147Y-97381898D01*
X117036853Y-97314755D01*
X116907143Y-97280000D01*
X116772857Y-97280000D01*
X116643147Y-97314755D01*
X116526853Y-97381898D01*
X116431898Y-97476853D01*
X116364755Y-97593147D01*
X116340000Y-97685535D01*
X116340000Y-94140001D01*
X116339999Y-94140000D01*
X116049500Y-94140000D01*
X115954212Y-94121046D01*
X115873430Y-94067070D01*
X115819454Y-93986288D01*
X115800500Y-93891000D01*
X115800500Y-92101912D01*
X115800498Y-92101896D01*
X115780459Y-91975373D01*
X115763553Y-91868632D01*
X115693591Y-91653314D01*
X115691461Y-91645760D01*
X115583345Y-91433569D01*
X115583344Y-91433568D01*
X115583343Y-91433566D01*
X115444517Y-91242490D01*
X108093749Y-83891722D01*
X108039773Y-83810940D01*
X108022949Y-83748153D01*
X108011645Y-83662292D01*
X107999583Y-83570671D01*
X107933322Y-83323382D01*
X107835350Y-83086857D01*
X107707344Y-82865143D01*
X107707341Y-82865139D01*
X107707338Y-82865134D01*
X107631955Y-82766893D01*
X107588984Y-82679757D01*
X107580500Y-82615312D01*
X107580500Y-80144665D01*
X107599454Y-80049377D01*
X107653428Y-79968598D01*
X107800229Y-79821796D01*
X107881007Y-79767822D01*
X107902881Y-79759937D01*
X108159641Y-79680738D01*
X108159647Y-79680735D01*
X108159648Y-79680735D01*
X108279674Y-79622933D01*
X108402775Y-79563651D01*
X108625741Y-79411635D01*
X108823561Y-79228085D01*
X108991815Y-79017102D01*
X109126743Y-78783398D01*
X109225334Y-78532195D01*
X109230890Y-78507855D01*
X109240466Y-78465897D01*
X109285383Y-78269103D01*
X109305549Y-78000000D01*
X109285383Y-77730897D01*
X109249553Y-77573914D01*
X109225336Y-77467812D01*
X109225334Y-77467809D01*
X109225334Y-77467805D01*
X109126743Y-77216602D01*
X108991815Y-76982898D01*
X108991813Y-76982895D01*
X108991811Y-76982892D01*
X108823562Y-76771916D01*
X108625738Y-76588362D01*
X108402778Y-76436350D01*
X108402773Y-76436348D01*
X108159649Y-76319265D01*
X108159644Y-76319263D01*
X108159641Y-76319262D01*
X107901772Y-76239720D01*
X107634929Y-76199500D01*
X107365071Y-76199500D01*
X107164938Y-76229665D01*
X107098227Y-76239720D01*
X106840353Y-76319264D01*
X106597227Y-76436348D01*
X106374257Y-76588366D01*
X106176437Y-76771916D01*
X106008189Y-76982892D01*
X106008188Y-76982892D01*
X105873257Y-77216601D01*
X105873256Y-77216604D01*
X105774663Y-77467810D01*
X105750552Y-77573446D01*
X105710869Y-77662127D01*
X105683866Y-77694105D01*
X104935484Y-78442488D01*
X104796657Y-78633566D01*
X104694831Y-78833410D01*
X104694832Y-78833411D01*
X104689429Y-78844014D01*
X104616446Y-79068635D01*
X104579501Y-79301896D01*
X104579500Y-79301912D01*
X104579500Y-81897049D01*
X104560546Y-81992337D01*
X104506570Y-82073119D01*
X104425788Y-82127095D01*
X104330500Y-82146049D01*
X104235214Y-82127096D01*
X104168957Y-82099652D01*
X104040000Y-82065098D01*
X104040000Y-83766025D01*
X103980110Y-83662292D01*
X103877708Y-83559890D01*
X103752292Y-83487482D01*
X103612409Y-83450000D01*
X103467591Y-83450000D01*
X103327708Y-83487482D01*
X103202292Y-83559890D01*
X103099890Y-83662292D01*
X103040000Y-83766025D01*
X103040000Y-82065098D01*
X103039999Y-82065098D01*
X102911041Y-82099652D01*
X102727781Y-82175561D01*
X102632492Y-82194515D01*
X102537204Y-82175561D01*
X102517595Y-82165202D01*
X102517101Y-82166149D01*
X102325553Y-82066093D01*
X102325552Y-82066092D01*
X102325549Y-82066091D01*
X102129918Y-82010114D01*
X102010537Y-81999500D01*
X102010536Y-81999500D01*
X101799500Y-81999500D01*
X101704212Y-81980546D01*
X101623430Y-81926570D01*
X101569454Y-81845788D01*
X101550500Y-81750500D01*
X101550500Y-79928187D01*
X101569454Y-79832899D01*
X101623430Y-79752117D01*
X101704212Y-79698141D01*
X101799500Y-79679187D01*
X101872895Y-79690250D01*
X102098333Y-79759789D01*
X102365112Y-79800000D01*
X102634888Y-79800000D01*
X102901666Y-79759789D01*
X103159459Y-79680270D01*
X103159464Y-79680268D01*
X103371195Y-79578303D01*
X101968962Y-78176070D01*
X101914986Y-78095288D01*
X101906507Y-78052661D01*
X102100000Y-78052661D01*
X102127259Y-78154394D01*
X102179920Y-78245606D01*
X102254394Y-78320080D01*
X102345606Y-78372741D01*
X102447339Y-78400000D01*
X102552661Y-78400000D01*
X102654394Y-78372741D01*
X102745606Y-78320080D01*
X102820080Y-78245606D01*
X102872741Y-78154394D01*
X102900000Y-78052661D01*
X102900000Y-77999999D01*
X103207107Y-77999999D01*
X104076510Y-78869402D01*
X104126290Y-78783181D01*
X104126292Y-78783176D01*
X104224855Y-78532041D01*
X104284884Y-78269031D01*
X104305046Y-78000000D01*
X104284884Y-77730968D01*
X104224855Y-77467958D01*
X104126291Y-77216818D01*
X104076510Y-77130596D01*
X103207107Y-77999999D01*
X102900000Y-77999999D01*
X102900000Y-77947339D01*
X102872741Y-77845606D01*
X102820080Y-77754394D01*
X102745606Y-77679920D01*
X102654394Y-77627259D01*
X102552661Y-77600000D01*
X102447339Y-77600000D01*
X102345606Y-77627259D01*
X102254394Y-77679920D01*
X102179920Y-77754394D01*
X102127259Y-77845606D01*
X102100000Y-77947339D01*
X102100000Y-78052661D01*
X101906507Y-78052661D01*
X101896032Y-78000000D01*
X101914986Y-77904712D01*
X101968962Y-77823930D01*
X101968963Y-77823930D01*
X102500001Y-77292893D01*
X103371195Y-76421696D01*
X103371195Y-76421695D01*
X103159459Y-76319729D01*
X102901666Y-76240210D01*
X102634888Y-76200000D01*
X102365112Y-76200000D01*
X102098338Y-76240209D01*
X101872894Y-76309750D01*
X101776253Y-76319724D01*
X101683150Y-76291957D01*
X101607761Y-76230674D01*
X101561562Y-76145206D01*
X101550500Y-76071812D01*
X101550500Y-73660000D01*
X115034953Y-73660000D01*
X115055115Y-73929031D01*
X115115144Y-74192041D01*
X115213705Y-74443173D01*
X115213708Y-74443178D01*
X115263489Y-74529401D01*
X116080229Y-73712661D01*
X116440000Y-73712661D01*
X116467259Y-73814394D01*
X116519920Y-73905606D01*
X116594394Y-73980080D01*
X116685606Y-74032741D01*
X116787339Y-74060000D01*
X116892661Y-74060000D01*
X116994394Y-74032741D01*
X117085606Y-73980080D01*
X117160080Y-73905606D01*
X117212741Y-73814394D01*
X117240000Y-73712661D01*
X117240000Y-73607339D01*
X117212741Y-73505606D01*
X117160080Y-73414394D01*
X117085606Y-73339920D01*
X116994394Y-73287259D01*
X116892661Y-73260000D01*
X116787339Y-73260000D01*
X116685606Y-73287259D01*
X116594394Y-73339920D01*
X116519920Y-73414394D01*
X116467259Y-73505606D01*
X116440000Y-73607339D01*
X116440000Y-73712661D01*
X116080229Y-73712661D01*
X116132891Y-73659999D01*
X115263488Y-72790596D01*
X115213714Y-72876809D01*
X115213707Y-72876823D01*
X115115143Y-73127960D01*
X115055115Y-73390968D01*
X115034953Y-73660000D01*
X101550500Y-73660000D01*
X101550500Y-71921114D01*
X101569454Y-71825826D01*
X101623430Y-71745044D01*
X106033474Y-67335000D01*
X117544954Y-67335000D01*
X117565116Y-67604031D01*
X117625145Y-67867041D01*
X117723706Y-68118173D01*
X117723709Y-68118178D01*
X117773490Y-68204401D01*
X118590230Y-67387661D01*
X118950001Y-67387661D01*
X118977260Y-67489394D01*
X119029921Y-67580606D01*
X119104395Y-67655080D01*
X119195607Y-67707741D01*
X119297340Y-67735000D01*
X119402662Y-67735000D01*
X119504395Y-67707741D01*
X119595607Y-67655080D01*
X119670081Y-67580606D01*
X119722742Y-67489394D01*
X119750001Y-67387661D01*
X119750001Y-67334999D01*
X120057108Y-67334999D01*
X120926511Y-68204402D01*
X120976291Y-68118181D01*
X120976293Y-68118176D01*
X121074856Y-67867041D01*
X121134885Y-67604031D01*
X121155047Y-67335000D01*
X121134885Y-67065968D01*
X121074856Y-66802958D01*
X120976292Y-66551818D01*
X120926511Y-66465596D01*
X120057108Y-67334999D01*
X119750001Y-67334999D01*
X119750001Y-67282339D01*
X119722742Y-67180606D01*
X119670081Y-67089394D01*
X119595607Y-67014920D01*
X119504395Y-66962259D01*
X119402662Y-66935000D01*
X119297340Y-66935000D01*
X119195607Y-66962259D01*
X119104395Y-67014920D01*
X119029921Y-67089394D01*
X118977260Y-67180606D01*
X118950001Y-67282339D01*
X118950001Y-67387661D01*
X118590230Y-67387661D01*
X118642892Y-67334999D01*
X117773489Y-66465596D01*
X117723715Y-66551809D01*
X117723708Y-66551823D01*
X117625144Y-66802960D01*
X117565116Y-67065968D01*
X117544954Y-67335000D01*
X106033474Y-67335000D01*
X107611778Y-65756696D01*
X118478804Y-65756696D01*
X119350000Y-66627892D01*
X120221196Y-65756695D01*
X120009460Y-65654729D01*
X119751667Y-65575210D01*
X119484889Y-65535000D01*
X119215113Y-65535000D01*
X118948334Y-65575210D01*
X118690544Y-65654728D01*
X118478804Y-65756696D01*
X107611778Y-65756696D01*
X109535172Y-63833303D01*
X118478804Y-63833303D01*
X118690536Y-63935268D01*
X118690541Y-63935270D01*
X118948334Y-64014789D01*
X119215113Y-64055000D01*
X119484889Y-64055000D01*
X119751667Y-64014789D01*
X120009460Y-63935270D01*
X120009465Y-63935268D01*
X120221196Y-63833303D01*
X119350000Y-62962107D01*
X118478804Y-63833303D01*
X109535172Y-63833303D01*
X111113475Y-62255000D01*
X117544954Y-62255000D01*
X117565116Y-62524031D01*
X117625145Y-62787041D01*
X117723706Y-63038173D01*
X117723709Y-63038178D01*
X117773490Y-63124401D01*
X118590230Y-62307661D01*
X118950001Y-62307661D01*
X118977260Y-62409394D01*
X119029921Y-62500606D01*
X119104395Y-62575080D01*
X119195607Y-62627741D01*
X119297340Y-62655000D01*
X119402662Y-62655000D01*
X119504395Y-62627741D01*
X119595607Y-62575080D01*
X119670081Y-62500606D01*
X119722742Y-62409394D01*
X119750001Y-62307661D01*
X119750001Y-62254999D01*
X120057108Y-62254999D01*
X120926511Y-63124402D01*
X120976291Y-63038181D01*
X120976293Y-63038176D01*
X121074856Y-62787041D01*
X121134885Y-62524031D01*
X121155047Y-62255000D01*
X121134885Y-61985968D01*
X121074856Y-61722958D01*
X120976292Y-61471818D01*
X120926511Y-61385596D01*
X120057108Y-62254999D01*
X119750001Y-62254999D01*
X119750001Y-62202339D01*
X119722742Y-62100606D01*
X119670081Y-62009394D01*
X119595607Y-61934920D01*
X119504395Y-61882259D01*
X119402662Y-61855000D01*
X119297340Y-61855000D01*
X119195607Y-61882259D01*
X119104395Y-61934920D01*
X119029921Y-62009394D01*
X118977260Y-62100606D01*
X118950001Y-62202339D01*
X118950001Y-62307661D01*
X118590230Y-62307661D01*
X118642892Y-62254999D01*
X117773489Y-61385596D01*
X117723715Y-61471809D01*
X117723708Y-61471823D01*
X117625144Y-61722960D01*
X117565116Y-61985968D01*
X117544954Y-62255000D01*
X111113475Y-62255000D01*
X112691779Y-60676696D01*
X118478804Y-60676696D01*
X119350000Y-61547892D01*
X120221196Y-60676695D01*
X120009460Y-60574729D01*
X119751667Y-60495210D01*
X119484889Y-60455000D01*
X119215113Y-60455000D01*
X118948334Y-60495210D01*
X118690544Y-60574728D01*
X118478804Y-60676696D01*
X112691779Y-60676696D01*
X115845045Y-57523430D01*
X115925827Y-57469454D01*
X116021115Y-57450500D01*
X131978886Y-57450500D01*
X132074174Y-57469454D01*
G37*
%TD.AperFunction*%
%TA.AperFunction,Conductor*%
G36*
X142586288Y-96408954D02*
G01*
X142667070Y-96462930D01*
X142721046Y-96543712D01*
X142740000Y-96639000D01*
X142740000Y-97685535D01*
X142715245Y-97593147D01*
X142648102Y-97476853D01*
X142553147Y-97381898D01*
X142436853Y-97314755D01*
X142307143Y-97280000D01*
X142172857Y-97280000D01*
X142043147Y-97314755D01*
X141926853Y-97381898D01*
X141831898Y-97476853D01*
X141764755Y-97593147D01*
X141740000Y-97685535D01*
X141740000Y-96639000D01*
X141758954Y-96543712D01*
X141812930Y-96462930D01*
X141893712Y-96408954D01*
X141989000Y-96390000D01*
X142491000Y-96390000D01*
X142586288Y-96408954D01*
G37*
%TD.AperFunction*%
%TA.AperFunction,Conductor*%
G36*
X186845788Y-50019454D02*
G01*
X186926570Y-50073430D01*
X186980546Y-50154212D01*
X186999500Y-50249500D01*
X186999500Y-147750500D01*
X186980546Y-147845788D01*
X186926570Y-147926570D01*
X186845788Y-147980546D01*
X186750500Y-147999500D01*
X89249500Y-147999500D01*
X89154212Y-147980546D01*
X89073430Y-147926570D01*
X89019454Y-147845788D01*
X89000500Y-147750500D01*
X89000500Y-143621288D01*
X97399500Y-143621288D01*
X97431162Y-143861791D01*
X97431163Y-143861796D01*
X97493940Y-144096083D01*
X97493948Y-144096106D01*
X97586770Y-144320202D01*
X97586778Y-144320218D01*
X97708058Y-144530280D01*
X97708064Y-144530290D01*
X97855729Y-144722732D01*
X97855738Y-144722742D01*
X98027258Y-144894262D01*
X98027268Y-144894271D01*
X98148491Y-144987288D01*
X98219711Y-145041937D01*
X98219720Y-145041942D01*
X98429782Y-145163222D01*
X98429798Y-145163230D01*
X98569858Y-145221243D01*
X98653900Y-145256055D01*
X98653911Y-145256058D01*
X98653917Y-145256060D01*
X98837021Y-145305122D01*
X98888211Y-145318839D01*
X99128712Y-145350501D01*
X99371288Y-145350501D01*
X99611789Y-145318839D01*
X99773275Y-145275568D01*
X99846082Y-145256060D01*
X99846084Y-145256059D01*
X99846100Y-145256055D01*
X99997766Y-145193232D01*
X100070201Y-145163230D01*
X100070206Y-145163227D01*
X100070212Y-145163225D01*
X100280289Y-145041937D01*
X100472738Y-144894266D01*
X100644265Y-144722739D01*
X100791936Y-144530290D01*
X100913224Y-144320213D01*
X101006054Y-144096101D01*
X101068838Y-143861790D01*
X101100500Y-143621289D01*
X101100500Y-143621288D01*
X174899501Y-143621288D01*
X174931163Y-143861791D01*
X174931164Y-143861796D01*
X174993941Y-144096083D01*
X174993949Y-144096106D01*
X175086771Y-144320202D01*
X175086779Y-144320218D01*
X175208059Y-144530280D01*
X175208065Y-144530290D01*
X175355730Y-144722732D01*
X175355739Y-144722742D01*
X175527259Y-144894262D01*
X175527269Y-144894271D01*
X175648492Y-144987288D01*
X175719712Y-145041937D01*
X175719721Y-145041942D01*
X175929783Y-145163222D01*
X175929799Y-145163230D01*
X176069859Y-145221243D01*
X176153901Y-145256055D01*
X176153912Y-145256058D01*
X176153918Y-145256060D01*
X176337022Y-145305122D01*
X176388212Y-145318839D01*
X176628713Y-145350501D01*
X176871289Y-145350501D01*
X177111790Y-145318839D01*
X177273276Y-145275568D01*
X177346083Y-145256060D01*
X177346085Y-145256059D01*
X177346101Y-145256055D01*
X177497767Y-145193232D01*
X177570202Y-145163230D01*
X177570207Y-145163227D01*
X177570213Y-145163225D01*
X177780290Y-145041937D01*
X177972739Y-144894266D01*
X178144266Y-144722739D01*
X178291937Y-144530290D01*
X178413225Y-144320213D01*
X178506055Y-144096101D01*
X178568839Y-143861790D01*
X178600501Y-143621289D01*
X178600501Y-143378713D01*
X178568839Y-143138212D01*
X178506055Y-142903901D01*
X178471243Y-142819859D01*
X178413230Y-142679799D01*
X178413222Y-142679783D01*
X178291942Y-142469721D01*
X178291936Y-142469711D01*
X178144271Y-142277269D01*
X178144262Y-142277259D01*
X177972742Y-142105739D01*
X177972732Y-142105730D01*
X177780290Y-141958065D01*
X177780280Y-141958059D01*
X177570218Y-141836779D01*
X177570202Y-141836771D01*
X177346106Y-141743949D01*
X177346104Y-141743948D01*
X177346101Y-141743947D01*
X177346097Y-141743946D01*
X177346083Y-141743941D01*
X177111796Y-141681164D01*
X177111791Y-141681163D01*
X176871289Y-141649501D01*
X176628713Y-141649501D01*
X176388210Y-141681163D01*
X176388205Y-141681164D01*
X176153918Y-141743941D01*
X176153895Y-141743949D01*
X175929799Y-141836771D01*
X175929783Y-141836779D01*
X175719721Y-141958059D01*
X175719711Y-141958065D01*
X175527269Y-142105730D01*
X175527259Y-142105739D01*
X175355739Y-142277259D01*
X175355730Y-142277269D01*
X175208065Y-142469711D01*
X175208059Y-142469721D01*
X175086779Y-142679783D01*
X175086771Y-142679799D01*
X174993949Y-142903895D01*
X174993941Y-142903918D01*
X174931164Y-143138205D01*
X174931163Y-143138210D01*
X174899501Y-143378713D01*
X174899501Y-143621288D01*
X101100500Y-143621288D01*
X101100500Y-143378713D01*
X101068838Y-143138212D01*
X101006054Y-142903901D01*
X100971242Y-142819859D01*
X100913229Y-142679799D01*
X100913221Y-142679783D01*
X100791941Y-142469721D01*
X100791935Y-142469711D01*
X100644270Y-142277269D01*
X100644261Y-142277259D01*
X100472741Y-142105739D01*
X100472731Y-142105730D01*
X100280289Y-141958065D01*
X100280279Y-141958059D01*
X100070217Y-141836779D01*
X100070201Y-141836771D01*
X99846105Y-141743949D01*
X99846103Y-141743948D01*
X99846100Y-141743947D01*
X99846096Y-141743946D01*
X99846082Y-141743941D01*
X99611795Y-141681164D01*
X99611790Y-141681163D01*
X99371288Y-141649501D01*
X99128712Y-141649501D01*
X98888209Y-141681163D01*
X98888204Y-141681164D01*
X98653917Y-141743941D01*
X98653894Y-141743949D01*
X98429798Y-141836771D01*
X98429782Y-141836779D01*
X98219720Y-141958059D01*
X98219710Y-141958065D01*
X98027268Y-142105730D01*
X98027258Y-142105739D01*
X97855738Y-142277259D01*
X97855729Y-142277269D01*
X97708064Y-142469711D01*
X97708058Y-142469721D01*
X97586778Y-142679783D01*
X97586770Y-142679799D01*
X97493948Y-142903895D01*
X97493940Y-142903918D01*
X97431163Y-143138205D01*
X97431162Y-143138210D01*
X97399500Y-143378713D01*
X97399500Y-143621288D01*
X89000500Y-143621288D01*
X89000500Y-110813031D01*
X96019500Y-110813031D01*
X96019501Y-110813043D01*
X96030113Y-110932414D01*
X96030113Y-110932417D01*
X96030114Y-110932418D01*
X96086091Y-111128049D01*
X96180302Y-111308407D01*
X96308891Y-111466109D01*
X96466593Y-111594698D01*
X96646951Y-111688909D01*
X96842582Y-111744886D01*
X96961963Y-111755500D01*
X97250501Y-111755499D01*
X97345787Y-111774453D01*
X97426569Y-111828429D01*
X97480546Y-111909210D01*
X97499500Y-112004498D01*
X97499500Y-133118087D01*
X97499501Y-133118103D01*
X97536446Y-133351364D01*
X97592180Y-133522898D01*
X97609432Y-133575992D01*
X97716657Y-133786434D01*
X97855483Y-133977510D01*
X105022490Y-141144517D01*
X105213566Y-141283343D01*
X105424008Y-141390568D01*
X105648632Y-141463553D01*
X105881908Y-141500500D01*
X105881912Y-141500500D01*
X126118088Y-141500500D01*
X126118092Y-141500500D01*
X126351368Y-141463553D01*
X126575992Y-141390568D01*
X126786434Y-141283343D01*
X126977510Y-141144517D01*
X130909517Y-137212510D01*
X131048343Y-137021434D01*
X131155568Y-136810992D01*
X131228553Y-136586368D01*
X131265500Y-136353092D01*
X131265500Y-136116908D01*
X131265500Y-135972935D01*
X131284454Y-135877647D01*
X131338430Y-135796865D01*
X131357139Y-135779962D01*
X131466109Y-135691109D01*
X131594698Y-135533407D01*
X131688909Y-135353049D01*
X131744886Y-135157418D01*
X131755500Y-135038037D01*
X131755500Y-134120464D01*
X137774500Y-134120464D01*
X137808558Y-134379161D01*
X137865971Y-134593430D01*
X137876092Y-134631201D01*
X137975938Y-134872254D01*
X137975943Y-134872263D01*
X137975944Y-134872265D01*
X138106409Y-135098235D01*
X138202143Y-135222998D01*
X138213045Y-135237205D01*
X138256015Y-135324341D01*
X138264500Y-135388787D01*
X138264500Y-135883087D01*
X138264501Y-135883103D01*
X138299433Y-136103652D01*
X138301447Y-136116368D01*
X138306574Y-136132146D01*
X138371574Y-136332198D01*
X138374432Y-136340992D01*
X138481657Y-136551434D01*
X138620483Y-136742510D01*
X141022490Y-139144517D01*
X141213566Y-139283343D01*
X141424008Y-139390568D01*
X141648632Y-139463553D01*
X141881908Y-139500500D01*
X141881912Y-139500500D01*
X151721838Y-139500500D01*
X151721842Y-139500500D01*
X151955118Y-139463553D01*
X152179742Y-139390568D01*
X152390184Y-139283343D01*
X152581260Y-139144517D01*
X157594433Y-134131342D01*
X157675212Y-134077369D01*
X157770500Y-134058415D01*
X157865788Y-134077369D01*
X157946570Y-134131345D01*
X158000546Y-134212127D01*
X158019500Y-134307415D01*
X158019500Y-135550531D01*
X158019501Y-135550543D01*
X158030113Y-135669914D01*
X158030113Y-135669917D01*
X158030114Y-135669918D01*
X158072972Y-135819698D01*
X158086090Y-135865545D01*
X158086093Y-135865553D01*
X158177477Y-136040500D01*
X158180302Y-136045907D01*
X158308891Y-136203609D01*
X158466593Y-136332198D01*
X158646951Y-136426409D01*
X158842582Y-136482386D01*
X158961963Y-136493000D01*
X161078036Y-136492999D01*
X161197418Y-136482386D01*
X161393049Y-136426409D01*
X161573407Y-136332198D01*
X161731109Y-136203609D01*
X161789380Y-136132145D01*
X161864286Y-136070274D01*
X161957167Y-136041778D01*
X161982358Y-136040500D01*
X162122794Y-136040500D01*
X162218082Y-136059454D01*
X162263056Y-136083763D01*
X162292226Y-136103651D01*
X162535359Y-136220738D01*
X162793228Y-136300280D01*
X163060071Y-136340500D01*
X163060074Y-136340500D01*
X163329926Y-136340500D01*
X163329929Y-136340500D01*
X163596772Y-136300280D01*
X163854641Y-136220738D01*
X164097775Y-136103651D01*
X164320741Y-135951635D01*
X164518561Y-135768085D01*
X164686815Y-135557102D01*
X164821743Y-135323398D01*
X164920334Y-135072195D01*
X164980383Y-134809103D01*
X165000549Y-134540000D01*
X164980383Y-134270897D01*
X164936212Y-134077369D01*
X164920336Y-134007812D01*
X164920334Y-134007809D01*
X164920334Y-134007805D01*
X164821743Y-133756602D01*
X164686815Y-133522898D01*
X164686813Y-133522895D01*
X164686811Y-133522892D01*
X164518562Y-133311916D01*
X164320738Y-133128362D01*
X164097778Y-132976350D01*
X164097773Y-132976348D01*
X163854649Y-132859265D01*
X163854644Y-132859263D01*
X163854641Y-132859262D01*
X163596772Y-132779720D01*
X163329929Y-132739500D01*
X163060071Y-132739500D01*
X162859938Y-132769665D01*
X162793227Y-132779720D01*
X162535353Y-132859264D01*
X162292230Y-132976347D01*
X162292215Y-132976355D01*
X162264026Y-132995574D01*
X162174618Y-133033590D01*
X162077467Y-133034496D01*
X161987364Y-132998155D01*
X161918028Y-132930100D01*
X161880012Y-132840692D01*
X161879106Y-132743541D01*
X161893716Y-132694556D01*
X161920822Y-132629118D01*
X161987083Y-132381829D01*
X162020500Y-132128006D01*
X162020500Y-131871994D01*
X161987083Y-131618171D01*
X161920822Y-131370882D01*
X161822850Y-131134357D01*
X161694844Y-130912643D01*
X161686497Y-130901765D01*
X161670693Y-130881168D01*
X161627723Y-130794032D01*
X161621369Y-130697085D01*
X161652599Y-130605087D01*
X161670696Y-130578004D01*
X161694427Y-130547077D01*
X161822396Y-130325429D01*
X161920348Y-130088954D01*
X161954902Y-129960000D01*
X160253974Y-129960000D01*
X160357708Y-129900110D01*
X160460110Y-129797708D01*
X160532518Y-129672292D01*
X160570000Y-129532409D01*
X160570000Y-129387591D01*
X160532518Y-129247708D01*
X160460110Y-129122292D01*
X160357708Y-129019890D01*
X160232292Y-128947482D01*
X160092409Y-128910000D01*
X159947591Y-128910000D01*
X159807708Y-128947482D01*
X159682292Y-129019890D01*
X159579890Y-129122292D01*
X159507482Y-129247708D01*
X159470000Y-129387591D01*
X159470000Y-129532409D01*
X159507482Y-129672292D01*
X159579890Y-129797708D01*
X159682292Y-129900110D01*
X159786026Y-129960000D01*
X158085098Y-129960000D01*
X158119651Y-130088954D01*
X158147096Y-130155211D01*
X158166050Y-130250499D01*
X158147096Y-130345788D01*
X158093120Y-130426569D01*
X158012339Y-130480546D01*
X157917051Y-130499500D01*
X157485658Y-130499500D01*
X157485655Y-130499500D01*
X157485646Y-130499501D01*
X157252385Y-130536446D01*
X157050650Y-130601993D01*
X157050650Y-130601994D01*
X157041131Y-130605087D01*
X157027757Y-130609432D01*
X156817316Y-130716657D01*
X156626242Y-130855481D01*
X151055153Y-136426570D01*
X150974371Y-136480546D01*
X150879083Y-136499500D01*
X142724667Y-136499500D01*
X142629379Y-136480546D01*
X142548597Y-136426570D01*
X141484270Y-135362243D01*
X141430294Y-135281461D01*
X141411340Y-135186173D01*
X141430294Y-135090885D01*
X141444695Y-135061682D01*
X141554056Y-134872265D01*
X141580219Y-134809103D01*
X141633015Y-134681640D01*
X141653909Y-134631198D01*
X141721442Y-134379161D01*
X141755500Y-134120464D01*
X141755500Y-131879536D01*
X141721442Y-131620839D01*
X141653909Y-131368802D01*
X141625379Y-131299925D01*
X141554061Y-131127745D01*
X141554056Y-131127736D01*
X141554056Y-131127735D01*
X141423591Y-130901765D01*
X141264748Y-130694756D01*
X141080244Y-130510252D01*
X140873235Y-130351409D01*
X140647265Y-130220944D01*
X140647263Y-130220943D01*
X140647254Y-130220938D01*
X140406201Y-130121092D01*
X140406199Y-130121091D01*
X140406198Y-130121091D01*
X140154161Y-130053558D01*
X140154154Y-130053557D01*
X139895464Y-130019500D01*
X139634536Y-130019500D01*
X139375845Y-130053557D01*
X139375843Y-130053557D01*
X139375839Y-130053558D01*
X139171427Y-130108330D01*
X139123798Y-130121092D01*
X138882745Y-130220938D01*
X138882736Y-130220943D01*
X138730413Y-130308888D01*
X138662374Y-130348171D01*
X138656760Y-130351412D01*
X138449763Y-130510246D01*
X138449752Y-130510255D01*
X138265255Y-130694752D01*
X138265246Y-130694763D01*
X138106412Y-130901760D01*
X137975943Y-131127736D01*
X137975938Y-131127745D01*
X137876092Y-131368798D01*
X137876091Y-131368802D01*
X137808558Y-131620839D01*
X137808557Y-131620843D01*
X137808557Y-131620845D01*
X137802375Y-131667806D01*
X137774500Y-131879536D01*
X137774500Y-134120464D01*
X131755500Y-134120464D01*
X131755499Y-130961964D01*
X131744886Y-130842582D01*
X131688909Y-130646951D01*
X131688749Y-130646550D01*
X131688664Y-130646096D01*
X131685435Y-130634809D01*
X131686510Y-130634501D01*
X131671003Y-130551029D01*
X131691162Y-130455989D01*
X131743914Y-130378112D01*
X133048598Y-129073430D01*
X133129379Y-129019454D01*
X133224667Y-129000500D01*
X140775333Y-129000500D01*
X140870621Y-129019454D01*
X140951403Y-129073430D01*
X142701570Y-130823597D01*
X142755546Y-130904379D01*
X142774500Y-130999667D01*
X142774500Y-135038031D01*
X142774501Y-135038043D01*
X142785113Y-135157414D01*
X142841090Y-135353045D01*
X142841093Y-135353053D01*
X142845893Y-135362243D01*
X142935302Y-135533407D01*
X143063891Y-135691109D01*
X143221593Y-135819698D01*
X143401951Y-135913909D01*
X143597582Y-135969886D01*
X143716963Y-135980500D01*
X145813036Y-135980499D01*
X145932418Y-135969886D01*
X146128049Y-135913909D01*
X146308407Y-135819698D01*
X146466109Y-135691109D01*
X146594698Y-135533407D01*
X146688909Y-135353049D01*
X146744886Y-135157418D01*
X146755500Y-135038037D01*
X146755499Y-130961964D01*
X146744886Y-130842582D01*
X146688909Y-130646951D01*
X146594698Y-130466593D01*
X146466109Y-130308891D01*
X146308407Y-130180302D01*
X146308402Y-130180299D01*
X146164568Y-130105167D01*
X146088883Y-130044249D01*
X146057996Y-129997512D01*
X146048343Y-129978566D01*
X145909517Y-129787490D01*
X145082027Y-128960000D01*
X158085098Y-128960000D01*
X159519999Y-128960000D01*
X159520000Y-128959999D01*
X159520000Y-127559870D01*
X159519999Y-127559869D01*
X160520000Y-127559869D01*
X160520000Y-128959999D01*
X160520001Y-128960000D01*
X161954902Y-128960000D01*
X161954901Y-128959999D01*
X161920348Y-128831045D01*
X161822396Y-128594570D01*
X161694427Y-128372922D01*
X161694426Y-128372919D01*
X161538622Y-128169871D01*
X161538613Y-128169861D01*
X161357638Y-127988886D01*
X161357628Y-127988877D01*
X161154580Y-127833073D01*
X161154577Y-127833072D01*
X160932929Y-127705103D01*
X160696448Y-127607148D01*
X160520000Y-127559869D01*
X159519999Y-127559869D01*
X159343551Y-127607148D01*
X159107070Y-127705103D01*
X158885422Y-127833072D01*
X158885419Y-127833073D01*
X158682371Y-127988877D01*
X158682361Y-127988886D01*
X158501386Y-128169861D01*
X158501377Y-128169871D01*
X158345573Y-128372919D01*
X158345572Y-128372922D01*
X158217603Y-128594570D01*
X158119651Y-128831045D01*
X158085098Y-128959999D01*
X158085098Y-128960000D01*
X145082027Y-128960000D01*
X142477510Y-126355483D01*
X142286434Y-126216657D01*
X142075992Y-126109432D01*
X142075989Y-126109431D01*
X142075984Y-126109429D01*
X141926128Y-126060738D01*
X141851368Y-126036447D01*
X141851366Y-126036446D01*
X141851364Y-126036446D01*
X141618103Y-125999501D01*
X141618094Y-125999500D01*
X141618092Y-125999500D01*
X132618092Y-125999500D01*
X132381908Y-125999500D01*
X132381905Y-125999500D01*
X132381896Y-125999501D01*
X132148635Y-126036446D01*
X131924015Y-126109429D01*
X131924010Y-126109431D01*
X131713566Y-126216657D01*
X131522492Y-126355481D01*
X128620481Y-129257492D01*
X128560948Y-129339432D01*
X128481657Y-129448566D01*
X128431327Y-129547345D01*
X128431326Y-129547345D01*
X128374432Y-129659007D01*
X128374430Y-129659012D01*
X128301446Y-129883634D01*
X128274209Y-130055600D01*
X128240582Y-130146750D01*
X128185630Y-130209625D01*
X128063894Y-130308888D01*
X128063889Y-130308893D01*
X127935302Y-130466592D01*
X127935299Y-130466597D01*
X127841093Y-130646946D01*
X127841090Y-130646954D01*
X127785115Y-130842578D01*
X127785114Y-130842582D01*
X127774500Y-130961963D01*
X127774500Y-135038031D01*
X127774501Y-135038043D01*
X127785113Y-135157414D01*
X127841090Y-135353045D01*
X127841093Y-135353053D01*
X127935299Y-135533402D01*
X127935302Y-135533407D01*
X127976960Y-135584496D01*
X128022487Y-135670324D01*
X128031704Y-135767041D01*
X128003207Y-135859922D01*
X127960051Y-135917920D01*
X125451403Y-138426570D01*
X125370621Y-138480546D01*
X125275333Y-138499500D01*
X106724667Y-138499500D01*
X106629379Y-138480546D01*
X106548597Y-138426570D01*
X101392028Y-133270001D01*
X104874451Y-133270001D01*
X104894616Y-133539101D01*
X104954663Y-133802188D01*
X104954666Y-133802196D01*
X105035362Y-134007805D01*
X105053256Y-134053396D01*
X105053257Y-134053399D01*
X105188188Y-134287108D01*
X105356437Y-134498084D01*
X105356439Y-134498086D01*
X105554259Y-134681636D01*
X105777226Y-134833652D01*
X106020359Y-134950739D01*
X106278228Y-135030281D01*
X106545071Y-135070501D01*
X106545074Y-135070501D01*
X106814926Y-135070501D01*
X106814929Y-135070501D01*
X107081772Y-135030281D01*
X107339641Y-134950739D01*
X107582775Y-134833652D01*
X107805741Y-134681636D01*
X107907765Y-134586971D01*
X107990508Y-134536052D01*
X108077129Y-134520500D01*
X109636031Y-134520500D01*
X109731319Y-134539454D01*
X109812101Y-134593430D01*
X109856734Y-134654213D01*
X109920302Y-134775907D01*
X110048891Y-134933609D01*
X110206593Y-135062198D01*
X110386951Y-135156409D01*
X110582582Y-135212386D01*
X110701963Y-135223000D01*
X112818036Y-135222999D01*
X112937418Y-135212386D01*
X113133049Y-135156409D01*
X113313407Y-135062198D01*
X113471109Y-134933609D01*
X113599698Y-134775907D01*
X113693909Y-134595549D01*
X113749886Y-134399918D01*
X113760500Y-134280537D01*
X113760499Y-132479499D01*
X113779453Y-132384212D01*
X113833429Y-132303431D01*
X113914211Y-132249454D01*
X114009499Y-132230500D01*
X121770333Y-132230500D01*
X121865621Y-132249454D01*
X121946403Y-132303430D01*
X122701570Y-133058597D01*
X122755546Y-133139379D01*
X122774500Y-133234667D01*
X122774500Y-134120464D01*
X122808558Y-134379161D01*
X122865971Y-134593430D01*
X122876092Y-134631201D01*
X122975938Y-134872254D01*
X122975943Y-134872263D01*
X122975944Y-134872265D01*
X123106409Y-135098235D01*
X123265252Y-135305244D01*
X123449756Y-135489748D01*
X123656765Y-135648591D01*
X123882735Y-135779056D01*
X123882738Y-135779057D01*
X123882745Y-135779061D01*
X124034961Y-135842110D01*
X124123802Y-135878909D01*
X124375839Y-135946442D01*
X124634536Y-135980500D01*
X124895464Y-135980500D01*
X125154161Y-135946442D01*
X125406198Y-135878909D01*
X125558208Y-135815944D01*
X125647254Y-135779061D01*
X125647257Y-135779059D01*
X125647265Y-135779056D01*
X125873235Y-135648591D01*
X126080244Y-135489748D01*
X126264748Y-135305244D01*
X126423591Y-135098235D01*
X126554056Y-134872265D01*
X126580219Y-134809103D01*
X126633015Y-134681640D01*
X126653909Y-134631198D01*
X126721442Y-134379161D01*
X126755500Y-134120464D01*
X126755500Y-131879536D01*
X126721442Y-131620839D01*
X126653909Y-131368802D01*
X126625379Y-131299925D01*
X126554061Y-131127745D01*
X126554056Y-131127736D01*
X126554056Y-131127735D01*
X126423591Y-130901765D01*
X126264748Y-130694756D01*
X126080244Y-130510252D01*
X125873235Y-130351409D01*
X125647265Y-130220944D01*
X125647263Y-130220943D01*
X125647254Y-130220938D01*
X125406201Y-130121092D01*
X125406199Y-130121091D01*
X125406198Y-130121091D01*
X125154161Y-130053558D01*
X125154154Y-130053557D01*
X124895464Y-130019500D01*
X124634536Y-130019500D01*
X124375842Y-130053557D01*
X124171426Y-130108330D01*
X124074479Y-130114684D01*
X123982480Y-130083454D01*
X123930912Y-130043884D01*
X123472511Y-129585484D01*
X123420019Y-129547346D01*
X123281434Y-129446657D01*
X123070992Y-129339432D01*
X123070989Y-129339431D01*
X123070984Y-129339429D01*
X122879062Y-129277070D01*
X122846368Y-129266447D01*
X122846366Y-129266446D01*
X122846364Y-129266446D01*
X122613103Y-129229501D01*
X122613094Y-129229500D01*
X122613092Y-129229500D01*
X122613088Y-129229500D01*
X113862950Y-129229500D01*
X113767662Y-129210546D01*
X113686880Y-129156570D01*
X113632904Y-129075788D01*
X113613950Y-128980500D01*
X113632904Y-128885212D01*
X113632904Y-128885211D01*
X113660348Y-128818954D01*
X113694902Y-128690000D01*
X111993974Y-128690000D01*
X112097708Y-128630110D01*
X112200110Y-128527708D01*
X112272518Y-128402292D01*
X112310000Y-128262409D01*
X112310000Y-128117591D01*
X112272518Y-127977708D01*
X112200110Y-127852292D01*
X112097708Y-127749890D01*
X111972292Y-127677482D01*
X111832409Y-127640000D01*
X111687591Y-127640000D01*
X111547708Y-127677482D01*
X111422292Y-127749890D01*
X111319890Y-127852292D01*
X111247482Y-127977708D01*
X111210000Y-128117591D01*
X111210000Y-128262409D01*
X111247482Y-128402292D01*
X111319890Y-128527708D01*
X111422292Y-128630110D01*
X111526026Y-128690000D01*
X109825098Y-128690000D01*
X109859651Y-128818954D01*
X109957603Y-129055429D01*
X110085566Y-129277068D01*
X110085568Y-129277070D01*
X110109306Y-129308006D01*
X110152276Y-129395142D01*
X110158631Y-129492089D01*
X110127401Y-129584088D01*
X110109309Y-129611166D01*
X110085153Y-129642647D01*
X109957148Y-129864360D01*
X109957146Y-129864364D01*
X109859178Y-130100882D01*
X109859176Y-130100888D01*
X109792916Y-130348174D01*
X109759500Y-130601994D01*
X109759500Y-130858005D01*
X109792916Y-131111825D01*
X109859176Y-131359111D01*
X109859180Y-131359123D01*
X109935253Y-131542781D01*
X109954207Y-131638069D01*
X109935253Y-131733357D01*
X109925911Y-131753353D01*
X109856735Y-131885785D01*
X109795817Y-131961469D01*
X109710574Y-132008080D01*
X109636031Y-132019500D01*
X108077128Y-132019500D01*
X107981840Y-132000546D01*
X107907766Y-131953031D01*
X107898519Y-131944451D01*
X107805741Y-131858366D01*
X107805737Y-131858363D01*
X107582778Y-131706351D01*
X107582773Y-131706349D01*
X107339649Y-131589266D01*
X107339644Y-131589264D01*
X107339641Y-131589263D01*
X107081772Y-131509721D01*
X106814929Y-131469501D01*
X106545071Y-131469501D01*
X106344938Y-131499666D01*
X106278227Y-131509721D01*
X106020353Y-131589265D01*
X105777227Y-131706349D01*
X105554257Y-131858367D01*
X105356437Y-132041917D01*
X105188189Y-132252893D01*
X105188188Y-132252893D01*
X105053257Y-132486602D01*
X105053256Y-132486605D01*
X104954667Y-132737802D01*
X104954663Y-132737813D01*
X104894616Y-133000900D01*
X104874451Y-133270001D01*
X101392028Y-133270001D01*
X100573430Y-132451403D01*
X100519454Y-132370621D01*
X100500500Y-132275333D01*
X100500500Y-127690000D01*
X109825098Y-127690000D01*
X111259999Y-127690000D01*
X111260000Y-127689999D01*
X111260000Y-126289870D01*
X111259999Y-126289869D01*
X112260000Y-126289869D01*
X112260000Y-127689999D01*
X112260001Y-127690000D01*
X113694902Y-127690000D01*
X113694901Y-127689999D01*
X113660348Y-127561045D01*
X113562396Y-127324570D01*
X113434427Y-127102922D01*
X113434426Y-127102919D01*
X113278622Y-126899871D01*
X113278613Y-126899861D01*
X113097638Y-126718886D01*
X113097628Y-126718877D01*
X112894580Y-126563073D01*
X112894577Y-126563072D01*
X112672929Y-126435103D01*
X112436448Y-126337148D01*
X112260000Y-126289869D01*
X111259999Y-126289869D01*
X111083551Y-126337148D01*
X110847070Y-126435103D01*
X110625422Y-126563072D01*
X110625419Y-126563073D01*
X110422371Y-126718877D01*
X110422361Y-126718886D01*
X110241386Y-126899861D01*
X110241377Y-126899871D01*
X110085573Y-127102919D01*
X110085572Y-127102922D01*
X109957603Y-127324570D01*
X109859651Y-127561045D01*
X109825098Y-127689999D01*
X109825098Y-127690000D01*
X100500500Y-127690000D01*
X100500500Y-123110001D01*
X104874451Y-123110001D01*
X104894616Y-123379101D01*
X104954663Y-123642188D01*
X104954666Y-123642196D01*
X105035362Y-123847805D01*
X105053256Y-123893396D01*
X105053257Y-123893399D01*
X105188188Y-124127108D01*
X105305803Y-124274591D01*
X105356439Y-124338086D01*
X105554259Y-124521636D01*
X105777226Y-124673652D01*
X106020359Y-124790739D01*
X106278228Y-124870281D01*
X106545071Y-124910501D01*
X106545074Y-124910501D01*
X106814926Y-124910501D01*
X106814929Y-124910501D01*
X107081772Y-124870281D01*
X107339641Y-124790739D01*
X107582775Y-124673652D01*
X107805741Y-124521636D01*
X108003561Y-124338086D01*
X108171815Y-124127103D01*
X108306743Y-123893399D01*
X108405334Y-123642196D01*
X108465383Y-123379104D01*
X108481648Y-123162052D01*
X108507670Y-123068449D01*
X108553879Y-123004594D01*
X112265045Y-119293429D01*
X112345827Y-119239453D01*
X112441115Y-119220499D01*
X112668032Y-119220499D01*
X112668036Y-119220499D01*
X112787418Y-119209886D01*
X112961504Y-119160073D01*
X113058327Y-119152084D01*
X113098491Y-119160072D01*
X113272582Y-119209886D01*
X113391963Y-119220500D01*
X115208036Y-119220499D01*
X115327418Y-119209886D01*
X115502412Y-119159813D01*
X115599236Y-119151824D01*
X115639408Y-119159814D01*
X115812667Y-119209389D01*
X115812671Y-119209390D01*
X115931994Y-119219999D01*
X115931998Y-119220000D01*
X116339999Y-119220000D01*
X116340000Y-119219999D01*
X116340000Y-115674464D01*
X116364755Y-115766853D01*
X116431898Y-115883147D01*
X116526853Y-115978102D01*
X116643147Y-116045245D01*
X116772857Y-116080000D01*
X116907143Y-116080000D01*
X117036853Y-116045245D01*
X117153147Y-115978102D01*
X117248102Y-115883147D01*
X117315245Y-115766853D01*
X117340000Y-115674464D01*
X117340000Y-119219999D01*
X117340001Y-119220000D01*
X117748002Y-119220000D01*
X117748005Y-119219999D01*
X117867328Y-119209390D01*
X117867332Y-119209389D01*
X118040592Y-119159814D01*
X118137418Y-119151824D01*
X118177583Y-119159812D01*
X118352582Y-119209886D01*
X118471963Y-119220500D01*
X120288036Y-119220499D01*
X120407418Y-119209886D01*
X120581504Y-119160073D01*
X120678327Y-119152084D01*
X120718491Y-119160072D01*
X120892582Y-119209886D01*
X121011963Y-119220500D01*
X122828036Y-119220499D01*
X122947418Y-119209886D01*
X123121504Y-119160073D01*
X123218327Y-119152084D01*
X123258491Y-119160072D01*
X123432582Y-119209886D01*
X123551963Y-119220500D01*
X125368036Y-119220499D01*
X125487418Y-119209886D01*
X125661504Y-119160073D01*
X125758327Y-119152084D01*
X125798491Y-119160072D01*
X125972582Y-119209886D01*
X126091963Y-119220500D01*
X127908036Y-119220499D01*
X128027418Y-119209886D01*
X128202412Y-119159813D01*
X128299236Y-119151824D01*
X128339408Y-119159814D01*
X128512667Y-119209389D01*
X128512671Y-119209390D01*
X128631994Y-119219999D01*
X128631998Y-119220000D01*
X129039999Y-119220000D01*
X129040000Y-119219999D01*
X129040000Y-115674464D01*
X129064755Y-115766853D01*
X129131898Y-115883147D01*
X129226853Y-115978102D01*
X129343147Y-116045245D01*
X129472857Y-116080000D01*
X129607143Y-116080000D01*
X129736853Y-116045245D01*
X129853147Y-115978102D01*
X129948102Y-115883147D01*
X130015245Y-115766853D01*
X130040000Y-115674464D01*
X130040000Y-119219999D01*
X130040001Y-119220000D01*
X130448002Y-119220000D01*
X130448005Y-119219999D01*
X130567328Y-119209390D01*
X130567332Y-119209389D01*
X130740592Y-119159814D01*
X130837418Y-119151824D01*
X130877583Y-119159812D01*
X131052582Y-119209886D01*
X131171963Y-119220500D01*
X132988036Y-119220499D01*
X133107418Y-119209886D01*
X133281504Y-119160073D01*
X133378327Y-119152084D01*
X133418491Y-119160072D01*
X133592582Y-119209886D01*
X133711963Y-119220500D01*
X135528036Y-119220499D01*
X135647418Y-119209886D01*
X135821504Y-119160073D01*
X135918327Y-119152084D01*
X135958491Y-119160072D01*
X136132582Y-119209886D01*
X136251963Y-119220500D01*
X138068036Y-119220499D01*
X138187418Y-119209886D01*
X138361504Y-119160073D01*
X138458327Y-119152084D01*
X138498491Y-119160072D01*
X138672582Y-119209886D01*
X138791963Y-119220500D01*
X140608036Y-119220499D01*
X140727418Y-119209886D01*
X140902412Y-119159813D01*
X140999236Y-119151824D01*
X141039408Y-119159814D01*
X141212667Y-119209389D01*
X141212671Y-119209390D01*
X141331994Y-119219999D01*
X141331998Y-119220000D01*
X141739999Y-119220000D01*
X141740000Y-119219999D01*
X141740000Y-115674464D01*
X141764755Y-115766853D01*
X141831898Y-115883147D01*
X141926853Y-115978102D01*
X142043147Y-116045245D01*
X142172857Y-116080000D01*
X142307143Y-116080000D01*
X142436853Y-116045245D01*
X142553147Y-115978102D01*
X142648102Y-115883147D01*
X142715245Y-115766853D01*
X142740000Y-115674464D01*
X142740000Y-119219999D01*
X142740001Y-119220000D01*
X143148002Y-119220000D01*
X143148005Y-119219999D01*
X143267328Y-119209390D01*
X143267332Y-119209389D01*
X143440592Y-119159814D01*
X143537418Y-119151824D01*
X143577583Y-119159812D01*
X143752582Y-119209886D01*
X143871963Y-119220500D01*
X145688036Y-119220499D01*
X145807418Y-119209886D01*
X145981504Y-119160073D01*
X146078327Y-119152084D01*
X146118491Y-119160072D01*
X146292582Y-119209886D01*
X146411963Y-119220500D01*
X148228036Y-119220499D01*
X148347418Y-119209886D01*
X148521504Y-119160073D01*
X148618327Y-119152084D01*
X148658491Y-119160072D01*
X148832582Y-119209886D01*
X148951963Y-119220500D01*
X150768036Y-119220499D01*
X150887418Y-119209886D01*
X151061504Y-119160073D01*
X151158327Y-119152084D01*
X151198491Y-119160072D01*
X151372582Y-119209886D01*
X151491963Y-119220500D01*
X153308036Y-119220499D01*
X153427418Y-119209886D01*
X153602412Y-119159813D01*
X153699236Y-119151824D01*
X153739408Y-119159814D01*
X153912667Y-119209389D01*
X153912671Y-119209390D01*
X154031994Y-119219999D01*
X154031998Y-119220000D01*
X154439999Y-119220000D01*
X154440000Y-119219999D01*
X154440000Y-115674464D01*
X154464755Y-115766853D01*
X154531898Y-115883147D01*
X154626853Y-115978102D01*
X154743147Y-116045245D01*
X154872857Y-116080000D01*
X155007143Y-116080000D01*
X155136853Y-116045245D01*
X155253147Y-115978102D01*
X155348102Y-115883147D01*
X155415245Y-115766853D01*
X155440000Y-115674464D01*
X155440000Y-119219999D01*
X155440001Y-119220000D01*
X155848002Y-119220000D01*
X155848005Y-119219999D01*
X155967328Y-119209390D01*
X155967332Y-119209389D01*
X156107495Y-119169284D01*
X156204321Y-119161293D01*
X156296834Y-119190965D01*
X156370950Y-119253780D01*
X156397850Y-119295626D01*
X156410476Y-119320405D01*
X156526172Y-119479646D01*
X158928442Y-121881916D01*
X161321117Y-124274591D01*
X161375093Y-124355373D01*
X161393351Y-124432053D01*
X161409616Y-124649100D01*
X161469663Y-124912187D01*
X161469667Y-124912198D01*
X161568256Y-125163395D01*
X161568257Y-125163398D01*
X161703188Y-125397107D01*
X161871437Y-125608083D01*
X161871439Y-125608085D01*
X162069259Y-125791635D01*
X162292226Y-125943651D01*
X162535359Y-126060738D01*
X162793228Y-126140280D01*
X163060071Y-126180500D01*
X163060074Y-126180500D01*
X163329926Y-126180500D01*
X163329929Y-126180500D01*
X163596772Y-126140280D01*
X163854641Y-126060738D01*
X164097775Y-125943651D01*
X164320741Y-125791635D01*
X164518561Y-125608085D01*
X164686815Y-125397102D01*
X164821743Y-125163398D01*
X164920334Y-124912195D01*
X164980383Y-124649103D01*
X165000549Y-124380000D01*
X164980383Y-124110897D01*
X164920334Y-123847805D01*
X164821743Y-123596602D01*
X164686815Y-123362898D01*
X164686813Y-123362895D01*
X164686811Y-123362892D01*
X164518562Y-123151916D01*
X164320738Y-122968362D01*
X164097778Y-122816350D01*
X164097773Y-122816348D01*
X163854649Y-122699265D01*
X163854644Y-122699263D01*
X163854641Y-122699262D01*
X163596772Y-122619720D01*
X163329929Y-122579500D01*
X163329926Y-122579500D01*
X163266114Y-122579500D01*
X163170826Y-122560546D01*
X163090044Y-122506570D01*
X160229043Y-119645569D01*
X160175067Y-119564787D01*
X160156113Y-119469499D01*
X160175067Y-119374211D01*
X160229043Y-119293429D01*
X160309825Y-119239453D01*
X160405113Y-119220499D01*
X160928032Y-119220499D01*
X160928036Y-119220499D01*
X161047418Y-119209886D01*
X161243049Y-119153909D01*
X161423407Y-119059698D01*
X161581109Y-118931109D01*
X161709698Y-118773407D01*
X161803909Y-118593049D01*
X161859886Y-118397418D01*
X161870500Y-118278037D01*
X161870499Y-115644987D01*
X161871134Y-115627221D01*
X161875227Y-115570003D01*
X161875227Y-115569995D01*
X161871134Y-115512776D01*
X161870499Y-115495010D01*
X161870499Y-114661968D01*
X161870498Y-114661956D01*
X161859886Y-114542585D01*
X161859886Y-114542582D01*
X161803909Y-114346951D01*
X161709698Y-114166593D01*
X161581109Y-114008891D01*
X161423407Y-113880302D01*
X161423402Y-113880299D01*
X161243053Y-113786093D01*
X161243052Y-113786092D01*
X161243049Y-113786091D01*
X161047418Y-113730114D01*
X160928037Y-113719500D01*
X160928036Y-113719500D01*
X160094993Y-113719500D01*
X160077232Y-113718866D01*
X160020000Y-113714773D01*
X159962766Y-113718866D01*
X159945005Y-113719500D01*
X159111968Y-113719500D01*
X159111956Y-113719501D01*
X158992583Y-113730113D01*
X158818498Y-113779925D01*
X158721672Y-113787915D01*
X158681502Y-113779925D01*
X158561082Y-113745469D01*
X158507418Y-113730114D01*
X158388037Y-113719500D01*
X158388036Y-113719500D01*
X157554993Y-113719500D01*
X157537232Y-113718866D01*
X157480000Y-113714773D01*
X157422766Y-113718866D01*
X157405005Y-113719500D01*
X156571968Y-113719500D01*
X156571956Y-113719501D01*
X156452583Y-113730113D01*
X156277589Y-113780185D01*
X156180763Y-113788175D01*
X156140593Y-113780185D01*
X155967336Y-113730611D01*
X155967328Y-113730609D01*
X155848005Y-113720000D01*
X155440001Y-113720000D01*
X155440000Y-113720001D01*
X155440000Y-115465535D01*
X155415245Y-115373147D01*
X155348102Y-115256853D01*
X155253147Y-115161898D01*
X155136853Y-115094755D01*
X155007143Y-115060000D01*
X154872857Y-115060000D01*
X154743147Y-115094755D01*
X154626853Y-115161898D01*
X154531898Y-115256853D01*
X154464755Y-115373147D01*
X154440000Y-115465535D01*
X154440000Y-113720001D01*
X154439999Y-113720000D01*
X154031994Y-113720000D01*
X153912671Y-113730609D01*
X153912663Y-113730611D01*
X153739407Y-113780185D01*
X153642581Y-113788175D01*
X153602411Y-113780185D01*
X153476197Y-113744071D01*
X153427418Y-113730114D01*
X153308037Y-113719500D01*
X153308036Y-113719500D01*
X152474993Y-113719500D01*
X152457232Y-113718866D01*
X152400000Y-113714773D01*
X152342766Y-113718866D01*
X152325005Y-113719500D01*
X151491968Y-113719500D01*
X151491956Y-113719501D01*
X151372583Y-113730113D01*
X151198498Y-113779925D01*
X151101672Y-113787915D01*
X151061502Y-113779925D01*
X150941082Y-113745469D01*
X150887418Y-113730114D01*
X150768037Y-113719500D01*
X150768036Y-113719500D01*
X149934993Y-113719500D01*
X149917232Y-113718866D01*
X149860000Y-113714773D01*
X149802766Y-113718866D01*
X149785005Y-113719500D01*
X148951968Y-113719500D01*
X148951956Y-113719501D01*
X148832583Y-113730113D01*
X148658498Y-113779925D01*
X148561672Y-113787915D01*
X148521502Y-113779925D01*
X148401082Y-113745469D01*
X148347418Y-113730114D01*
X148228037Y-113719500D01*
X148228036Y-113719500D01*
X147394993Y-113719500D01*
X147377232Y-113718866D01*
X147320000Y-113714773D01*
X147262766Y-113718866D01*
X147245005Y-113719500D01*
X146411968Y-113719500D01*
X146411956Y-113719501D01*
X146292583Y-113730113D01*
X146118498Y-113779925D01*
X146021672Y-113787915D01*
X145981502Y-113779925D01*
X145861082Y-113745469D01*
X145807418Y-113730114D01*
X145688037Y-113719500D01*
X145688036Y-113719500D01*
X144854993Y-113719500D01*
X144837232Y-113718866D01*
X144780000Y-113714773D01*
X144722766Y-113718866D01*
X144705005Y-113719500D01*
X143871968Y-113719500D01*
X143871956Y-113719501D01*
X143752583Y-113730113D01*
X143577589Y-113780185D01*
X143480763Y-113788175D01*
X143440593Y-113780185D01*
X143267336Y-113730611D01*
X143267328Y-113730609D01*
X143148005Y-113720000D01*
X142740001Y-113720000D01*
X142740000Y-113720001D01*
X142740000Y-115465535D01*
X142715245Y-115373147D01*
X142648102Y-115256853D01*
X142553147Y-115161898D01*
X142436853Y-115094755D01*
X142307143Y-115060000D01*
X142172857Y-115060000D01*
X142043147Y-115094755D01*
X141926853Y-115161898D01*
X141831898Y-115256853D01*
X141764755Y-115373147D01*
X141740000Y-115465535D01*
X141740000Y-113720001D01*
X141739999Y-113720000D01*
X141331994Y-113720000D01*
X141212671Y-113730609D01*
X141212663Y-113730611D01*
X141039407Y-113780185D01*
X140942581Y-113788175D01*
X140902411Y-113780185D01*
X140776197Y-113744071D01*
X140727418Y-113730114D01*
X140608037Y-113719500D01*
X140608036Y-113719500D01*
X139774993Y-113719500D01*
X139757232Y-113718866D01*
X139700000Y-113714773D01*
X139642766Y-113718866D01*
X139625005Y-113719500D01*
X138791968Y-113719500D01*
X138791956Y-113719501D01*
X138672583Y-113730113D01*
X138498498Y-113779925D01*
X138401672Y-113787915D01*
X138361502Y-113779925D01*
X138241082Y-113745469D01*
X138187418Y-113730114D01*
X138068037Y-113719500D01*
X138068036Y-113719500D01*
X137234993Y-113719500D01*
X137217232Y-113718866D01*
X137160000Y-113714773D01*
X137102766Y-113718866D01*
X137085005Y-113719500D01*
X136251968Y-113719500D01*
X136251956Y-113719501D01*
X136132583Y-113730113D01*
X135958498Y-113779925D01*
X135861672Y-113787915D01*
X135821502Y-113779925D01*
X135701082Y-113745469D01*
X135647418Y-113730114D01*
X135528037Y-113719500D01*
X135528036Y-113719500D01*
X134694993Y-113719500D01*
X134677232Y-113718866D01*
X134620000Y-113714773D01*
X134562766Y-113718866D01*
X134545005Y-113719500D01*
X133711968Y-113719500D01*
X133711956Y-113719501D01*
X133592583Y-113730113D01*
X133418498Y-113779925D01*
X133321672Y-113787915D01*
X133281502Y-113779925D01*
X133161082Y-113745469D01*
X133107418Y-113730114D01*
X132988037Y-113719500D01*
X132988036Y-113719500D01*
X132154993Y-113719500D01*
X132137232Y-113718866D01*
X132080000Y-113714773D01*
X132022766Y-113718866D01*
X132005005Y-113719500D01*
X131171968Y-113719500D01*
X131171956Y-113719501D01*
X131052583Y-113730113D01*
X130877589Y-113780185D01*
X130780763Y-113788175D01*
X130740593Y-113780185D01*
X130567336Y-113730611D01*
X130567328Y-113730609D01*
X130448005Y-113720000D01*
X130040001Y-113720000D01*
X130040000Y-113720001D01*
X130040000Y-115465535D01*
X130015245Y-115373147D01*
X129948102Y-115256853D01*
X129853147Y-115161898D01*
X129736853Y-115094755D01*
X129607143Y-115060000D01*
X129472857Y-115060000D01*
X129343147Y-115094755D01*
X129226853Y-115161898D01*
X129131898Y-115256853D01*
X129064755Y-115373147D01*
X129040000Y-115465535D01*
X129040000Y-113720001D01*
X129039999Y-113720000D01*
X128631994Y-113720000D01*
X128512671Y-113730609D01*
X128512663Y-113730611D01*
X128339407Y-113780185D01*
X128242581Y-113788175D01*
X128202411Y-113780185D01*
X128076197Y-113744071D01*
X128027418Y-113730114D01*
X127908037Y-113719500D01*
X127908036Y-113719500D01*
X127074993Y-113719500D01*
X127057232Y-113718866D01*
X127000000Y-113714773D01*
X126942766Y-113718866D01*
X126925005Y-113719500D01*
X126091968Y-113719500D01*
X126091956Y-113719501D01*
X125972583Y-113730113D01*
X125798498Y-113779925D01*
X125701672Y-113787915D01*
X125661502Y-113779925D01*
X125541082Y-113745469D01*
X125487418Y-113730114D01*
X125368037Y-113719500D01*
X125368036Y-113719500D01*
X124534993Y-113719500D01*
X124517232Y-113718866D01*
X124460000Y-113714773D01*
X124402766Y-113718866D01*
X124385005Y-113719500D01*
X123551968Y-113719500D01*
X123551956Y-113719501D01*
X123432583Y-113730113D01*
X123258498Y-113779925D01*
X123161672Y-113787915D01*
X123121502Y-113779925D01*
X123001082Y-113745469D01*
X122947418Y-113730114D01*
X122828037Y-113719500D01*
X122828036Y-113719500D01*
X121994993Y-113719500D01*
X121977232Y-113718866D01*
X121920000Y-113714773D01*
X121862766Y-113718866D01*
X121845005Y-113719500D01*
X121011968Y-113719500D01*
X121011956Y-113719501D01*
X120892583Y-113730113D01*
X120718498Y-113779925D01*
X120621672Y-113787915D01*
X120581502Y-113779925D01*
X120461082Y-113745469D01*
X120407418Y-113730114D01*
X120288037Y-113719500D01*
X120288036Y-113719500D01*
X119454993Y-113719500D01*
X119437232Y-113718866D01*
X119380000Y-113714773D01*
X119322766Y-113718866D01*
X119305005Y-113719500D01*
X118471968Y-113719500D01*
X118471956Y-113719501D01*
X118352583Y-113730113D01*
X118177589Y-113780185D01*
X118080763Y-113788175D01*
X118040593Y-113780185D01*
X117867336Y-113730611D01*
X117867328Y-113730609D01*
X117748005Y-113720000D01*
X117340001Y-113720000D01*
X117340000Y-113720001D01*
X117340000Y-115465535D01*
X117315245Y-115373147D01*
X117248102Y-115256853D01*
X117153147Y-115161898D01*
X117036853Y-115094755D01*
X116907143Y-115060000D01*
X116772857Y-115060000D01*
X116643147Y-115094755D01*
X116526853Y-115161898D01*
X116431898Y-115256853D01*
X116364755Y-115373147D01*
X116340000Y-115465535D01*
X116340000Y-113720001D01*
X116339999Y-113720000D01*
X115931994Y-113720000D01*
X115812671Y-113730609D01*
X115812663Y-113730611D01*
X115639407Y-113780185D01*
X115542581Y-113788175D01*
X115502411Y-113780185D01*
X115376197Y-113744071D01*
X115327418Y-113730114D01*
X115208037Y-113719500D01*
X115208036Y-113719500D01*
X114374993Y-113719500D01*
X114357232Y-113718866D01*
X114300000Y-113714773D01*
X114242766Y-113718866D01*
X114225005Y-113719500D01*
X113391968Y-113719500D01*
X113391956Y-113719501D01*
X113272583Y-113730113D01*
X113098498Y-113779925D01*
X113001672Y-113787915D01*
X112961502Y-113779925D01*
X112841082Y-113745469D01*
X112787418Y-113730114D01*
X112668037Y-113719500D01*
X112668036Y-113719500D01*
X111834993Y-113719500D01*
X111817232Y-113718866D01*
X111760000Y-113714773D01*
X111702766Y-113718866D01*
X111685005Y-113719500D01*
X110851968Y-113719500D01*
X110851956Y-113719501D01*
X110732585Y-113730113D01*
X110536954Y-113786090D01*
X110536946Y-113786093D01*
X110356597Y-113880299D01*
X110356592Y-113880302D01*
X110198893Y-114008889D01*
X110198889Y-114008893D01*
X110070302Y-114166592D01*
X110070299Y-114166597D01*
X109976093Y-114346946D01*
X109976090Y-114346954D01*
X109920115Y-114542578D01*
X109920114Y-114542582D01*
X109909500Y-114661963D01*
X109909500Y-115495008D01*
X109908866Y-115512770D01*
X109904773Y-115569999D01*
X109908866Y-115627229D01*
X109909500Y-115644991D01*
X109909500Y-118008886D01*
X109890546Y-118104174D01*
X109836570Y-118184956D01*
X106784956Y-121236571D01*
X106704174Y-121290547D01*
X106608886Y-121309501D01*
X106545071Y-121309501D01*
X106344938Y-121339666D01*
X106278227Y-121349721D01*
X106020353Y-121429265D01*
X105777227Y-121546349D01*
X105554257Y-121698367D01*
X105356437Y-121881917D01*
X105188189Y-122092893D01*
X105188188Y-122092893D01*
X105053257Y-122326602D01*
X105053256Y-122326605D01*
X104954667Y-122577802D01*
X104954663Y-122577813D01*
X104894616Y-122840900D01*
X104874451Y-123110001D01*
X100500500Y-123110001D01*
X100500500Y-112004499D01*
X100519454Y-111909211D01*
X100573430Y-111828429D01*
X100654212Y-111774453D01*
X100749500Y-111755499D01*
X101038032Y-111755499D01*
X101038036Y-111755499D01*
X101157418Y-111744886D01*
X101353049Y-111688909D01*
X101533407Y-111594698D01*
X101691109Y-111466109D01*
X101819698Y-111308407D01*
X101913909Y-111128049D01*
X101969886Y-110932418D01*
X101980500Y-110813037D01*
X101980499Y-109219999D01*
X157934773Y-109219999D01*
X157938866Y-109277232D01*
X157939500Y-109294993D01*
X157939500Y-110128031D01*
X157939501Y-110128043D01*
X157950113Y-110247414D01*
X157950113Y-110247417D01*
X157950114Y-110247418D01*
X158006091Y-110443049D01*
X158100302Y-110623407D01*
X158228891Y-110781109D01*
X158386593Y-110909698D01*
X158566951Y-111003909D01*
X158762582Y-111059886D01*
X158881963Y-111070500D01*
X159715015Y-111070499D01*
X159732783Y-111071134D01*
X159789997Y-111075227D01*
X159790000Y-111075227D01*
X159790003Y-111075227D01*
X159847217Y-111071134D01*
X159864985Y-111070499D01*
X162498032Y-111070499D01*
X162498036Y-111070499D01*
X162617418Y-111059886D01*
X162813049Y-111003909D01*
X162993407Y-110909698D01*
X163151109Y-110781109D01*
X163279698Y-110623407D01*
X163373909Y-110443049D01*
X163429886Y-110247418D01*
X163440500Y-110128037D01*
X163440499Y-108311964D01*
X163429886Y-108192582D01*
X163379813Y-108017587D01*
X163371824Y-107920764D01*
X163379814Y-107880592D01*
X163429389Y-107707332D01*
X163429390Y-107707328D01*
X163439999Y-107588005D01*
X163440000Y-107588002D01*
X163440000Y-107180001D01*
X163439999Y-107180000D01*
X159894464Y-107180000D01*
X159986853Y-107155245D01*
X160103147Y-107088102D01*
X160198102Y-106993147D01*
X160265245Y-106876853D01*
X160300000Y-106747143D01*
X160300000Y-106612857D01*
X160265245Y-106483147D01*
X160198102Y-106366853D01*
X160103147Y-106271898D01*
X159986853Y-106204755D01*
X159894464Y-106180000D01*
X163439999Y-106180000D01*
X163440000Y-106179999D01*
X163440000Y-105771997D01*
X163439999Y-105771994D01*
X163429390Y-105652671D01*
X163429389Y-105652667D01*
X163379814Y-105479408D01*
X163371824Y-105382582D01*
X163379814Y-105342411D01*
X163429886Y-105167418D01*
X163440500Y-105048037D01*
X163440499Y-103231964D01*
X163429886Y-103112582D01*
X163373909Y-102916951D01*
X163279698Y-102736593D01*
X163151109Y-102578891D01*
X162993407Y-102450302D01*
X162993402Y-102450299D01*
X162813053Y-102356093D01*
X162813052Y-102356092D01*
X162813049Y-102356091D01*
X162617418Y-102300114D01*
X162498037Y-102289500D01*
X162498036Y-102289500D01*
X159864995Y-102289500D01*
X159847234Y-102288866D01*
X159790000Y-102284773D01*
X159789999Y-102284773D01*
X159732763Y-102288866D01*
X159715003Y-102289500D01*
X158881968Y-102289500D01*
X158881956Y-102289501D01*
X158762585Y-102300113D01*
X158566954Y-102356090D01*
X158566946Y-102356093D01*
X158386597Y-102450299D01*
X158386592Y-102450302D01*
X158228893Y-102578889D01*
X158228889Y-102578893D01*
X158100302Y-102736592D01*
X158100299Y-102736597D01*
X158006093Y-102916946D01*
X158006090Y-102916954D01*
X157950115Y-103112578D01*
X157950114Y-103112582D01*
X157939500Y-103231963D01*
X157939500Y-104065006D01*
X157938866Y-104082767D01*
X157934773Y-104139999D01*
X157938866Y-104197232D01*
X157939500Y-104214993D01*
X157939500Y-105048031D01*
X157939501Y-105048043D01*
X157950113Y-105167416D01*
X158000185Y-105342411D01*
X158008175Y-105439237D01*
X158000185Y-105479407D01*
X157950611Y-105652663D01*
X157950609Y-105652671D01*
X157940000Y-105771994D01*
X157940000Y-106179999D01*
X157940001Y-106180000D01*
X159685536Y-106180000D01*
X159593147Y-106204755D01*
X159476853Y-106271898D01*
X159381898Y-106366853D01*
X159314755Y-106483147D01*
X159280000Y-106612857D01*
X159280000Y-106747143D01*
X159314755Y-106876853D01*
X159381898Y-106993147D01*
X159476853Y-107088102D01*
X159593147Y-107155245D01*
X159685536Y-107180000D01*
X157940001Y-107180000D01*
X157940000Y-107180001D01*
X157940000Y-107588005D01*
X157950609Y-107707328D01*
X157950611Y-107707336D01*
X158000185Y-107880593D01*
X158008175Y-107977419D01*
X158000185Y-108017589D01*
X157950116Y-108192575D01*
X157950114Y-108192582D01*
X157939500Y-108311963D01*
X157939500Y-109145006D01*
X157938866Y-109162767D01*
X157934773Y-109219999D01*
X101980499Y-109219999D01*
X101980499Y-108716964D01*
X101969886Y-108597582D01*
X101913909Y-108401951D01*
X101819698Y-108221593D01*
X101691109Y-108063891D01*
X101533407Y-107935302D01*
X101533402Y-107935299D01*
X101353053Y-107841093D01*
X101353052Y-107841092D01*
X101353049Y-107841091D01*
X101157418Y-107785114D01*
X101038037Y-107774500D01*
X101038035Y-107774500D01*
X96961968Y-107774500D01*
X96961956Y-107774501D01*
X96842585Y-107785113D01*
X96646954Y-107841090D01*
X96646946Y-107841093D01*
X96466597Y-107935299D01*
X96466592Y-107935302D01*
X96308893Y-108063889D01*
X96308889Y-108063893D01*
X96180302Y-108221592D01*
X96180299Y-108221597D01*
X96086093Y-108401946D01*
X96086090Y-108401954D01*
X96030115Y-108597578D01*
X96030114Y-108597582D01*
X96019500Y-108716963D01*
X96019500Y-110813031D01*
X89000500Y-110813031D01*
X89000500Y-105265001D01*
X96083774Y-105265001D01*
X96121560Y-105406019D01*
X96121566Y-105406036D01*
X96221390Y-105647035D01*
X96221392Y-105647039D01*
X96351826Y-105872960D01*
X96510622Y-106079906D01*
X96510631Y-106079917D01*
X96695082Y-106264368D01*
X96695093Y-106264377D01*
X96902039Y-106423173D01*
X97127960Y-106553607D01*
X97127964Y-106553609D01*
X97368963Y-106653433D01*
X97368980Y-106653439D01*
X97620930Y-106720949D01*
X97620935Y-106720950D01*
X97879569Y-106755000D01*
X98499999Y-106755000D01*
X98500000Y-106754999D01*
X99500000Y-106754999D01*
X99500001Y-106755000D01*
X100120431Y-106755000D01*
X100379064Y-106720950D01*
X100379069Y-106720949D01*
X100631019Y-106653439D01*
X100631036Y-106653433D01*
X100872035Y-106553609D01*
X100872039Y-106553607D01*
X101097960Y-106423173D01*
X101304906Y-106264377D01*
X101304917Y-106264368D01*
X101489368Y-106079917D01*
X101489377Y-106079906D01*
X101648173Y-105872960D01*
X101778607Y-105647039D01*
X101778609Y-105647035D01*
X101878433Y-105406036D01*
X101878439Y-105406019D01*
X101916225Y-105265001D01*
X101916225Y-105265000D01*
X99500001Y-105265000D01*
X99500000Y-105265001D01*
X99500000Y-106754999D01*
X98500000Y-106754999D01*
X98500000Y-105265001D01*
X98499999Y-105265000D01*
X96083775Y-105265000D01*
X96083774Y-105265001D01*
X89000500Y-105265001D01*
X89000500Y-104830004D01*
X98340000Y-104830004D01*
X98365364Y-104957515D01*
X98415116Y-105077627D01*
X98487345Y-105185725D01*
X98579275Y-105277655D01*
X98687373Y-105349884D01*
X98807485Y-105399636D01*
X98934996Y-105425000D01*
X99065004Y-105425000D01*
X99192515Y-105399636D01*
X99312627Y-105349884D01*
X99420725Y-105277655D01*
X99512655Y-105185725D01*
X99584884Y-105077627D01*
X99634636Y-104957515D01*
X99660000Y-104830004D01*
X99660000Y-104699996D01*
X99634636Y-104572485D01*
X99584884Y-104452373D01*
X99512655Y-104344275D01*
X99433379Y-104264999D01*
X99500000Y-104264999D01*
X99500001Y-104265000D01*
X101916225Y-104265000D01*
X101916225Y-104264998D01*
X101878439Y-104123980D01*
X101878433Y-104123963D01*
X101778609Y-103882964D01*
X101778607Y-103882960D01*
X101648173Y-103657039D01*
X101489377Y-103450093D01*
X101489368Y-103450082D01*
X101304917Y-103265631D01*
X101304906Y-103265622D01*
X101097960Y-103106826D01*
X100872039Y-102976392D01*
X100872035Y-102976390D01*
X100631036Y-102876566D01*
X100631019Y-102876560D01*
X100379069Y-102809050D01*
X100379064Y-102809049D01*
X100120431Y-102775000D01*
X99500001Y-102775000D01*
X99500000Y-102775001D01*
X99500000Y-104264999D01*
X99433379Y-104264999D01*
X99420725Y-104252345D01*
X99312627Y-104180116D01*
X99192515Y-104130364D01*
X99065004Y-104105000D01*
X98934996Y-104105000D01*
X98807485Y-104130364D01*
X98687373Y-104180116D01*
X98579275Y-104252345D01*
X98487345Y-104344275D01*
X98415116Y-104452373D01*
X98365364Y-104572485D01*
X98340000Y-104699996D01*
X98340000Y-104830004D01*
X89000500Y-104830004D01*
X89000500Y-104264998D01*
X96083774Y-104264998D01*
X96083775Y-104265000D01*
X98499999Y-104265000D01*
X98500000Y-104264999D01*
X98500000Y-102775001D01*
X98499999Y-102775000D01*
X97879569Y-102775000D01*
X97620935Y-102809049D01*
X97620930Y-102809050D01*
X97368980Y-102876560D01*
X97368963Y-102876566D01*
X97127964Y-102976390D01*
X97127960Y-102976392D01*
X96902039Y-103106826D01*
X96695093Y-103265622D01*
X96695082Y-103265631D01*
X96510631Y-103450082D01*
X96510622Y-103450093D01*
X96351826Y-103657039D01*
X96221392Y-103882960D01*
X96221390Y-103882964D01*
X96121566Y-104123963D01*
X96121560Y-104123980D01*
X96083774Y-104264998D01*
X89000500Y-104264998D01*
X89000500Y-95303412D01*
X94719500Y-95303412D01*
X94719501Y-95303428D01*
X94750290Y-95497823D01*
X94773672Y-95569787D01*
X94811116Y-95685026D01*
X94900476Y-95860405D01*
X95016172Y-96019646D01*
X95635526Y-96639000D01*
X96140881Y-97144355D01*
X96194857Y-97225137D01*
X96213811Y-97320425D01*
X96194857Y-97415712D01*
X96121091Y-97593802D01*
X96053558Y-97845839D01*
X96053557Y-97845843D01*
X96053557Y-97845845D01*
X96051036Y-97864996D01*
X96019500Y-98104536D01*
X96019500Y-98365464D01*
X96053558Y-98624161D01*
X96073355Y-98698043D01*
X96121092Y-98876201D01*
X96220938Y-99117254D01*
X96220943Y-99117263D01*
X96220944Y-99117265D01*
X96351409Y-99343235D01*
X96510252Y-99550244D01*
X96694756Y-99734748D01*
X96901765Y-99893591D01*
X97127735Y-100024056D01*
X97127738Y-100024057D01*
X97127745Y-100024061D01*
X97299925Y-100095379D01*
X97368802Y-100123909D01*
X97620839Y-100191442D01*
X97879536Y-100225500D01*
X100120464Y-100225500D01*
X100379161Y-100191442D01*
X100631198Y-100123909D01*
X100783208Y-100060944D01*
X100872254Y-100024061D01*
X100872257Y-100024059D01*
X100872265Y-100024056D01*
X101098235Y-99893591D01*
X101305244Y-99734748D01*
X101489748Y-99550244D01*
X101648591Y-99343235D01*
X101779056Y-99117265D01*
X101878909Y-98876198D01*
X101946442Y-98624161D01*
X101980500Y-98365464D01*
X101980500Y-98104536D01*
X101946442Y-97845839D01*
X101878909Y-97593802D01*
X101791136Y-97381898D01*
X101779061Y-97352745D01*
X101779056Y-97352736D01*
X101779056Y-97352735D01*
X101648591Y-97126765D01*
X101489748Y-96919756D01*
X101305244Y-96735252D01*
X101098235Y-96576409D01*
X100872265Y-96445944D01*
X100872263Y-96445943D01*
X100872254Y-96445938D01*
X100631201Y-96346092D01*
X100631199Y-96346091D01*
X100631198Y-96346091D01*
X100379161Y-96278558D01*
X100379154Y-96278557D01*
X100120464Y-96244500D01*
X98881114Y-96244500D01*
X98785826Y-96225546D01*
X98705044Y-96171570D01*
X98184043Y-95650569D01*
X98130067Y-95569787D01*
X98111113Y-95474499D01*
X98130067Y-95379211D01*
X98184043Y-95298429D01*
X98264825Y-95244453D01*
X98360113Y-95225499D01*
X101038032Y-95225499D01*
X101038036Y-95225499D01*
X101157418Y-95214886D01*
X101353049Y-95158909D01*
X101533407Y-95064698D01*
X101691109Y-94936109D01*
X101819698Y-94778407D01*
X101913909Y-94598049D01*
X101969886Y-94402418D01*
X101980500Y-94283037D01*
X101980499Y-92186964D01*
X101969886Y-92067582D01*
X101913909Y-91871951D01*
X101819698Y-91691593D01*
X101691109Y-91533891D01*
X101533407Y-91405302D01*
X101533402Y-91405299D01*
X101353053Y-91311093D01*
X101353052Y-91311092D01*
X101353049Y-91311091D01*
X101181000Y-91261861D01*
X101094603Y-91217426D01*
X101031788Y-91143309D01*
X101002116Y-91050796D01*
X101000500Y-91022469D01*
X101000500Y-89578303D01*
X103628803Y-89578303D01*
X103840535Y-89680268D01*
X103840540Y-89680270D01*
X104098333Y-89759789D01*
X104365112Y-89800000D01*
X104634888Y-89800000D01*
X104901666Y-89759789D01*
X105159459Y-89680270D01*
X105159464Y-89680268D01*
X105371195Y-89578303D01*
X104499999Y-88707107D01*
X103628803Y-89578303D01*
X101000500Y-89578303D01*
X101000500Y-89068778D01*
X101019454Y-88973490D01*
X101033859Y-88944279D01*
X101077089Y-88869402D01*
X101126743Y-88783398D01*
X101225334Y-88532195D01*
X101285383Y-88269103D01*
X101305549Y-88000000D01*
X102694953Y-88000000D01*
X102715115Y-88269031D01*
X102775144Y-88532041D01*
X102873705Y-88783173D01*
X102873708Y-88783178D01*
X102923489Y-88869401D01*
X103740229Y-88052661D01*
X104100000Y-88052661D01*
X104127259Y-88154394D01*
X104179920Y-88245606D01*
X104254394Y-88320080D01*
X104345606Y-88372741D01*
X104447339Y-88400000D01*
X104552661Y-88400000D01*
X104654394Y-88372741D01*
X104745606Y-88320080D01*
X104820080Y-88245606D01*
X104872741Y-88154394D01*
X104900000Y-88052661D01*
X104900000Y-87999999D01*
X105207107Y-87999999D01*
X106076510Y-88869402D01*
X106126290Y-88783181D01*
X106126292Y-88783176D01*
X106224855Y-88532041D01*
X106284884Y-88269031D01*
X106305046Y-88000000D01*
X106284884Y-87730968D01*
X106224855Y-87467958D01*
X106126291Y-87216818D01*
X106076510Y-87130596D01*
X105207107Y-87999999D01*
X104900000Y-87999999D01*
X104900000Y-87947339D01*
X104872741Y-87845606D01*
X104820080Y-87754394D01*
X104745606Y-87679920D01*
X104654394Y-87627259D01*
X104552661Y-87600000D01*
X104447339Y-87600000D01*
X104345606Y-87627259D01*
X104254394Y-87679920D01*
X104179920Y-87754394D01*
X104127259Y-87845606D01*
X104100000Y-87947339D01*
X104100000Y-88052661D01*
X103740229Y-88052661D01*
X103792891Y-87999999D01*
X102923488Y-87130596D01*
X102873714Y-87216809D01*
X102873707Y-87216823D01*
X102775143Y-87467960D01*
X102715115Y-87730968D01*
X102694953Y-88000000D01*
X101305549Y-88000000D01*
X101285383Y-87730897D01*
X101249556Y-87573930D01*
X101225336Y-87467812D01*
X101225331Y-87467796D01*
X101126749Y-87216617D01*
X101126748Y-87216615D01*
X101126743Y-87216602D01*
X101033859Y-87055720D01*
X101002630Y-86963721D01*
X101000500Y-86931221D01*
X101000500Y-86249499D01*
X101019454Y-86154211D01*
X101073430Y-86073429D01*
X101154212Y-86019453D01*
X101249500Y-86000499D01*
X102010532Y-86000499D01*
X102010536Y-86000499D01*
X102129918Y-85989886D01*
X102325549Y-85933909D01*
X102505907Y-85839698D01*
X102505906Y-85839698D01*
X102517101Y-85833851D01*
X102518825Y-85837152D01*
X102584699Y-85810114D01*
X102681853Y-85810425D01*
X102727781Y-85824438D01*
X102911046Y-85900348D01*
X103040000Y-85934900D01*
X103040000Y-84233974D01*
X103099890Y-84337708D01*
X103202292Y-84440110D01*
X103327708Y-84512518D01*
X103467591Y-84550000D01*
X103612409Y-84550000D01*
X103752292Y-84512518D01*
X103877708Y-84440110D01*
X103980110Y-84337708D01*
X104040000Y-84233974D01*
X104040000Y-85997571D01*
X104053430Y-86037137D01*
X104047075Y-86134084D01*
X104004103Y-86221219D01*
X103931057Y-86285276D01*
X103879958Y-86307571D01*
X103840538Y-86319730D01*
X103628803Y-86421696D01*
X104499999Y-87292892D01*
X105371195Y-86421695D01*
X105159459Y-86319729D01*
X104901666Y-86240210D01*
X104634888Y-86200000D01*
X104627207Y-86199424D01*
X104533604Y-86173397D01*
X104457085Y-86113530D01*
X104409301Y-86028938D01*
X104397526Y-85932499D01*
X104423553Y-85838896D01*
X104483420Y-85762377D01*
X104521329Y-85735480D01*
X104627082Y-85674423D01*
X104658004Y-85650696D01*
X104745139Y-85607724D01*
X104842086Y-85601369D01*
X104934085Y-85632597D01*
X104961168Y-85650693D01*
X104992094Y-85674423D01*
X104992643Y-85674844D01*
X105214357Y-85802850D01*
X105450882Y-85900822D01*
X105698171Y-85967083D01*
X105875654Y-85990449D01*
X105967652Y-86021679D01*
X106019222Y-86061249D01*
X112726570Y-92768597D01*
X112780546Y-92849379D01*
X112799500Y-92944667D01*
X112799500Y-93890500D01*
X112780546Y-93985788D01*
X112726570Y-94066570D01*
X112645788Y-94120546D01*
X112550500Y-94139500D01*
X110851968Y-94139500D01*
X110851956Y-94139501D01*
X110732585Y-94150113D01*
X110536954Y-94206090D01*
X110536946Y-94206093D01*
X110356597Y-94300299D01*
X110356592Y-94300302D01*
X110198893Y-94428889D01*
X110198889Y-94428893D01*
X110070302Y-94586592D01*
X110070299Y-94586597D01*
X109976093Y-94766946D01*
X109976090Y-94766954D01*
X109920115Y-94962578D01*
X109920114Y-94962582D01*
X109909500Y-95081963D01*
X109909500Y-97715004D01*
X109908866Y-97732764D01*
X109904773Y-97790000D01*
X109908866Y-97847236D01*
X109909500Y-97864996D01*
X109909500Y-98698031D01*
X109909501Y-98698043D01*
X109920113Y-98817414D01*
X109976090Y-99013045D01*
X109976093Y-99013053D01*
X110030527Y-99117263D01*
X110070302Y-99193407D01*
X110198891Y-99351109D01*
X110356593Y-99479698D01*
X110536951Y-99573909D01*
X110732582Y-99629886D01*
X110851963Y-99640500D01*
X111685013Y-99640499D01*
X111702780Y-99641134D01*
X111759996Y-99645227D01*
X111760000Y-99645227D01*
X111760004Y-99645227D01*
X111808092Y-99641786D01*
X111817220Y-99641133D01*
X111834986Y-99640499D01*
X112668032Y-99640499D01*
X112668036Y-99640499D01*
X112787418Y-99629886D01*
X112961504Y-99580073D01*
X113058327Y-99572084D01*
X113098491Y-99580072D01*
X113272582Y-99629886D01*
X113391963Y-99640500D01*
X114225013Y-99640499D01*
X114242780Y-99641134D01*
X114299996Y-99645227D01*
X114300000Y-99645227D01*
X114300004Y-99645227D01*
X114348092Y-99641786D01*
X114357220Y-99641133D01*
X114374986Y-99640499D01*
X115208032Y-99640499D01*
X115208036Y-99640499D01*
X115327418Y-99629886D01*
X115502412Y-99579813D01*
X115599236Y-99571824D01*
X115639408Y-99579814D01*
X115812667Y-99629389D01*
X115812671Y-99629390D01*
X115931994Y-99639999D01*
X115931998Y-99640000D01*
X116339999Y-99640000D01*
X116340000Y-99639999D01*
X116340000Y-97894464D01*
X116364755Y-97986853D01*
X116431898Y-98103147D01*
X116526853Y-98198102D01*
X116643147Y-98265245D01*
X116772857Y-98300000D01*
X116907143Y-98300000D01*
X117036853Y-98265245D01*
X117153147Y-98198102D01*
X117248102Y-98103147D01*
X117315245Y-97986853D01*
X117340000Y-97894464D01*
X117340000Y-99639999D01*
X117340001Y-99640000D01*
X117748002Y-99640000D01*
X117748005Y-99639999D01*
X117867328Y-99629390D01*
X117867332Y-99629389D01*
X118040592Y-99579814D01*
X118137418Y-99571824D01*
X118177583Y-99579812D01*
X118352582Y-99629886D01*
X118471963Y-99640500D01*
X119305013Y-99640499D01*
X119322780Y-99641134D01*
X119379996Y-99645227D01*
X119380000Y-99645227D01*
X119380004Y-99645227D01*
X119428092Y-99641786D01*
X119437220Y-99641133D01*
X119454986Y-99640499D01*
X120288032Y-99640499D01*
X120288036Y-99640499D01*
X120407418Y-99629886D01*
X120581504Y-99580073D01*
X120678327Y-99572084D01*
X120718491Y-99580072D01*
X120892582Y-99629886D01*
X121011963Y-99640500D01*
X121845013Y-99640499D01*
X121862780Y-99641134D01*
X121919996Y-99645227D01*
X121920000Y-99645227D01*
X121920004Y-99645227D01*
X121968092Y-99641786D01*
X121977220Y-99641133D01*
X121994986Y-99640499D01*
X122828032Y-99640499D01*
X122828036Y-99640499D01*
X122947418Y-99629886D01*
X123121504Y-99580073D01*
X123218327Y-99572084D01*
X123258491Y-99580072D01*
X123432582Y-99629886D01*
X123551963Y-99640500D01*
X124385013Y-99640499D01*
X124402780Y-99641134D01*
X124459996Y-99645227D01*
X124460000Y-99645227D01*
X124460004Y-99645227D01*
X124508092Y-99641786D01*
X124517220Y-99641133D01*
X124534986Y-99640499D01*
X125368032Y-99640499D01*
X125368036Y-99640499D01*
X125487418Y-99629886D01*
X125661504Y-99580073D01*
X125758327Y-99572084D01*
X125798491Y-99580072D01*
X125972582Y-99629886D01*
X126091963Y-99640500D01*
X126925013Y-99640499D01*
X126942780Y-99641134D01*
X126999996Y-99645227D01*
X127000000Y-99645227D01*
X127000004Y-99645227D01*
X127048092Y-99641786D01*
X127057220Y-99641133D01*
X127074986Y-99640499D01*
X127908032Y-99640499D01*
X127908036Y-99640499D01*
X128027418Y-99629886D01*
X128201504Y-99580073D01*
X128298327Y-99572084D01*
X128338491Y-99580072D01*
X128512582Y-99629886D01*
X128631963Y-99640500D01*
X130448036Y-99640499D01*
X130567418Y-99629886D01*
X130741504Y-99580073D01*
X130838327Y-99572084D01*
X130878491Y-99580072D01*
X131052582Y-99629886D01*
X131171963Y-99640500D01*
X132005013Y-99640499D01*
X132022780Y-99641134D01*
X132079996Y-99645227D01*
X132080000Y-99645227D01*
X132080004Y-99645227D01*
X132128092Y-99641786D01*
X132137220Y-99641133D01*
X132154986Y-99640499D01*
X132988032Y-99640499D01*
X132988036Y-99640499D01*
X133107418Y-99629886D01*
X133281504Y-99580073D01*
X133378327Y-99572084D01*
X133418491Y-99580072D01*
X133592582Y-99629886D01*
X133711963Y-99640500D01*
X134545013Y-99640499D01*
X134562780Y-99641134D01*
X134619996Y-99645227D01*
X134620000Y-99645227D01*
X134620004Y-99645227D01*
X134668092Y-99641786D01*
X134677220Y-99641133D01*
X134694986Y-99640499D01*
X135528032Y-99640499D01*
X135528036Y-99640499D01*
X135647418Y-99629886D01*
X135821504Y-99580073D01*
X135918327Y-99572084D01*
X135958491Y-99580072D01*
X136132582Y-99629886D01*
X136251963Y-99640500D01*
X137085013Y-99640499D01*
X137102780Y-99641134D01*
X137159996Y-99645227D01*
X137160000Y-99645227D01*
X137160004Y-99645227D01*
X137208092Y-99641786D01*
X137217220Y-99641133D01*
X137234986Y-99640499D01*
X138068032Y-99640499D01*
X138068036Y-99640499D01*
X138187418Y-99629886D01*
X138361504Y-99580073D01*
X138458327Y-99572084D01*
X138498491Y-99580072D01*
X138672582Y-99629886D01*
X138791963Y-99640500D01*
X139625013Y-99640499D01*
X139642780Y-99641134D01*
X139699996Y-99645227D01*
X139700000Y-99645227D01*
X139700004Y-99645227D01*
X139748092Y-99641786D01*
X139757220Y-99641133D01*
X139774986Y-99640499D01*
X140608032Y-99640499D01*
X140608036Y-99640499D01*
X140727418Y-99629886D01*
X140902412Y-99579813D01*
X140999236Y-99571824D01*
X141039408Y-99579814D01*
X141212667Y-99629389D01*
X141212671Y-99629390D01*
X141331994Y-99639999D01*
X141331998Y-99640000D01*
X141739999Y-99640000D01*
X141740000Y-99639999D01*
X141740000Y-97894464D01*
X141764755Y-97986853D01*
X141831898Y-98103147D01*
X141926853Y-98198102D01*
X142043147Y-98265245D01*
X142172857Y-98300000D01*
X142307143Y-98300000D01*
X142436853Y-98265245D01*
X142553147Y-98198102D01*
X142648102Y-98103147D01*
X142715245Y-97986853D01*
X142740000Y-97894464D01*
X142740000Y-99639999D01*
X142740001Y-99640000D01*
X143148002Y-99640000D01*
X143148005Y-99639999D01*
X143267328Y-99629390D01*
X143267332Y-99629389D01*
X143440592Y-99579814D01*
X143537418Y-99571824D01*
X143577583Y-99579812D01*
X143752582Y-99629886D01*
X143871963Y-99640500D01*
X144705013Y-99640499D01*
X144722780Y-99641134D01*
X144779996Y-99645227D01*
X144780000Y-99645227D01*
X144780004Y-99645227D01*
X144828092Y-99641786D01*
X144837220Y-99641133D01*
X144854986Y-99640499D01*
X145688032Y-99640499D01*
X145688036Y-99640499D01*
X145807418Y-99629886D01*
X145981504Y-99580073D01*
X146078327Y-99572084D01*
X146118491Y-99580072D01*
X146292582Y-99629886D01*
X146411963Y-99640500D01*
X147245013Y-99640499D01*
X147262780Y-99641134D01*
X147319996Y-99645227D01*
X147320000Y-99645227D01*
X147320004Y-99645227D01*
X147368092Y-99641786D01*
X147377220Y-99641133D01*
X147394986Y-99640499D01*
X148228032Y-99640499D01*
X148228036Y-99640499D01*
X148347418Y-99629886D01*
X148521504Y-99580073D01*
X148618327Y-99572084D01*
X148658491Y-99580072D01*
X148832582Y-99629886D01*
X148951963Y-99640500D01*
X149785013Y-99640499D01*
X149802780Y-99641134D01*
X149859996Y-99645227D01*
X149860000Y-99645227D01*
X149860004Y-99645227D01*
X149908092Y-99641786D01*
X149917220Y-99641133D01*
X149934986Y-99640499D01*
X150768032Y-99640499D01*
X150768036Y-99640499D01*
X150887418Y-99629886D01*
X151061504Y-99580073D01*
X151158327Y-99572084D01*
X151198491Y-99580072D01*
X151372582Y-99629886D01*
X151491963Y-99640500D01*
X152325013Y-99640499D01*
X152342780Y-99641134D01*
X152399996Y-99645227D01*
X152400000Y-99645227D01*
X152400004Y-99645227D01*
X152448092Y-99641786D01*
X152457220Y-99641133D01*
X152474986Y-99640499D01*
X153308032Y-99640499D01*
X153308036Y-99640499D01*
X153427418Y-99629886D01*
X153602412Y-99579813D01*
X153699236Y-99571824D01*
X153739408Y-99579814D01*
X153912667Y-99629389D01*
X153912671Y-99629390D01*
X154031994Y-99639999D01*
X154031998Y-99640000D01*
X154439999Y-99640000D01*
X154440000Y-99639999D01*
X154440000Y-97894464D01*
X154464755Y-97986853D01*
X154531898Y-98103147D01*
X154626853Y-98198102D01*
X154743147Y-98265245D01*
X154872857Y-98300000D01*
X155007143Y-98300000D01*
X155136853Y-98265245D01*
X155253147Y-98198102D01*
X155348102Y-98103147D01*
X155415245Y-97986853D01*
X155440000Y-97894464D01*
X155440000Y-99639999D01*
X155440001Y-99640000D01*
X155848002Y-99640000D01*
X155848005Y-99639999D01*
X155967328Y-99629390D01*
X155967332Y-99629389D01*
X156140592Y-99579814D01*
X156237418Y-99571824D01*
X156277583Y-99579812D01*
X156452582Y-99629886D01*
X156571963Y-99640500D01*
X157405013Y-99640499D01*
X157422780Y-99641134D01*
X157479996Y-99645227D01*
X157480000Y-99645227D01*
X157480004Y-99645227D01*
X157528092Y-99641786D01*
X157537220Y-99641133D01*
X157554986Y-99640499D01*
X158388032Y-99640499D01*
X158388036Y-99640499D01*
X158507418Y-99629886D01*
X158681504Y-99580073D01*
X158778327Y-99572084D01*
X158818491Y-99580072D01*
X158992582Y-99629886D01*
X159111963Y-99640500D01*
X159945013Y-99640499D01*
X159962780Y-99641134D01*
X160019996Y-99645227D01*
X160020000Y-99645227D01*
X160020004Y-99645227D01*
X160068092Y-99641786D01*
X160077220Y-99641133D01*
X160094986Y-99640499D01*
X160928032Y-99640499D01*
X160928036Y-99640499D01*
X161047418Y-99629886D01*
X161243049Y-99573909D01*
X161423407Y-99479698D01*
X161581109Y-99351109D01*
X161709698Y-99193407D01*
X161803909Y-99013049D01*
X161859886Y-98817418D01*
X161870500Y-98698037D01*
X161870499Y-97864982D01*
X161871134Y-97847215D01*
X161871233Y-97845839D01*
X161875227Y-97790000D01*
X161871133Y-97732764D01*
X161870499Y-97715015D01*
X161870499Y-95081968D01*
X161870498Y-95081956D01*
X161859886Y-94962585D01*
X161859886Y-94962582D01*
X161803909Y-94766951D01*
X161709698Y-94586593D01*
X161581109Y-94428891D01*
X161423407Y-94300302D01*
X161423402Y-94300299D01*
X161243053Y-94206093D01*
X161243052Y-94206092D01*
X161243049Y-94206091D01*
X161047418Y-94150114D01*
X160928037Y-94139500D01*
X160928035Y-94139500D01*
X159111968Y-94139500D01*
X159111956Y-94139501D01*
X158992583Y-94150113D01*
X158818498Y-94199925D01*
X158721672Y-94207915D01*
X158681502Y-94199925D01*
X158561082Y-94165469D01*
X158507418Y-94150114D01*
X158388037Y-94139500D01*
X158388035Y-94139500D01*
X156571968Y-94139500D01*
X156571956Y-94139501D01*
X156452583Y-94150113D01*
X156277589Y-94200185D01*
X156180763Y-94208175D01*
X156140593Y-94200185D01*
X155967336Y-94150611D01*
X155967328Y-94150609D01*
X155848005Y-94140000D01*
X155440001Y-94140000D01*
X155440000Y-94140001D01*
X155440000Y-97685535D01*
X155415245Y-97593147D01*
X155348102Y-97476853D01*
X155253147Y-97381898D01*
X155136853Y-97314755D01*
X155007143Y-97280000D01*
X154872857Y-97280000D01*
X154743147Y-97314755D01*
X154626853Y-97381898D01*
X154531898Y-97476853D01*
X154464755Y-97593147D01*
X154440000Y-97685535D01*
X154440000Y-94140001D01*
X154439999Y-94140000D01*
X154031994Y-94140000D01*
X153912671Y-94150609D01*
X153912663Y-94150611D01*
X153739407Y-94200185D01*
X153642581Y-94208175D01*
X153602411Y-94200185D01*
X153476197Y-94164071D01*
X153427418Y-94150114D01*
X153308037Y-94139500D01*
X153308036Y-94139500D01*
X153127952Y-94139500D01*
X153032664Y-94120546D01*
X152951882Y-94066570D01*
X152897906Y-93985788D01*
X152878952Y-93890500D01*
X152897906Y-93795212D01*
X152951882Y-93714430D01*
X153019915Y-93666159D01*
X153084256Y-93635174D01*
X153232775Y-93563651D01*
X153455741Y-93411635D01*
X153653561Y-93228085D01*
X153821815Y-93017102D01*
X153956743Y-92783398D01*
X154055334Y-92532195D01*
X154115383Y-92269103D01*
X154135549Y-92000000D01*
X154115383Y-91730897D01*
X154070417Y-91533889D01*
X154055336Y-91467812D01*
X154055334Y-91467809D01*
X154055334Y-91467805D01*
X153956743Y-91216602D01*
X153821815Y-90982898D01*
X153821813Y-90982895D01*
X153821811Y-90982892D01*
X153704824Y-90836196D01*
X153660232Y-90749879D01*
X153650500Y-90680947D01*
X153650500Y-85224513D01*
X153669454Y-85129225D01*
X153718387Y-85055990D01*
X153717226Y-85054913D01*
X153723561Y-85048085D01*
X153749094Y-85016068D01*
X153891815Y-84837102D01*
X154026743Y-84603398D01*
X154125334Y-84352195D01*
X154185383Y-84089103D01*
X154205549Y-83820000D01*
X154185383Y-83550897D01*
X154125334Y-83287805D01*
X154026743Y-83036602D01*
X153891815Y-82802898D01*
X153723561Y-82591915D01*
X153723555Y-82591909D01*
X153717220Y-82585081D01*
X153719332Y-82583120D01*
X153673107Y-82519155D01*
X153650668Y-82424627D01*
X153650500Y-82415486D01*
X153650500Y-75430511D01*
X153669454Y-75335223D01*
X153723430Y-75254441D01*
X153804212Y-75200465D01*
X153899500Y-75181511D01*
X153994788Y-75200465D01*
X154029131Y-75219030D01*
X154029405Y-75218557D01*
X154037478Y-75223217D01*
X154280535Y-75340268D01*
X154280540Y-75340270D01*
X154538333Y-75419789D01*
X154805112Y-75460000D01*
X155074888Y-75460000D01*
X155341666Y-75419789D01*
X155599459Y-75340270D01*
X155599464Y-75340268D01*
X155811195Y-75238303D01*
X154408962Y-73836070D01*
X154354986Y-73755288D01*
X154346507Y-73712661D01*
X154540000Y-73712661D01*
X154567259Y-73814394D01*
X154619920Y-73905606D01*
X154694394Y-73980080D01*
X154785606Y-74032741D01*
X154887339Y-74060000D01*
X154992661Y-74060000D01*
X155094394Y-74032741D01*
X155185606Y-73980080D01*
X155260080Y-73905606D01*
X155312741Y-73814394D01*
X155340000Y-73712661D01*
X155340000Y-73659999D01*
X155647107Y-73659999D01*
X156516510Y-74529402D01*
X156566290Y-74443181D01*
X156566292Y-74443176D01*
X156664855Y-74192041D01*
X156724884Y-73929031D01*
X156745046Y-73660000D01*
X156724884Y-73390968D01*
X156664855Y-73127958D01*
X156566291Y-72876818D01*
X156516510Y-72790596D01*
X155647107Y-73659999D01*
X155340000Y-73659999D01*
X155340000Y-73607339D01*
X155312741Y-73505606D01*
X155260080Y-73414394D01*
X155185606Y-73339920D01*
X155094394Y-73287259D01*
X154992661Y-73260000D01*
X154887339Y-73260000D01*
X154785606Y-73287259D01*
X154694394Y-73339920D01*
X154619920Y-73414394D01*
X154567259Y-73505606D01*
X154540000Y-73607339D01*
X154540000Y-73712661D01*
X154346507Y-73712661D01*
X154336032Y-73660000D01*
X154354986Y-73564712D01*
X154408962Y-73483930D01*
X154408963Y-73483930D01*
X154940001Y-72952893D01*
X155811195Y-72081696D01*
X155811195Y-72081695D01*
X155599459Y-71979729D01*
X155341666Y-71900210D01*
X155074888Y-71860000D01*
X154805112Y-71860000D01*
X154538337Y-71900209D01*
X154364280Y-71953899D01*
X154267638Y-71963873D01*
X154174536Y-71936106D01*
X154099147Y-71874823D01*
X154052948Y-71789355D01*
X154042865Y-71693908D01*
X154050500Y-71608037D01*
X154050499Y-69891964D01*
X154039886Y-69772582D01*
X153983909Y-69576951D01*
X153889698Y-69396593D01*
X153761109Y-69238891D01*
X153603407Y-69110302D01*
X153603402Y-69110299D01*
X153423053Y-69016093D01*
X153423052Y-69016092D01*
X153423049Y-69016091D01*
X153421801Y-69015734D01*
X153409294Y-69012155D01*
X153322897Y-68967718D01*
X153301726Y-68948833D01*
X152370000Y-68017107D01*
X151506004Y-68881102D01*
X151425223Y-68935078D01*
X151351987Y-68953054D01*
X151272584Y-68960113D01*
X151076954Y-69016090D01*
X151076946Y-69016093D01*
X150896597Y-69110299D01*
X150896592Y-69110302D01*
X150738893Y-69238889D01*
X150738889Y-69238893D01*
X150610302Y-69396592D01*
X150610299Y-69396597D01*
X150516093Y-69576946D01*
X150516090Y-69576954D01*
X150460115Y-69772578D01*
X150460114Y-69772582D01*
X150449500Y-69891963D01*
X150449500Y-71608031D01*
X150449501Y-71608043D01*
X150460113Y-71727414D01*
X150460113Y-71727417D01*
X150460114Y-71727418D01*
X150498136Y-71860297D01*
X150516090Y-71923045D01*
X150516093Y-71923053D01*
X150598960Y-72081695D01*
X150610302Y-72103407D01*
X150738891Y-72261109D01*
X150896592Y-72389697D01*
X150896596Y-72389700D01*
X150934502Y-72409500D01*
X151015787Y-72451959D01*
X151091469Y-72512875D01*
X151138080Y-72598119D01*
X151149500Y-72672662D01*
X151149500Y-82415486D01*
X151130546Y-82510774D01*
X151081617Y-82584002D01*
X151082780Y-82585081D01*
X151076444Y-82591909D01*
X151076439Y-82591914D01*
X151076439Y-82591915D01*
X151048499Y-82626951D01*
X150908186Y-82802896D01*
X150773257Y-83036601D01*
X150773256Y-83036604D01*
X150674667Y-83287801D01*
X150674663Y-83287812D01*
X150614616Y-83550899D01*
X150594451Y-83820000D01*
X150614616Y-84089100D01*
X150674663Y-84352187D01*
X150674666Y-84352195D01*
X150771293Y-84598395D01*
X150773256Y-84603395D01*
X150773257Y-84603398D01*
X150908188Y-84837107D01*
X151076438Y-85048085D01*
X151082774Y-85054913D01*
X151080612Y-85056918D01*
X151126656Y-85120329D01*
X151149311Y-85214806D01*
X151149500Y-85224513D01*
X151149500Y-86034030D01*
X151130546Y-86129318D01*
X151076570Y-86210100D01*
X150995788Y-86264076D01*
X150900500Y-86283030D01*
X150805212Y-86264076D01*
X150760234Y-86239764D01*
X150682524Y-86186783D01*
X150682522Y-86186782D01*
X150439465Y-86069731D01*
X150439459Y-86069729D01*
X150181666Y-85990210D01*
X149914888Y-85950000D01*
X149645112Y-85950000D01*
X149378333Y-85990210D01*
X149120543Y-86069728D01*
X148908803Y-86171696D01*
X150311037Y-87573930D01*
X150365013Y-87654712D01*
X150383967Y-87750000D01*
X150365013Y-87845288D01*
X150311037Y-87926070D01*
X148908803Y-89328303D01*
X149120535Y-89430268D01*
X149120540Y-89430270D01*
X149378333Y-89509789D01*
X149645112Y-89550000D01*
X149914888Y-89550000D01*
X150181666Y-89509789D01*
X150439459Y-89430270D01*
X150439465Y-89430268D01*
X150682521Y-89313218D01*
X150760232Y-89260236D01*
X150849640Y-89222219D01*
X150946791Y-89221310D01*
X151036894Y-89257648D01*
X151106233Y-89325701D01*
X151144250Y-89415109D01*
X151149500Y-89465969D01*
X151149500Y-90530536D01*
X151130546Y-90625824D01*
X151076570Y-90706606D01*
X151069868Y-90713060D01*
X151006439Y-90771915D01*
X150938289Y-90857371D01*
X150838186Y-90982896D01*
X150703257Y-91216601D01*
X150703256Y-91216604D01*
X150604667Y-91467801D01*
X150604663Y-91467812D01*
X150544616Y-91730899D01*
X150524451Y-92000000D01*
X150544616Y-92269100D01*
X150604663Y-92532187D01*
X150604667Y-92532198D01*
X150703256Y-92783395D01*
X150703257Y-92783398D01*
X150838188Y-93017107D01*
X151006437Y-93228083D01*
X151006439Y-93228085D01*
X151204259Y-93411635D01*
X151392369Y-93539886D01*
X151427229Y-93563653D01*
X151573650Y-93634165D01*
X151640086Y-93666159D01*
X151717714Y-93724579D01*
X151767076Y-93808260D01*
X151780657Y-93904461D01*
X151756390Y-93998537D01*
X151697970Y-94076165D01*
X151614289Y-94125527D01*
X151532054Y-94139500D01*
X151491971Y-94139500D01*
X151491956Y-94139501D01*
X151372583Y-94150113D01*
X151198498Y-94199925D01*
X151101672Y-94207915D01*
X151061502Y-94199925D01*
X150941082Y-94165469D01*
X150887418Y-94150114D01*
X150768037Y-94139500D01*
X150768035Y-94139500D01*
X148951968Y-94139500D01*
X148951956Y-94139501D01*
X148832583Y-94150113D01*
X148658498Y-94199925D01*
X148561672Y-94207915D01*
X148521502Y-94199925D01*
X148401082Y-94165469D01*
X148347418Y-94150114D01*
X148228037Y-94139500D01*
X148228035Y-94139500D01*
X146411968Y-94139500D01*
X146411956Y-94139501D01*
X146292583Y-94150113D01*
X146118498Y-94199925D01*
X146021672Y-94207915D01*
X145981502Y-94199925D01*
X145861082Y-94165469D01*
X145807418Y-94150114D01*
X145688037Y-94139500D01*
X145688035Y-94139500D01*
X143871968Y-94139500D01*
X143871956Y-94139501D01*
X143752583Y-94150113D01*
X143577589Y-94200185D01*
X143480763Y-94208175D01*
X143440593Y-94200185D01*
X143267336Y-94150611D01*
X143267328Y-94150609D01*
X143148005Y-94140000D01*
X142966915Y-94140000D01*
X142871627Y-94121046D01*
X142790845Y-94067070D01*
X142736869Y-93986288D01*
X142717915Y-93891000D01*
X142736869Y-93795712D01*
X142790845Y-93714930D01*
X142858878Y-93666659D01*
X142954418Y-93620648D01*
X143072775Y-93563651D01*
X143295741Y-93411635D01*
X143493561Y-93228085D01*
X143661815Y-93017102D01*
X143796743Y-92783398D01*
X143895334Y-92532195D01*
X143955383Y-92269103D01*
X143975549Y-92000000D01*
X143955383Y-91730897D01*
X143910417Y-91533889D01*
X143895336Y-91467812D01*
X143895334Y-91467809D01*
X143895334Y-91467805D01*
X143796743Y-91216602D01*
X143661815Y-90982898D01*
X143661813Y-90982895D01*
X143661811Y-90982892D01*
X143493562Y-90771916D01*
X143493554Y-90771909D01*
X143295741Y-90588365D01*
X143295738Y-90588362D01*
X143072778Y-90436350D01*
X143072773Y-90436348D01*
X142829649Y-90319265D01*
X142829644Y-90319263D01*
X142829641Y-90319262D01*
X142571772Y-90239720D01*
X142304929Y-90199500D01*
X142304926Y-90199500D01*
X142241114Y-90199500D01*
X142145826Y-90180546D01*
X142065044Y-90126570D01*
X141519698Y-89581224D01*
X141465722Y-89500442D01*
X141446768Y-89405154D01*
X141453011Y-89349746D01*
X141460446Y-89317170D01*
X141495383Y-89164103D01*
X141515549Y-88895000D01*
X141495383Y-88625897D01*
X141435334Y-88362805D01*
X141336743Y-88111602D01*
X141201815Y-87877898D01*
X141201813Y-87877895D01*
X141201811Y-87877892D01*
X141201809Y-87877891D01*
X141167062Y-87834320D01*
X141123942Y-87780249D01*
X141079350Y-87693933D01*
X141071184Y-87597122D01*
X141100687Y-87504555D01*
X141123943Y-87469750D01*
X141125372Y-87467958D01*
X141201815Y-87372102D01*
X141336743Y-87138398D01*
X141435334Y-86887195D01*
X141495383Y-86624103D01*
X141515549Y-86355000D01*
X141495383Y-86085897D01*
X141438609Y-85837152D01*
X141435336Y-85822812D01*
X141435334Y-85822809D01*
X141435334Y-85822805D01*
X141336743Y-85571602D01*
X141260184Y-85438998D01*
X141228956Y-85347000D01*
X141235311Y-85250053D01*
X141278281Y-85162918D01*
X141351327Y-85098859D01*
X141443326Y-85067630D01*
X141475826Y-85065500D01*
X142935076Y-85065500D01*
X143030364Y-85084454D01*
X143111146Y-85138430D01*
X143131939Y-85163931D01*
X143132322Y-85163620D01*
X143140301Y-85173406D01*
X143140302Y-85173407D01*
X143268891Y-85331109D01*
X143401208Y-85438999D01*
X143436380Y-85467678D01*
X143434270Y-85470264D01*
X143486626Y-85521939D01*
X143524392Y-85611453D01*
X143529500Y-85661628D01*
X143529500Y-86345486D01*
X143510546Y-86440774D01*
X143461617Y-86514002D01*
X143462780Y-86515081D01*
X143456444Y-86521909D01*
X143288186Y-86732896D01*
X143153257Y-86966601D01*
X143153256Y-86966604D01*
X143054667Y-87217801D01*
X143054663Y-87217812D01*
X142994616Y-87480899D01*
X142974451Y-87750000D01*
X142994616Y-88019100D01*
X143054663Y-88282187D01*
X143054666Y-88282195D01*
X143153257Y-88533398D01*
X143202910Y-88619401D01*
X143288188Y-88767107D01*
X143456437Y-88978083D01*
X143456439Y-88978085D01*
X143654259Y-89161635D01*
X143877226Y-89313651D01*
X144120359Y-89430738D01*
X144378228Y-89510280D01*
X144645071Y-89550500D01*
X144645074Y-89550500D01*
X144914926Y-89550500D01*
X144914929Y-89550500D01*
X145181772Y-89510280D01*
X145439641Y-89430738D01*
X145682775Y-89313651D01*
X145905741Y-89161635D01*
X146103561Y-88978085D01*
X146271815Y-88767102D01*
X146406743Y-88533398D01*
X146505334Y-88282195D01*
X146565383Y-88019103D01*
X146585549Y-87750000D01*
X147974953Y-87750000D01*
X147995115Y-88019031D01*
X148055144Y-88282041D01*
X148153705Y-88533173D01*
X148153708Y-88533178D01*
X148203489Y-88619401D01*
X149020229Y-87802661D01*
X149380000Y-87802661D01*
X149407259Y-87904394D01*
X149459920Y-87995606D01*
X149534394Y-88070080D01*
X149625606Y-88122741D01*
X149727339Y-88150000D01*
X149832661Y-88150000D01*
X149934394Y-88122741D01*
X150025606Y-88070080D01*
X150100080Y-87995606D01*
X150152741Y-87904394D01*
X150180000Y-87802661D01*
X150180000Y-87697339D01*
X150152741Y-87595606D01*
X150100080Y-87504394D01*
X150025606Y-87429920D01*
X149934394Y-87377259D01*
X149832661Y-87350000D01*
X149727339Y-87350000D01*
X149625606Y-87377259D01*
X149534394Y-87429920D01*
X149459920Y-87504394D01*
X149407259Y-87595606D01*
X149380000Y-87697339D01*
X149380000Y-87802661D01*
X149020229Y-87802661D01*
X149072891Y-87749999D01*
X148203488Y-86880596D01*
X148153714Y-86966809D01*
X148153707Y-86966823D01*
X148055143Y-87217960D01*
X147995115Y-87480968D01*
X147974953Y-87750000D01*
X146585549Y-87750000D01*
X146565383Y-87480897D01*
X146522472Y-87292892D01*
X146505336Y-87217812D01*
X146505334Y-87217809D01*
X146505334Y-87217805D01*
X146406743Y-86966602D01*
X146271815Y-86732898D01*
X146103561Y-86521915D01*
X146103555Y-86521909D01*
X146097220Y-86515081D01*
X146099332Y-86513120D01*
X146053107Y-86449155D01*
X146030668Y-86354627D01*
X146030500Y-86345486D01*
X146030500Y-85661628D01*
X146049454Y-85566340D01*
X146103430Y-85485558D01*
X146124316Y-85468531D01*
X146123620Y-85467678D01*
X146158792Y-85438999D01*
X146291109Y-85331109D01*
X146419698Y-85173407D01*
X146513909Y-84993049D01*
X146569886Y-84797418D01*
X146580500Y-84678037D01*
X146580499Y-83055392D01*
X146599453Y-82960105D01*
X146653429Y-82879324D01*
X146721460Y-82831052D01*
X146787662Y-82799172D01*
X147000722Y-82653911D01*
X147189752Y-82478516D01*
X147198871Y-82467082D01*
X147240017Y-82415486D01*
X147350530Y-82276908D01*
X147479463Y-82053588D01*
X147573673Y-81813546D01*
X147575125Y-81807187D01*
X147596144Y-81715093D01*
X147631054Y-81562144D01*
X147650324Y-81304998D01*
X147631054Y-81047852D01*
X147573673Y-80796450D01*
X147479463Y-80556408D01*
X147350530Y-80333088D01*
X147350527Y-80333084D01*
X147350526Y-80333082D01*
X147189753Y-80131480D01*
X147020659Y-79974584D01*
X147000722Y-79956085D01*
X146787662Y-79810824D01*
X146787661Y-79810823D01*
X146787656Y-79810820D01*
X146555337Y-79698941D01*
X146555333Y-79698939D01*
X146555332Y-79698939D01*
X146555327Y-79698937D01*
X146555323Y-79698936D01*
X146308926Y-79622932D01*
X146308922Y-79622931D01*
X146308921Y-79622931D01*
X146053934Y-79584498D01*
X145796066Y-79584498D01*
X145541079Y-79622931D01*
X145541078Y-79622931D01*
X145541073Y-79622932D01*
X145301858Y-79696721D01*
X145205216Y-79706696D01*
X145112114Y-79678929D01*
X145036724Y-79617646D01*
X144990526Y-79532179D01*
X144980551Y-79435537D01*
X144996675Y-79367816D01*
X145033673Y-79273547D01*
X145091054Y-79022145D01*
X145110324Y-78764999D01*
X145091054Y-78507853D01*
X145033673Y-78256451D01*
X144996675Y-78162182D01*
X144979506Y-78066556D01*
X145000238Y-77971639D01*
X145055715Y-77891881D01*
X145137492Y-77839425D01*
X145233118Y-77822256D01*
X145301853Y-77833274D01*
X145541079Y-77907066D01*
X145796066Y-77945499D01*
X145796069Y-77945499D01*
X146053931Y-77945499D01*
X146053934Y-77945499D01*
X146308921Y-77907066D01*
X146555332Y-77831058D01*
X146787662Y-77719173D01*
X147000722Y-77573912D01*
X147189752Y-77398517D01*
X147350530Y-77196909D01*
X147479463Y-76973589D01*
X147573673Y-76733547D01*
X147631054Y-76482145D01*
X147650324Y-76224999D01*
X147631054Y-75967853D01*
X147573673Y-75716451D01*
X147479463Y-75476409D01*
X147350530Y-75253089D01*
X147323369Y-75219030D01*
X147229824Y-75101728D01*
X147185232Y-75015411D01*
X147175500Y-74946479D01*
X147175500Y-74706587D01*
X147175498Y-74706571D01*
X147160017Y-74608827D01*
X147144709Y-74512174D01*
X147083884Y-74324975D01*
X146994524Y-74149595D01*
X146878828Y-73990354D01*
X146817505Y-73929031D01*
X146739646Y-73851171D01*
X146739646Y-73851172D01*
X146653881Y-73765407D01*
X146599905Y-73684625D01*
X146581648Y-73607946D01*
X146565383Y-73390897D01*
X146516116Y-73175044D01*
X146505336Y-73127812D01*
X146505334Y-73127809D01*
X146505334Y-73127805D01*
X146406743Y-72876602D01*
X146271815Y-72642898D01*
X146271813Y-72642895D01*
X146271811Y-72642892D01*
X146103562Y-72431915D01*
X145978710Y-72316070D01*
X145921751Y-72237363D01*
X145899247Y-72142851D01*
X145914625Y-72046920D01*
X145953397Y-71978291D01*
X146003586Y-71915356D01*
X146121815Y-71767102D01*
X146256743Y-71533398D01*
X146355334Y-71282195D01*
X146415383Y-71019103D01*
X146435549Y-70750000D01*
X146415383Y-70480897D01*
X146355334Y-70217805D01*
X146256743Y-69966602D01*
X146121815Y-69732898D01*
X146121813Y-69732895D01*
X146121811Y-69732892D01*
X145953562Y-69521916D01*
X145755738Y-69338362D01*
X145532778Y-69186350D01*
X145532773Y-69186348D01*
X145289649Y-69069265D01*
X145289644Y-69069263D01*
X145289641Y-69069262D01*
X145218883Y-69047436D01*
X145133419Y-69001239D01*
X145072136Y-68925850D01*
X145044369Y-68832747D01*
X145054343Y-68736106D01*
X145100542Y-68650638D01*
X145175931Y-68589355D01*
X145269034Y-68561588D01*
X145292281Y-68560500D01*
X145972873Y-68560500D01*
X146068161Y-68579454D01*
X146142234Y-68626969D01*
X146244260Y-68721635D01*
X146467227Y-68873651D01*
X146710360Y-68990738D01*
X146968229Y-69070280D01*
X147235072Y-69110500D01*
X147235075Y-69110500D01*
X147504927Y-69110500D01*
X147504930Y-69110500D01*
X147771773Y-69070280D01*
X148029642Y-68990738D01*
X148272776Y-68873651D01*
X148495742Y-68721635D01*
X148693562Y-68538085D01*
X148861816Y-68327102D01*
X148996744Y-68093398D01*
X149095335Y-67842195D01*
X149155384Y-67579103D01*
X149175550Y-67310000D01*
X150564954Y-67310000D01*
X150585116Y-67579031D01*
X150645145Y-67842041D01*
X150743706Y-68093173D01*
X150743709Y-68093178D01*
X150793490Y-68179401D01*
X151610230Y-67362661D01*
X151970001Y-67362661D01*
X151997260Y-67464394D01*
X152049921Y-67555606D01*
X152124395Y-67630080D01*
X152215607Y-67682741D01*
X152317340Y-67710000D01*
X152422662Y-67710000D01*
X152524395Y-67682741D01*
X152615607Y-67630080D01*
X152690081Y-67555606D01*
X152742742Y-67464394D01*
X152770001Y-67362661D01*
X152770001Y-67309999D01*
X153077108Y-67309999D01*
X153946511Y-68179402D01*
X153996291Y-68093181D01*
X153996293Y-68093176D01*
X154094856Y-67842041D01*
X154154885Y-67579031D01*
X154175047Y-67310000D01*
X154154885Y-67040968D01*
X154094856Y-66777958D01*
X153996292Y-66526818D01*
X153946511Y-66440596D01*
X153077108Y-67309999D01*
X152770001Y-67309999D01*
X152770001Y-67257339D01*
X152742742Y-67155606D01*
X152690081Y-67064394D01*
X152615607Y-66989920D01*
X152524395Y-66937259D01*
X152422662Y-66910000D01*
X152317340Y-66910000D01*
X152215607Y-66937259D01*
X152124395Y-66989920D01*
X152049921Y-67064394D01*
X151997260Y-67155606D01*
X151970001Y-67257339D01*
X151970001Y-67362661D01*
X151610230Y-67362661D01*
X151662892Y-67309999D01*
X150793489Y-66440596D01*
X150743715Y-66526809D01*
X150743708Y-66526823D01*
X150645144Y-66777960D01*
X150585116Y-67040968D01*
X150564954Y-67310000D01*
X149175550Y-67310000D01*
X149155384Y-67040897D01*
X149114080Y-66859932D01*
X149095337Y-66777812D01*
X149095335Y-66777809D01*
X149095335Y-66777805D01*
X148996744Y-66526602D01*
X148861816Y-66292898D01*
X148693562Y-66081915D01*
X148693556Y-66081909D01*
X148687221Y-66075081D01*
X148689333Y-66073120D01*
X148643108Y-66009155D01*
X148620669Y-65914627D01*
X148620501Y-65905486D01*
X148620501Y-65731696D01*
X151498804Y-65731696D01*
X152370000Y-66602892D01*
X153241196Y-65731695D01*
X153029460Y-65629729D01*
X152771667Y-65550210D01*
X152504889Y-65510000D01*
X152235113Y-65510000D01*
X151968334Y-65550210D01*
X151710544Y-65629728D01*
X151498804Y-65731696D01*
X148620501Y-65731696D01*
X148620501Y-63838303D01*
X151498804Y-63838303D01*
X151710536Y-63940268D01*
X151710541Y-63940270D01*
X151968334Y-64019789D01*
X152235113Y-64060000D01*
X152504889Y-64060000D01*
X152771667Y-64019789D01*
X153029460Y-63940270D01*
X153029465Y-63940268D01*
X153241196Y-63838303D01*
X152370000Y-62967107D01*
X151498804Y-63838303D01*
X148620501Y-63838303D01*
X148620501Y-63664513D01*
X148639455Y-63569225D01*
X148688388Y-63495990D01*
X148687227Y-63494913D01*
X148693562Y-63488085D01*
X148721962Y-63452473D01*
X148861816Y-63277102D01*
X148996744Y-63043398D01*
X149095335Y-62792195D01*
X149096512Y-62787041D01*
X149113102Y-62714351D01*
X149155384Y-62529103D01*
X149175550Y-62260000D01*
X150564954Y-62260000D01*
X150585116Y-62529031D01*
X150645145Y-62792041D01*
X150743706Y-63043173D01*
X150743709Y-63043178D01*
X150793490Y-63129401D01*
X151610230Y-62312661D01*
X151970001Y-62312661D01*
X151997260Y-62414394D01*
X152049921Y-62505606D01*
X152124395Y-62580080D01*
X152215607Y-62632741D01*
X152317340Y-62660000D01*
X152422662Y-62660000D01*
X152524395Y-62632741D01*
X152615607Y-62580080D01*
X152690081Y-62505606D01*
X152742742Y-62414394D01*
X152770001Y-62312661D01*
X152770001Y-62259999D01*
X153077108Y-62259999D01*
X153946511Y-63129402D01*
X153996291Y-63043181D01*
X153996293Y-63043176D01*
X154094856Y-62792041D01*
X154154885Y-62529031D01*
X154175047Y-62260000D01*
X154154885Y-61990968D01*
X154094856Y-61727958D01*
X153996292Y-61476818D01*
X153946511Y-61390596D01*
X153077108Y-62259999D01*
X152770001Y-62259999D01*
X152770001Y-62207339D01*
X152742742Y-62105606D01*
X152690081Y-62014394D01*
X152615607Y-61939920D01*
X152524395Y-61887259D01*
X152422662Y-61860000D01*
X152317340Y-61860000D01*
X152215607Y-61887259D01*
X152124395Y-61939920D01*
X152049921Y-62014394D01*
X151997260Y-62105606D01*
X151970001Y-62207339D01*
X151970001Y-62312661D01*
X151610230Y-62312661D01*
X151662892Y-62259999D01*
X150793489Y-61390596D01*
X150743715Y-61476809D01*
X150743708Y-61476823D01*
X150645144Y-61727960D01*
X150585116Y-61990968D01*
X150564954Y-62260000D01*
X149175550Y-62260000D01*
X149155384Y-61990897D01*
X149116157Y-61819033D01*
X149095337Y-61727812D01*
X149095335Y-61727809D01*
X149095335Y-61727805D01*
X148996744Y-61476602D01*
X148861816Y-61242898D01*
X148861814Y-61242895D01*
X148861812Y-61242892D01*
X148693563Y-61031916D01*
X148692086Y-61030546D01*
X148593246Y-60938835D01*
X148495739Y-60848362D01*
X148272779Y-60696350D01*
X148272774Y-60696348D01*
X148242349Y-60681696D01*
X151498804Y-60681696D01*
X152370000Y-61552892D01*
X153241196Y-60681695D01*
X153029460Y-60579729D01*
X152771667Y-60500210D01*
X152504889Y-60460000D01*
X152235113Y-60460000D01*
X151968334Y-60500210D01*
X151710544Y-60579728D01*
X151498804Y-60681696D01*
X148242349Y-60681696D01*
X148029650Y-60579265D01*
X148029645Y-60579263D01*
X148029642Y-60579262D01*
X147771773Y-60499720D01*
X147504930Y-60459500D01*
X147235072Y-60459500D01*
X147034939Y-60489665D01*
X146968228Y-60499720D01*
X146794440Y-60553326D01*
X146726564Y-60574264D01*
X146710354Y-60579264D01*
X146467228Y-60696348D01*
X146244258Y-60848366D01*
X146142236Y-60943030D01*
X146059493Y-60993948D01*
X145972873Y-61009500D01*
X145537596Y-61009500D01*
X145442308Y-60990546D01*
X145361526Y-60936570D01*
X145330556Y-60898831D01*
X145329025Y-60896539D01*
X145130189Y-60669811D01*
X145027471Y-60579729D01*
X144903460Y-60470974D01*
X144652724Y-60303438D01*
X144652723Y-60303437D01*
X144652718Y-60303434D01*
X144652713Y-60303431D01*
X144652707Y-60303428D01*
X144382265Y-60170060D01*
X144382253Y-60170055D01*
X144382252Y-60170055D01*
X144372476Y-60166736D01*
X144096697Y-60073121D01*
X144096689Y-60073119D01*
X143800930Y-60014288D01*
X143800918Y-60014286D01*
X143500000Y-59994564D01*
X143199081Y-60014286D01*
X143199069Y-60014288D01*
X142903310Y-60073119D01*
X142903302Y-60073121D01*
X142617753Y-60170053D01*
X142617734Y-60170060D01*
X142347292Y-60303428D01*
X142347267Y-60303442D01*
X142137886Y-60443346D01*
X142048127Y-60480526D01*
X141950972Y-60480525D01*
X141861214Y-60443346D01*
X141652473Y-60303871D01*
X141652472Y-60303870D01*
X141382073Y-60170523D01*
X141382054Y-60170516D01*
X141096568Y-60073605D01*
X141096561Y-60073604D01*
X140800864Y-60014785D01*
X140800852Y-60014783D01*
X140500000Y-59995065D01*
X140199147Y-60014783D01*
X140199135Y-60014785D01*
X139903438Y-60073604D01*
X139903431Y-60073605D01*
X139617945Y-60170516D01*
X139617926Y-60170523D01*
X139347544Y-60303862D01*
X139347522Y-60303874D01*
X139265672Y-60358564D01*
X139265672Y-60358565D01*
X140557107Y-61650000D01*
X140435981Y-61650000D01*
X140310402Y-61674979D01*
X140192110Y-61723978D01*
X140085649Y-61795112D01*
X139995112Y-61885649D01*
X139923978Y-61992110D01*
X139874979Y-62110402D01*
X139850000Y-62235981D01*
X139850000Y-62364019D01*
X139874979Y-62489598D01*
X139923978Y-62607890D01*
X139995112Y-62714351D01*
X140085649Y-62804888D01*
X140192110Y-62876022D01*
X140310402Y-62925021D01*
X140435981Y-62950000D01*
X140557105Y-62950000D01*
X139265671Y-64241434D01*
X139265671Y-64241435D01*
X139347521Y-64296125D01*
X139347543Y-64296137D01*
X139617926Y-64429476D01*
X139617945Y-64429483D01*
X139903431Y-64526394D01*
X139903438Y-64526395D01*
X140199135Y-64585214D01*
X140199147Y-64585216D01*
X140500000Y-64604934D01*
X140800852Y-64585216D01*
X140800864Y-64585214D01*
X141096561Y-64526395D01*
X141096568Y-64526394D01*
X141382054Y-64429483D01*
X141382073Y-64429476D01*
X141652469Y-64296131D01*
X141861213Y-64156653D01*
X141950972Y-64119473D01*
X142048127Y-64119473D01*
X142137887Y-64156653D01*
X142347282Y-64296566D01*
X142347291Y-64296570D01*
X142347292Y-64296571D01*
X142617734Y-64429939D01*
X142617741Y-64429941D01*
X142617748Y-64429945D01*
X142803234Y-64492909D01*
X142903302Y-64526878D01*
X142903306Y-64526879D01*
X142903309Y-64526880D01*
X143055339Y-64557121D01*
X143199069Y-64585711D01*
X143199074Y-64585711D01*
X143199080Y-64585713D01*
X143500000Y-64605436D01*
X143800920Y-64585713D01*
X144096691Y-64526880D01*
X144382252Y-64429945D01*
X144382261Y-64429940D01*
X144382265Y-64429939D01*
X144515267Y-64364349D01*
X144652718Y-64296566D01*
X144903461Y-64129025D01*
X145130189Y-63930189D01*
X145329025Y-63703461D01*
X145384015Y-63621161D01*
X145452715Y-63552464D01*
X145542474Y-63515284D01*
X145591051Y-63510500D01*
X145870501Y-63510500D01*
X145965789Y-63529454D01*
X146046571Y-63583430D01*
X146100547Y-63664212D01*
X146119501Y-63759500D01*
X146119501Y-65810500D01*
X146100547Y-65905788D01*
X146046571Y-65986570D01*
X145965789Y-66040546D01*
X145870501Y-66059500D01*
X139591583Y-66059500D01*
X139591580Y-66059500D01*
X139591571Y-66059501D01*
X139397176Y-66090290D01*
X139209978Y-66151114D01*
X139034595Y-66240476D01*
X138875352Y-66356173D01*
X138425569Y-66805956D01*
X138344788Y-66859932D01*
X138249500Y-66878886D01*
X138154212Y-66859932D01*
X138073430Y-66805955D01*
X138019454Y-66725174D01*
X138000500Y-66629886D01*
X138000500Y-63499640D01*
X138019454Y-63404352D01*
X138073430Y-63323570D01*
X138154212Y-63269594D01*
X138249500Y-63250640D01*
X138344788Y-63269594D01*
X138425570Y-63323570D01*
X138472822Y-63389511D01*
X138503870Y-63452472D01*
X138558563Y-63534326D01*
X139792892Y-62299999D01*
X138558565Y-61065672D01*
X138558564Y-61065672D01*
X138503874Y-61147522D01*
X138503868Y-61147533D01*
X138472821Y-61210491D01*
X138413676Y-61287568D01*
X138329537Y-61336145D01*
X138233213Y-61348826D01*
X138139368Y-61323680D01*
X138062291Y-61264535D01*
X138013714Y-61180396D01*
X138000500Y-61100359D01*
X138000500Y-57451587D01*
X138000498Y-57451571D01*
X137969709Y-57257177D01*
X137969709Y-57257174D01*
X137911907Y-57079278D01*
X137909777Y-57071728D01*
X137908884Y-57069975D01*
X137908884Y-57069974D01*
X137819524Y-56894595D01*
X137703828Y-56735354D01*
X135589762Y-54621288D01*
X174899500Y-54621288D01*
X174931162Y-54861791D01*
X174931163Y-54861796D01*
X174993940Y-55096083D01*
X174993948Y-55096106D01*
X175086770Y-55320202D01*
X175086778Y-55320218D01*
X175208058Y-55530280D01*
X175208064Y-55530290D01*
X175355729Y-55722732D01*
X175355738Y-55722742D01*
X175527258Y-55894262D01*
X175527268Y-55894271D01*
X175648491Y-55987288D01*
X175719711Y-56041937D01*
X175719718Y-56041941D01*
X175719720Y-56041942D01*
X175929782Y-56163222D01*
X175929798Y-56163230D01*
X176069858Y-56221243D01*
X176153900Y-56256055D01*
X176153911Y-56256058D01*
X176153917Y-56256060D01*
X176337021Y-56305122D01*
X176388211Y-56318839D01*
X176628712Y-56350501D01*
X176871288Y-56350501D01*
X177111789Y-56318839D01*
X177273275Y-56275568D01*
X177346082Y-56256060D01*
X177346084Y-56256059D01*
X177346100Y-56256055D01*
X177497766Y-56193232D01*
X177570201Y-56163230D01*
X177570206Y-56163227D01*
X177570212Y-56163225D01*
X177780289Y-56041937D01*
X177972738Y-55894266D01*
X178144265Y-55722739D01*
X178291936Y-55530290D01*
X178413224Y-55320213D01*
X178506054Y-55096101D01*
X178568838Y-54861790D01*
X178600500Y-54621289D01*
X178600500Y-54378713D01*
X178568838Y-54138212D01*
X178506058Y-53903917D01*
X178506057Y-53903912D01*
X178506054Y-53903901D01*
X178471242Y-53819859D01*
X178413229Y-53679799D01*
X178413221Y-53679783D01*
X178291941Y-53469721D01*
X178291936Y-53469712D01*
X178144265Y-53277263D01*
X177972738Y-53105736D01*
X177972735Y-53105734D01*
X177972731Y-53105730D01*
X177780289Y-52958065D01*
X177780279Y-52958059D01*
X177570217Y-52836779D01*
X177570201Y-52836771D01*
X177346105Y-52743949D01*
X177346103Y-52743948D01*
X177346100Y-52743947D01*
X177346096Y-52743946D01*
X177346082Y-52743941D01*
X177111795Y-52681164D01*
X177111790Y-52681163D01*
X176871288Y-52649501D01*
X176628712Y-52649501D01*
X176388209Y-52681163D01*
X176388204Y-52681164D01*
X176153917Y-52743941D01*
X176153894Y-52743949D01*
X175929798Y-52836771D01*
X175929782Y-52836779D01*
X175719720Y-52958059D01*
X175719710Y-52958065D01*
X175527268Y-53105730D01*
X175527258Y-53105739D01*
X175355738Y-53277259D01*
X175355729Y-53277269D01*
X175208064Y-53469711D01*
X175208058Y-53469721D01*
X175086778Y-53679783D01*
X175086770Y-53679799D01*
X174993948Y-53903895D01*
X174993940Y-53903918D01*
X174931163Y-54138205D01*
X174931162Y-54138210D01*
X174899500Y-54378713D01*
X174899500Y-54621288D01*
X135589762Y-54621288D01*
X134314646Y-53346172D01*
X134155405Y-53230476D01*
X133980026Y-53141116D01*
X133980023Y-53141115D01*
X133980021Y-53141114D01*
X133792823Y-53080290D01*
X133598428Y-53049501D01*
X133598419Y-53049500D01*
X133598417Y-53049500D01*
X114498417Y-53049500D01*
X114301583Y-53049500D01*
X114301580Y-53049500D01*
X114301571Y-53049501D01*
X114107176Y-53080290D01*
X113919978Y-53141114D01*
X113744595Y-53230476D01*
X113585356Y-53346170D01*
X95016170Y-71915356D01*
X94900476Y-72074595D01*
X94811116Y-72249973D01*
X94811113Y-72249981D01*
X94772272Y-72369523D01*
X94750290Y-72437176D01*
X94719501Y-72631571D01*
X94719500Y-72631587D01*
X94719500Y-95303412D01*
X89000500Y-95303412D01*
X89000500Y-54621287D01*
X97399500Y-54621287D01*
X97431162Y-54861790D01*
X97431163Y-54861795D01*
X97493940Y-55096082D01*
X97493945Y-55096096D01*
X97493946Y-55096100D01*
X97493947Y-55096103D01*
X97493948Y-55096105D01*
X97586770Y-55320201D01*
X97586778Y-55320217D01*
X97708058Y-55530279D01*
X97708064Y-55530289D01*
X97855729Y-55722731D01*
X97855730Y-55722732D01*
X97855735Y-55722738D01*
X98027262Y-55894265D01*
X98027265Y-55894267D01*
X98027268Y-55894270D01*
X98148491Y-55987287D01*
X98219711Y-56041936D01*
X98282126Y-56077971D01*
X98429782Y-56163221D01*
X98429798Y-56163229D01*
X98569858Y-56221242D01*
X98653900Y-56256054D01*
X98653911Y-56256057D01*
X98653917Y-56256059D01*
X98837021Y-56305121D01*
X98888211Y-56318838D01*
X99128712Y-56350500D01*
X99371288Y-56350500D01*
X99611789Y-56318838D01*
X99846078Y-56256060D01*
X99846082Y-56256059D01*
X99846084Y-56256058D01*
X99846100Y-56256054D01*
X99997766Y-56193231D01*
X100070201Y-56163229D01*
X100070206Y-56163226D01*
X100070212Y-56163224D01*
X100280289Y-56041936D01*
X100472738Y-55894265D01*
X100644265Y-55722738D01*
X100791936Y-55530289D01*
X100913224Y-55320212D01*
X100913226Y-55320206D01*
X100913229Y-55320201D01*
X100943231Y-55247766D01*
X101006054Y-55096100D01*
X101068838Y-54861789D01*
X101100500Y-54621288D01*
X101100500Y-54378712D01*
X101068838Y-54138211D01*
X101006054Y-53903900D01*
X100913229Y-53679799D01*
X100913229Y-53679798D01*
X100913221Y-53679782D01*
X100791941Y-53469720D01*
X100791936Y-53469711D01*
X100737287Y-53398491D01*
X100644270Y-53277268D01*
X100644261Y-53277258D01*
X100472741Y-53105738D01*
X100472731Y-53105729D01*
X100280289Y-52958064D01*
X100280279Y-52958058D01*
X100070217Y-52836778D01*
X100070201Y-52836770D01*
X99846105Y-52743948D01*
X99846103Y-52743947D01*
X99846100Y-52743946D01*
X99846096Y-52743945D01*
X99846082Y-52743940D01*
X99611795Y-52681163D01*
X99611790Y-52681162D01*
X99371288Y-52649500D01*
X99128712Y-52649500D01*
X98888209Y-52681162D01*
X98888204Y-52681163D01*
X98653917Y-52743940D01*
X98653894Y-52743948D01*
X98429798Y-52836770D01*
X98429782Y-52836778D01*
X98219720Y-52958058D01*
X98219710Y-52958064D01*
X98027268Y-53105729D01*
X98027258Y-53105738D01*
X97855738Y-53277258D01*
X97855729Y-53277268D01*
X97708064Y-53469710D01*
X97708058Y-53469720D01*
X97586778Y-53679782D01*
X97586770Y-53679798D01*
X97493948Y-53903894D01*
X97493940Y-53903917D01*
X97431163Y-54138204D01*
X97431162Y-54138209D01*
X97399500Y-54378712D01*
X97399500Y-54621287D01*
X89000500Y-54621287D01*
X89000500Y-50249500D01*
X89019454Y-50154212D01*
X89073430Y-50073430D01*
X89154212Y-50019454D01*
X89249500Y-50000500D01*
X186750500Y-50000500D01*
X186845788Y-50019454D01*
G37*
%TD.AperFunction*%
%TD*%
%TA.AperFunction,NonConductor*%
G36*
X131809174Y-68604454D02*
G01*
X131889956Y-68658430D01*
X132676570Y-69445044D01*
X132730546Y-69525826D01*
X132749500Y-69621114D01*
X132749500Y-71605500D01*
X132730546Y-71700788D01*
X132676570Y-71781570D01*
X132595788Y-71835546D01*
X132500500Y-71854500D01*
X132161114Y-71854500D01*
X132065826Y-71835546D01*
X131985044Y-71781570D01*
X131222574Y-71019100D01*
X129999646Y-69796172D01*
X129840405Y-69680476D01*
X129665026Y-69591116D01*
X129665023Y-69591115D01*
X129665021Y-69591114D01*
X129477823Y-69530290D01*
X129283428Y-69499501D01*
X129283419Y-69499500D01*
X129283417Y-69499500D01*
X129283413Y-69499500D01*
X128517128Y-69499500D01*
X128421840Y-69480546D01*
X128347765Y-69433030D01*
X128308500Y-69396597D01*
X128245741Y-69338365D01*
X128245737Y-69338362D01*
X128022778Y-69186350D01*
X128022773Y-69186348D01*
X127779655Y-69069268D01*
X127779646Y-69069264D01*
X127779641Y-69069262D01*
X127779634Y-69069260D01*
X127772071Y-69066292D01*
X127690292Y-69013839D01*
X127634811Y-68934083D01*
X127614075Y-68839167D01*
X127631239Y-68743540D01*
X127683692Y-68661761D01*
X127763448Y-68606280D01*
X127858364Y-68585544D01*
X127863031Y-68585500D01*
X131713886Y-68585500D01*
X131809174Y-68604454D01*
G37*
%TD.AperFunction*%
%TA.AperFunction,NonConductor*%
G36*
X144063007Y-68579454D02*
G01*
X144143789Y-68633430D01*
X144197765Y-68714212D01*
X144216719Y-68809500D01*
X144197765Y-68904788D01*
X144143789Y-68985570D01*
X144063007Y-69039546D01*
X144041126Y-69047433D01*
X143979988Y-69066292D01*
X143970353Y-69069264D01*
X143727227Y-69186348D01*
X143504257Y-69338366D01*
X143402235Y-69433030D01*
X143319492Y-69483948D01*
X143232872Y-69499500D01*
X142713416Y-69499500D01*
X142516583Y-69499500D01*
X142516580Y-69499500D01*
X142516571Y-69499501D01*
X142322176Y-69530290D01*
X142261344Y-69550055D01*
X142134976Y-69591115D01*
X142076100Y-69621114D01*
X141959595Y-69680476D01*
X141917423Y-69711116D01*
X141917422Y-69711117D01*
X141917421Y-69711116D01*
X141800364Y-69796163D01*
X141800360Y-69796166D01*
X139814956Y-71781570D01*
X139734174Y-71835546D01*
X139638886Y-71854500D01*
X139575071Y-71854500D01*
X139536610Y-71860297D01*
X139439561Y-71855756D01*
X139351637Y-71814422D01*
X139286224Y-71742587D01*
X139253281Y-71651188D01*
X139250500Y-71614078D01*
X139250500Y-69621114D01*
X139269454Y-69525826D01*
X139323430Y-69445044D01*
X140135044Y-68633430D01*
X140215826Y-68579454D01*
X140311114Y-68560500D01*
X143967719Y-68560500D01*
X144063007Y-68579454D01*
G37*
%TD.AperFunction*%
%TA.AperFunction,NonConductor*%
G36*
X143478160Y-74929454D02*
G01*
X143552233Y-74976969D01*
X143654259Y-75071635D01*
X143877226Y-75223651D01*
X144120359Y-75340738D01*
X144134582Y-75345125D01*
X144220048Y-75391322D01*
X144281331Y-75466711D01*
X144309099Y-75559813D01*
X144299125Y-75656455D01*
X144292976Y-75674027D01*
X144276326Y-75716451D01*
X144218945Y-75967855D01*
X144199676Y-76224999D01*
X144218945Y-76482142D01*
X144276325Y-76733541D01*
X144276326Y-76733543D01*
X144276327Y-76733547D01*
X144291386Y-76771916D01*
X144313325Y-76827816D01*
X144330493Y-76923442D01*
X144309761Y-77018359D01*
X144254283Y-77098117D01*
X144172506Y-77150573D01*
X144076880Y-77167741D01*
X144008142Y-77156722D01*
X143768926Y-77082933D01*
X143768922Y-77082932D01*
X143768921Y-77082932D01*
X143513934Y-77044499D01*
X143256066Y-77044499D01*
X143001079Y-77082932D01*
X143001078Y-77082932D01*
X143001073Y-77082933D01*
X142754676Y-77158937D01*
X142754662Y-77158942D01*
X142522343Y-77270821D01*
X142309281Y-77416084D01*
X142309272Y-77416091D01*
X142120246Y-77591481D01*
X141959474Y-77793083D01*
X141959473Y-77793083D01*
X141830536Y-78016411D01*
X141830534Y-78016415D01*
X141828143Y-78022508D01*
X141775684Y-78104283D01*
X141695925Y-78159759D01*
X141601007Y-78180490D01*
X141505382Y-78163319D01*
X141423607Y-78110860D01*
X141368131Y-78031101D01*
X141364570Y-78022504D01*
X141336743Y-77951602D01*
X141201815Y-77717898D01*
X141201813Y-77717895D01*
X141201811Y-77717892D01*
X141201809Y-77717891D01*
X141182840Y-77694105D01*
X141123942Y-77620249D01*
X141079350Y-77533933D01*
X141071184Y-77437122D01*
X141100687Y-77344555D01*
X141123943Y-77309750D01*
X141154983Y-77270827D01*
X141201815Y-77212102D01*
X141336743Y-76978398D01*
X141435334Y-76727195D01*
X141495383Y-76464103D01*
X141512053Y-76241647D01*
X141538075Y-76148044D01*
X141584287Y-76084186D01*
X142685044Y-74983430D01*
X142765826Y-74929454D01*
X142861114Y-74910500D01*
X143382872Y-74910500D01*
X143478160Y-74929454D01*
G37*
%TD.AperFunction*%
%TA.AperFunction,NonConductor*%
G36*
X141675552Y-79336677D02*
G01*
X141757329Y-79389133D01*
X141812807Y-79468891D01*
X141816370Y-79477494D01*
X141816371Y-79477496D01*
X141830537Y-79513589D01*
X141942027Y-79706696D01*
X141959473Y-79736914D01*
X141959474Y-79736915D01*
X142018417Y-79810826D01*
X142077214Y-79884555D01*
X142080175Y-79888267D01*
X142124768Y-79974584D01*
X142134500Y-80043517D01*
X142134500Y-82315500D01*
X142115546Y-82410788D01*
X142061570Y-82491570D01*
X141980788Y-82545546D01*
X141885500Y-82564500D01*
X141475826Y-82564500D01*
X141380538Y-82545546D01*
X141299756Y-82491570D01*
X141245780Y-82410788D01*
X141226826Y-82315500D01*
X141245780Y-82220212D01*
X141260185Y-82191001D01*
X141286138Y-82146049D01*
X141336743Y-82058398D01*
X141435334Y-81807195D01*
X141495383Y-81544103D01*
X141515549Y-81275000D01*
X141495383Y-81005897D01*
X141435334Y-80742805D01*
X141336743Y-80491602D01*
X141201815Y-80257898D01*
X141201813Y-80257895D01*
X141201811Y-80257892D01*
X141201809Y-80257891D01*
X141123943Y-80160250D01*
X141079350Y-80073933D01*
X141071184Y-79977122D01*
X141100687Y-79884555D01*
X141123943Y-79849750D01*
X141146233Y-79821799D01*
X141201815Y-79752102D01*
X141336743Y-79518398D01*
X141352797Y-79477491D01*
X141405251Y-79395719D01*
X141485009Y-79340241D01*
X141579926Y-79319509D01*
X141675552Y-79336677D01*
G37*
%TD.AperFunction*%
%TA.AperFunction,NonConductor*%
G36*
X129014174Y-74929454D02*
G01*
X129094956Y-74983430D01*
X130217332Y-76105806D01*
X130271308Y-76186588D01*
X130289566Y-76263268D01*
X130304616Y-76464100D01*
X130364663Y-76727187D01*
X130364667Y-76727198D01*
X130382218Y-76771916D01*
X130463257Y-76978398D01*
X130598185Y-77212102D01*
X130598189Y-77212107D01*
X130676057Y-77309751D01*
X130720650Y-77396068D01*
X130728815Y-77492880D01*
X130699311Y-77585446D01*
X130676057Y-77620249D01*
X130598189Y-77717892D01*
X130598188Y-77717892D01*
X130463257Y-77951601D01*
X130463256Y-77951604D01*
X130364667Y-78202801D01*
X130364663Y-78202812D01*
X130304616Y-78465899D01*
X130284451Y-78735000D01*
X130304616Y-79004100D01*
X130364663Y-79267187D01*
X130364667Y-79267198D01*
X130385198Y-79319509D01*
X130463257Y-79518398D01*
X130598185Y-79752102D01*
X130598189Y-79752107D01*
X130676057Y-79849751D01*
X130720650Y-79936068D01*
X130728815Y-80032880D01*
X130699311Y-80125446D01*
X130676057Y-80160249D01*
X130598189Y-80257892D01*
X130598188Y-80257892D01*
X130463257Y-80491601D01*
X130463256Y-80491604D01*
X130364667Y-80742801D01*
X130364663Y-80742812D01*
X130304616Y-81005899D01*
X130284451Y-81275000D01*
X130304616Y-81544100D01*
X130364663Y-81807187D01*
X130364667Y-81807198D01*
X130367159Y-81813548D01*
X130447990Y-82019500D01*
X130463256Y-82058395D01*
X130463260Y-82058404D01*
X130539815Y-82191001D01*
X130571044Y-82283000D01*
X130564689Y-82379947D01*
X130521719Y-82467082D01*
X130448673Y-82531141D01*
X130356674Y-82562370D01*
X130324174Y-82564500D01*
X128837782Y-82564500D01*
X128742494Y-82545546D01*
X128661712Y-82491570D01*
X128644803Y-82472854D01*
X128605479Y-82424627D01*
X128511109Y-82308891D01*
X128353407Y-82180302D01*
X128353402Y-82180299D01*
X128173053Y-82086093D01*
X128173052Y-82086092D01*
X128173049Y-82086091D01*
X127977418Y-82030114D01*
X127858037Y-82019500D01*
X127858036Y-82019500D01*
X127588902Y-82019500D01*
X127493614Y-82000546D01*
X127412832Y-81946570D01*
X127358856Y-81865788D01*
X127339902Y-81770500D01*
X127346145Y-81715093D01*
X127355099Y-81675860D01*
X127381054Y-81562146D01*
X127400324Y-81305000D01*
X127381054Y-81047854D01*
X127323673Y-80796452D01*
X127229463Y-80556410D01*
X127100530Y-80333090D01*
X127100528Y-80333087D01*
X127100526Y-80333084D01*
X126939753Y-80131482D01*
X126750727Y-79956092D01*
X126750722Y-79956087D01*
X126537662Y-79810826D01*
X126537661Y-79810825D01*
X126537656Y-79810822D01*
X126305337Y-79698943D01*
X126305333Y-79698941D01*
X126305332Y-79698941D01*
X126305327Y-79698939D01*
X126305323Y-79698938D01*
X126058926Y-79622934D01*
X126058922Y-79622933D01*
X126058921Y-79622933D01*
X125803934Y-79584500D01*
X125546066Y-79584500D01*
X125291079Y-79622933D01*
X125291078Y-79622933D01*
X125291073Y-79622934D01*
X125051858Y-79696723D01*
X124955216Y-79706698D01*
X124862114Y-79678931D01*
X124786724Y-79617648D01*
X124740526Y-79532181D01*
X124730551Y-79435539D01*
X124746673Y-79367820D01*
X124783673Y-79273549D01*
X124841054Y-79022147D01*
X124860324Y-78765001D01*
X124841054Y-78507855D01*
X124783673Y-78256453D01*
X124746675Y-78162184D01*
X124729506Y-78066558D01*
X124750238Y-77971641D01*
X124805715Y-77891883D01*
X124887492Y-77839427D01*
X124983118Y-77822258D01*
X125051853Y-77833276D01*
X125291079Y-77907068D01*
X125546066Y-77945501D01*
X125546069Y-77945501D01*
X125803931Y-77945501D01*
X125803934Y-77945501D01*
X126058921Y-77907068D01*
X126305332Y-77831060D01*
X126537662Y-77719175D01*
X126750722Y-77573914D01*
X126939752Y-77398519D01*
X126939755Y-77398516D01*
X126982787Y-77344555D01*
X127100530Y-77196911D01*
X127229463Y-76973591D01*
X127323673Y-76733549D01*
X127381054Y-76482147D01*
X127400324Y-76225001D01*
X127381054Y-75967855D01*
X127323673Y-75716453D01*
X127323672Y-75716451D01*
X127320929Y-75707557D01*
X127323448Y-75706779D01*
X127309293Y-75627933D01*
X127330025Y-75533016D01*
X127385503Y-75453258D01*
X127467279Y-75400801D01*
X127484831Y-75394659D01*
X127659641Y-75340738D01*
X127659647Y-75340735D01*
X127659648Y-75340735D01*
X127764520Y-75290231D01*
X127902775Y-75223651D01*
X128125741Y-75071635D01*
X128227766Y-74976969D01*
X128310508Y-74926052D01*
X128397128Y-74910500D01*
X128918886Y-74910500D01*
X129014174Y-74929454D01*
G37*
%TD.AperFunction*%
%TA.AperFunction,NonConductor*%
G36*
X98895788Y-71790068D02*
G01*
X98976570Y-71844044D01*
X99030546Y-71924826D01*
X99049500Y-72020114D01*
X99049500Y-82902792D01*
X99048522Y-82924843D01*
X99047000Y-82941959D01*
X99047000Y-83727833D01*
X99028046Y-83823121D01*
X98974070Y-83903902D01*
X98355484Y-84522488D01*
X98300334Y-84598395D01*
X98242472Y-84678036D01*
X98216656Y-84713568D01*
X98216655Y-84713569D01*
X98166177Y-84812639D01*
X98166176Y-84812638D01*
X98109433Y-84924004D01*
X98109429Y-84924015D01*
X98036446Y-85148635D01*
X97999501Y-85381896D01*
X97999500Y-85381912D01*
X97999500Y-86931221D01*
X97980546Y-87026509D01*
X97966141Y-87055720D01*
X97873259Y-87216597D01*
X97873250Y-87216617D01*
X97774668Y-87467796D01*
X97774663Y-87467812D01*
X97712544Y-87739980D01*
X97710021Y-87739404D01*
X97682763Y-87815005D01*
X97617344Y-87886834D01*
X97529416Y-87928160D01*
X97432367Y-87932692D01*
X97340971Y-87899739D01*
X97269142Y-87834320D01*
X97227816Y-87746392D01*
X97220500Y-87686476D01*
X97220500Y-73351114D01*
X97239454Y-73255826D01*
X97293430Y-73175044D01*
X98624430Y-71844044D01*
X98705212Y-71790068D01*
X98800500Y-71771114D01*
X98895788Y-71790068D01*
G37*
%TD.AperFunction*%
%TA.AperFunction,NonConductor*%
G36*
X97564788Y-88083477D02*
G01*
X97645570Y-88137453D01*
X97699546Y-88218235D01*
X97711245Y-88260316D01*
X97712544Y-88260020D01*
X97774663Y-88532187D01*
X97774667Y-88532198D01*
X97873256Y-88783395D01*
X97873260Y-88783404D01*
X97966141Y-88944279D01*
X97997370Y-89036278D01*
X97999500Y-89068778D01*
X97999500Y-90995500D01*
X97980546Y-91090788D01*
X97926570Y-91171570D01*
X97845788Y-91225546D01*
X97750500Y-91244500D01*
X97469500Y-91244500D01*
X97374212Y-91225546D01*
X97293430Y-91171570D01*
X97239454Y-91090788D01*
X97220500Y-90995500D01*
X97220500Y-88313523D01*
X97239454Y-88218235D01*
X97293430Y-88137453D01*
X97374212Y-88083477D01*
X97469500Y-88064523D01*
X97564788Y-88083477D01*
G37*
%TD.AperFunction*%
%TA.AperFunction,NonConductor*%
G36*
X135995287Y-79355567D02*
G01*
X136076069Y-79409543D01*
X137836117Y-81169591D01*
X137890093Y-81250373D01*
X137908351Y-81327053D01*
X137924616Y-81544100D01*
X137984663Y-81807187D01*
X137984667Y-81807198D01*
X137987159Y-81813548D01*
X138083257Y-82058398D01*
X138218185Y-82292102D01*
X138218189Y-82292107D01*
X138296057Y-82389751D01*
X138340650Y-82476068D01*
X138348815Y-82572880D01*
X138319311Y-82665446D01*
X138296057Y-82700249D01*
X138218189Y-82797892D01*
X138218188Y-82797892D01*
X138083257Y-83031601D01*
X138083256Y-83031604D01*
X137984667Y-83282801D01*
X137984663Y-83282812D01*
X137924616Y-83545899D01*
X137904451Y-83815000D01*
X137924616Y-84084100D01*
X137984663Y-84347187D01*
X137984667Y-84347198D01*
X138016902Y-84429329D01*
X138083257Y-84598398D01*
X138218185Y-84832102D01*
X138218189Y-84832107D01*
X138296057Y-84929751D01*
X138340650Y-85016068D01*
X138348815Y-85112880D01*
X138319311Y-85205446D01*
X138296057Y-85240249D01*
X138218189Y-85337892D01*
X138218188Y-85337892D01*
X138083257Y-85571601D01*
X138083256Y-85571604D01*
X137984667Y-85822801D01*
X137984663Y-85822812D01*
X137924616Y-86085899D01*
X137904451Y-86355000D01*
X137924616Y-86624100D01*
X137984663Y-86887187D01*
X137984667Y-86887198D01*
X138015916Y-86966818D01*
X138083257Y-87138398D01*
X138218185Y-87372102D01*
X138218189Y-87372107D01*
X138296057Y-87469751D01*
X138340650Y-87556068D01*
X138348815Y-87652880D01*
X138319311Y-87745446D01*
X138296057Y-87780249D01*
X138218189Y-87877892D01*
X138218188Y-87877892D01*
X138083257Y-88111601D01*
X138083256Y-88111604D01*
X137984667Y-88362801D01*
X137984663Y-88362812D01*
X137924616Y-88625899D01*
X137904451Y-88895000D01*
X137924616Y-89164100D01*
X137966988Y-89349746D01*
X137969713Y-89446863D01*
X137935065Y-89537630D01*
X137900301Y-89581223D01*
X133765570Y-93715956D01*
X133684788Y-93769932D01*
X133589500Y-93788886D01*
X133494212Y-93769932D01*
X133413430Y-93715956D01*
X133359454Y-93635174D01*
X133340500Y-93539886D01*
X133340500Y-90299513D01*
X133359454Y-90204225D01*
X133408387Y-90130990D01*
X133407226Y-90129913D01*
X133413561Y-90123085D01*
X133511310Y-90000512D01*
X133581815Y-89912102D01*
X133716743Y-89678398D01*
X133815334Y-89427195D01*
X133875383Y-89164103D01*
X133895549Y-88895000D01*
X133875383Y-88625897D01*
X133815334Y-88362805D01*
X133716743Y-88111602D01*
X133581815Y-87877898D01*
X133581813Y-87877895D01*
X133581811Y-87877892D01*
X133581809Y-87877891D01*
X133547062Y-87834320D01*
X133503942Y-87780249D01*
X133459350Y-87693933D01*
X133451184Y-87597122D01*
X133480687Y-87504555D01*
X133503943Y-87469750D01*
X133505372Y-87467958D01*
X133581815Y-87372102D01*
X133716743Y-87138398D01*
X133815334Y-86887195D01*
X133875383Y-86624103D01*
X133895549Y-86355000D01*
X133875383Y-86085897D01*
X133818609Y-85837152D01*
X133815336Y-85822812D01*
X133815334Y-85822809D01*
X133815334Y-85822805D01*
X133716743Y-85571602D01*
X133581815Y-85337898D01*
X133581813Y-85337895D01*
X133581811Y-85337892D01*
X133581809Y-85337891D01*
X133576401Y-85331110D01*
X133503942Y-85240249D01*
X133459350Y-85153933D01*
X133451184Y-85057122D01*
X133480687Y-84964555D01*
X133503943Y-84929750D01*
X133581815Y-84832102D01*
X133716743Y-84598398D01*
X133815334Y-84347195D01*
X133875383Y-84084103D01*
X133895549Y-83815000D01*
X133875383Y-83545897D01*
X133824597Y-83323388D01*
X133815336Y-83282812D01*
X133815334Y-83282809D01*
X133815334Y-83282805D01*
X133716743Y-83031602D01*
X133581815Y-82797898D01*
X133581813Y-82797895D01*
X133581811Y-82797892D01*
X133581809Y-82797891D01*
X133503943Y-82700250D01*
X133459350Y-82613933D01*
X133451184Y-82517122D01*
X133480687Y-82424555D01*
X133503943Y-82389750D01*
X133511761Y-82379947D01*
X133581815Y-82292102D01*
X133716743Y-82058398D01*
X133815334Y-81807195D01*
X133875383Y-81544103D01*
X133891648Y-81327051D01*
X133917670Y-81233448D01*
X133963879Y-81169593D01*
X135723934Y-79409539D01*
X135804711Y-79355567D01*
X135899999Y-79336613D01*
X135995287Y-79355567D01*
G37*
%TD.AperFunction*%
%TA.AperFunction,NonConductor*%
G36*
X139805287Y-91430567D02*
G01*
X139886069Y-91484543D01*
X140296117Y-91894591D01*
X140350093Y-91975373D01*
X140368351Y-92052053D01*
X140384616Y-92269100D01*
X140444663Y-92532187D01*
X140444667Y-92532198D01*
X140543256Y-92783395D01*
X140543257Y-92783398D01*
X140678188Y-93017107D01*
X140846437Y-93228083D01*
X140846439Y-93228085D01*
X141044259Y-93411635D01*
X141267226Y-93563651D01*
X141390530Y-93623031D01*
X141481123Y-93666659D01*
X141558750Y-93725080D01*
X141608112Y-93808761D01*
X141621693Y-93904962D01*
X141597426Y-93999038D01*
X141539005Y-94076665D01*
X141455324Y-94126027D01*
X141373085Y-94140000D01*
X141331994Y-94140000D01*
X141212671Y-94150609D01*
X141212663Y-94150611D01*
X141039407Y-94200185D01*
X140942581Y-94208175D01*
X140902411Y-94200185D01*
X140776197Y-94164071D01*
X140727418Y-94150114D01*
X140608037Y-94139500D01*
X140608035Y-94139500D01*
X138791968Y-94139500D01*
X138791956Y-94139501D01*
X138672583Y-94150113D01*
X138498498Y-94199925D01*
X138401672Y-94207915D01*
X138361502Y-94199925D01*
X138241082Y-94165469D01*
X138187418Y-94150114D01*
X138068037Y-94139500D01*
X138068036Y-94139500D01*
X137480113Y-94139500D01*
X137384825Y-94120546D01*
X137304043Y-94066570D01*
X137250067Y-93985788D01*
X137231113Y-93890500D01*
X137250067Y-93795212D01*
X137304043Y-93714430D01*
X138249876Y-92768597D01*
X139533934Y-91484539D01*
X139614711Y-91430567D01*
X139709999Y-91411613D01*
X139805287Y-91430567D01*
G37*
%TD.AperFunction*%
M02*
